<svg width="34" height="26" viewBox="0 0 34 26" fill="none" xmlns="http://www.w3.org/2000/svg">
<path d="M32.4062 23.0938H12.2188V6.09375C12.2188 5.81196 12.3307 5.54171 12.5299 5.34245C12.7292 5.14319 12.9995 5.03125 13.2812 5.03125H32.4062C32.688 5.03125 32.9583 5.14319 33.1576 5.34245C33.3568 5.54171 33.4688 5.81196 33.4688 6.09375V22.0312C33.4688 22.313 33.3568 22.5833 33.1576 22.7826C32.9583 22.9818 32.688 23.0938 32.4062 23.0938Z" fill="#E6E6E6"/>
<path d="M13.8125 5.5625V5.03125H13.2812C12.9995 5.03125 12.7292 5.14319 12.5299 5.34245C12.3307 5.54171 12.2188 5.81196 12.2188 6.09375V22.0312C12.2188 22.313 12.3307 22.5833 12.5299 22.7826C12.7292 22.9818 12.9995 23.0938 13.2812 23.0938H32.4062C32.688 23.0938 32.9583 22.9818 33.1576 22.7826C33.3568 22.5833 33.4688 22.313 33.4688 22.0312V21.5H29.75C25.5231 21.5 21.4693 19.8209 18.4805 16.832C15.4916 13.8432 13.8125 9.78939 13.8125 5.5625Z" fill="#CECECE"/>
<path d="M7.33125 8.04609L2.96278 14.1645C2.76138 14.4465 2.49399 14.6748 2.18397 14.8296L1.12147 15.3609C0.944189 15.4488 0.795001 15.5846 0.690719 15.7528C0.586437 15.921 0.531206 16.115 0.53125 16.3129V22.0313C0.53125 22.313 0.643192 22.5833 0.842449 22.7826C1.04171 22.9818 1.31196 23.0938 1.59375 23.0938H12.2188V7.15625H9.06206C8.72354 7.15599 8.38986 7.2366 8.0888 7.39139C7.78774 7.54617 7.52801 7.77063 7.33125 8.04609Z" fill="#E6E6E6"/>
<path d="M8.5 21.5C6.80925 21.5 5.18774 20.8284 3.99219 19.6328C2.79665 18.4373 2.125 16.8158 2.125 15.125V14.8594L1.11881 15.3625C0.942271 15.4507 0.793789 15.5863 0.69001 15.7542C0.586231 15.9221 0.531257 16.1155 0.53125 16.3129V22.0312C0.53125 22.313 0.643192 22.5833 0.842449 22.7826C1.04171 22.9818 1.31196 23.0938 1.59375 23.0938H12.2188V21.5H8.5Z" fill="#CECECE"/>
<path d="M4.78125 14.5938H12.2188V8.75H9.57206C9.4045 8.75006 9.23933 8.78975 9.09004 8.86583C8.94074 8.94191 8.81156 9.05222 8.71303 9.18775L4.78125 14.5938Z" fill="#A7D0E1"/>
<path d="M9.19594 11.3127L11.0596 8.75H9.57206C9.4045 8.75006 9.23933 8.78975 9.09004 8.86583C8.94074 8.94191 8.81156 9.05222 8.71303 9.18775L4.78125 14.5938H12.2188V13H10.0555C9.85951 13 9.66734 12.9458 9.50023 12.8435C9.33312 12.7411 9.19759 12.5944 9.10863 12.4198C9.01966 12.2452 8.98073 12.0493 8.99614 11.854C9.01155 11.6586 9.0807 11.4713 9.19594 11.3127Z" fill="#80BBCE"/>
<path d="M9.5625 5.03125C9.84429 5.03125 10.1145 5.14319 10.3138 5.34245C10.5131 5.54171 10.625 5.81196 10.625 6.09375V7.15625H8.5V6.09375C8.5 5.81196 8.61194 5.54171 8.8112 5.34245C9.01046 5.14319 9.28071 5.03125 9.5625 5.03125ZM12.2188 16.7188H33.4688V18.8438H12.2188V16.7188Z" fill="#DF1D32"/>
<path d="M18.3727 16.7188H12.2188V18.8438H20.9413C20.0134 18.2269 19.1525 17.5147 18.3727 16.7188Z" fill="#BE1729"/>
<path d="M0.53125 16.7188H12.2188V18.8438H0.53125V16.7188Z" fill="#FC6D7C"/>
<path d="M2.33378 16.7188H0.53125V18.8438H3.32934C2.86817 18.2035 2.53054 17.4829 2.33378 16.7188Z" fill="#ED5D5D"/>
<path d="M6.90625 25.2188C8.66666 25.2188 10.0938 23.7917 10.0938 22.0312C10.0938 20.2708 8.66666 18.8438 6.90625 18.8438C5.14584 18.8438 3.71875 20.2708 3.71875 22.0312C3.71875 23.7917 5.14584 25.2188 6.90625 25.2188Z" fill="#7A838B"/>
<path d="M7.96875 23.625C7.47404 23.6257 6.98596 23.5111 6.54327 23.2903C6.10058 23.0695 5.71546 22.7485 5.41849 22.3528C5.12152 21.9572 4.92088 21.4977 4.83249 21.011C4.74409 20.5242 4.77039 20.0235 4.90928 19.5487C4.5184 19.8622 4.20693 20.2634 4.00012 20.7198C3.79332 21.1761 3.69701 21.6748 3.71902 22.1754C3.74103 22.6759 3.88073 23.1643 4.12678 23.6007C4.37284 24.0372 4.71833 24.4095 5.13521 24.6875C5.55209 24.9654 6.02862 25.1412 6.52614 25.2005C7.02366 25.2598 7.52816 25.201 7.9987 25.0288C8.46923 24.8566 8.89256 24.576 9.23432 24.2096C9.57609 23.8432 9.82666 23.4014 9.96572 22.92C9.4005 23.3769 8.69552 23.6258 7.96875 23.625Z" fill="#5D6972"/>
<path d="M6.90625 23.0938C7.49305 23.0938 7.96875 22.6181 7.96875 22.0312C7.96875 21.4444 7.49305 20.9688 6.90625 20.9688C6.31945 20.9688 5.84375 21.4444 5.84375 22.0312C5.84375 22.6181 6.31945 23.0938 6.90625 23.0938Z" fill="#A7D0E1"/>
<path d="M27.0938 25.2188C28.8542 25.2188 30.2812 23.7917 30.2812 22.0312C30.2812 20.2708 28.8542 18.8438 27.0938 18.8438C25.3333 18.8438 23.9062 20.2708 23.9062 22.0312C23.9062 23.7917 25.3333 25.2188 27.0938 25.2188Z" fill="#7A838B"/>
<path d="M28.1563 23.625C27.6615 23.6257 27.1735 23.5111 26.7308 23.2903C26.2881 23.0695 25.903 22.7485 25.606 22.3528C25.309 21.9572 25.1084 21.4977 25.02 21.011C24.9316 20.5242 24.9579 20.0235 25.0968 19.5487C24.7059 19.8622 24.3944 20.2634 24.1876 20.7198C23.9808 21.1761 23.8845 21.6748 23.9065 22.1754C23.9285 22.6759 24.0682 23.1643 24.3143 23.6007C24.5603 24.0372 24.9058 24.4095 25.3227 24.6875C25.7396 24.9654 26.2161 25.1412 26.7136 25.2005C27.2112 25.2598 27.7157 25.201 28.1862 25.0288C28.6567 24.8566 29.0801 24.576 29.4218 24.2096C29.7636 23.8432 30.0142 23.4014 30.1532 22.92C29.588 23.3769 28.883 23.6258 28.1563 23.625Z" fill="#5D6972"/>
<path d="M27.0938 23.0938C27.6806 23.0938 28.1562 22.6181 28.1562 22.0312C28.1562 21.4444 27.6806 20.9688 27.0938 20.9688C26.5069 20.9688 26.0312 21.4444 26.0312 22.0312C26.0312 22.6181 26.5069 23.0938 27.0938 23.0938Z" fill="#A7D0E1"/>
<path d="M26.0313 9.8125H23.9063V7.6875H21.7813V9.8125H19.6563V11.9375H21.7813V14.0625H23.9063V11.9375H26.0313V9.8125ZM9.5625 2.375C9.7034 2.375 9.83852 2.31903 9.93815 2.2194C10.0378 2.11977 10.0938 1.98465 10.0938 1.84375V0.78125C10.0938 0.640354 10.0378 0.505228 9.93815 0.4056C9.83852 0.305971 9.7034 0.25 9.5625 0.25C9.42161 0.25 9.28648 0.305971 9.18685 0.4056C9.08722 0.505228 9.03125 0.640354 9.03125 0.78125V1.84375C9.03125 1.98465 9.08722 2.11977 9.18685 2.2194C9.28648 2.31903 9.42161 2.375 9.5625 2.375ZM7.06191 3.28184C7.1621 3.37862 7.2963 3.43216 7.43559 3.43095C7.57488 3.42974 7.70813 3.37387 7.80662 3.27537C7.90512 3.17687 7.96099 3.04363 7.9622 2.90434C7.96341 2.76505 7.90987 2.63085 7.8131 2.53066L7.28185 1.99941C7.18165 1.90263 7.04746 1.84909 6.90816 1.8503C6.76887 1.85151 6.63563 1.90738 6.53713 2.00588C6.43863 2.10438 6.38276 2.23762 6.38155 2.37691C6.38034 2.5162 6.43389 2.6504 6.53066 2.75059L7.06191 3.28184ZM11.6875 3.4375C11.8284 3.43747 11.9635 3.38148 12.0631 3.28184L12.5943 2.75059C12.6911 2.6504 12.7447 2.5162 12.7435 2.37691C12.7422 2.23762 12.6864 2.10438 12.5879 2.00588C12.4894 1.90738 12.3561 1.85151 12.2168 1.8503C12.0775 1.84909 11.9434 1.90263 11.8432 1.99941L11.3119 2.53066C11.2376 2.60495 11.1871 2.6996 11.1666 2.80264C11.1461 2.90568 11.1566 3.01248 11.1968 3.10953C11.237 3.20659 11.3051 3.28956 11.3924 3.34793C11.4798 3.40631 11.5824 3.43748 11.6875 3.4375Z" fill="#DF1D32"/>
<path d="M11.1562 11.4062C11.0154 11.4062 10.8802 11.3503 10.7806 11.2507C10.681 11.151 10.625 11.0159 10.625 10.875V9.8125C10.625 9.6716 10.681 9.53648 10.7806 9.43685C10.8802 9.33722 11.0154 9.28125 11.1562 9.28125C11.2971 9.28125 11.4323 9.33722 11.5319 9.43685C11.6315 9.53648 11.6875 9.6716 11.6875 9.8125V10.875C11.6875 11.0159 11.6315 11.151 11.5319 11.2507C11.4323 11.3503 11.2971 11.4062 11.1562 11.4062Z" fill="white"/>
</svg>
