<svg width="25" height="24" viewBox="0 0 25 24" fill="none" xmlns="http://www.w3.org/2000/svg">
<g clip-path="url(#clip0_14455_12667)">
<path d="M16.999 0C15.7195 0.0885 14.224 0.9075 13.3525 1.974C12.5575 2.9415 11.9035 4.3785 12.1585 5.775C13.5565 5.8185 15.001 4.98 15.838 3.8955C16.621 2.886 17.2135 1.458 16.999 0Z" fill="black"/>
<path d="M22.0553 8.05196C20.8268 6.51146 19.1003 5.61747 17.4698 5.61747C15.3174 5.61747 14.4069 6.64796 12.9114 6.64796C11.3694 6.64796 10.1979 5.62047 8.3364 5.62047C6.50791 5.62047 4.56092 6.73796 3.32643 8.64895C1.59094 11.3399 1.88794 16.3994 4.70042 20.7089C5.70692 22.2509 7.05091 23.9849 8.8089 23.9999C10.3734 24.0149 10.8144 22.9964 12.9339 22.9859C15.0534 22.9739 15.4554 24.0134 17.0169 23.9969C18.7763 23.9834 20.1938 22.0619 21.2003 20.5199C21.9218 19.4144 22.1903 18.8579 22.7498 17.6099C18.6803 16.0604 18.0278 10.2734 22.0553 8.05196Z" fill="black"/>
</g>
<defs>
<clipPath id="clip0_14455_12667">
<rect width="24" height="24" fill="white" transform="translate(0.5)"/>
</clipPath>
</defs>
</svg>
