<svg width="24" height="26" viewBox="0 0 24 26" fill="none" xmlns="http://www.w3.org/2000/svg">
<path d="M3.11877 19.962L2.52051 19.5097H2.52051L3.11877 19.962ZM4.42712 16.2346L3.67712 16.2255V16.2346H4.42712ZM4.45458 13.981L5.20458 13.9901V13.981H4.45458ZM20.8882 19.9801L21.4954 19.5399L21.4954 19.5399L20.8882 19.9801ZM19.6291 16.2346L18.8791 16.225V16.2346H19.6291ZM19.6566 14.0927L20.4066 14.1023V14.0927H19.6566ZM16.35 21.0246C16.35 20.6104 16.0142 20.2746 15.6 20.2746C15.1858 20.2746 14.85 20.6104 14.85 21.0246H16.35ZM9.15 21.0246C9.15 20.6104 8.81421 20.2746 8.4 20.2746C7.98579 20.2746 7.65 20.6104 7.65 21.0246H9.15ZM2.30385 6.72493C2.14973 7.1094 2.33646 7.54602 2.72093 7.70015C3.1054 7.85428 3.54202 7.66755 3.69615 7.28308L2.30385 6.72493ZM6.52397 4.0598C6.88864 3.86336 7.02501 3.40849 6.82857 3.04382C6.63213 2.67915 6.17726 2.54278 5.81259 2.73922L6.52397 4.0598ZM18.1721 2.75277C17.8096 2.55247 17.3533 2.684 17.153 3.04656C16.9526 3.40912 17.0842 3.86542 17.4467 4.06572L18.1721 2.75277ZM20.3009 7.26582C20.4509 7.65191 20.8855 7.8433 21.2716 7.69328C21.6577 7.54327 21.8491 7.10867 21.6991 6.72258L20.3009 7.26582ZM3.71703 20.4144C4.44923 19.4459 5.17712 17.9993 5.17712 16.2346H3.67712C3.67712 17.5805 3.11983 18.717 2.52051 19.5097L3.71703 20.4144ZM5.17707 16.2438L5.20453 13.9901L3.70464 13.9719L3.67718 16.2255L5.17707 16.2438ZM21.4954 19.5399C20.9212 18.7479 20.3791 17.6003 20.3791 16.2346H18.8791C18.8791 18.001 19.5778 19.4504 20.281 20.4204L21.4954 19.5399ZM20.379 16.2442L20.4065 14.1023L18.9066 14.0831L18.8792 16.225L20.379 16.2442ZM20.4066 14.0927C20.4066 9.43307 16.6462 5.64961 12 5.64961V7.14961C15.811 7.14961 18.9066 10.2548 18.9066 14.0927H20.4066ZM20.43 21.7746C21.0584 21.7746 21.462 21.3314 21.6288 20.9376C21.7952 20.5449 21.8238 19.9929 21.4954 19.5399L20.281 20.4204C20.254 20.3831 20.2504 20.3527 20.2501 20.3463C20.2498 20.3416 20.2504 20.3459 20.2476 20.3525C20.2446 20.3597 20.2476 20.3465 20.2736 20.326C20.3045 20.3016 20.3606 20.2746 20.43 20.2746V21.7746ZM5.20458 13.981C5.20458 10.2048 8.25036 7.14961 12 7.14961V5.64961C7.41521 5.64961 3.70458 9.38308 3.70458 13.981H5.20458ZM3.57109 20.2746C3.6424 20.2746 3.69927 20.3028 3.7298 20.3273C3.7551 20.3477 3.75699 20.3598 3.75319 20.3506C3.7497 20.3421 3.75019 20.336 3.74992 20.3398C3.74955 20.3453 3.74576 20.3764 3.71703 20.4144L2.52051 19.5097C2.17771 19.9632 2.20283 20.5242 2.36575 20.9207C2.52889 21.3177 2.9325 21.7746 3.57109 21.7746V20.2746ZM20.43 20.2746H3.57109V21.7746H20.43V20.2746ZM14.85 21.0246C14.85 22.4295 13.6203 23.6496 12 23.6496V25.1496C14.3561 25.1496 16.35 23.3476 16.35 21.0246H14.85ZM12 23.6496C10.3797 23.6496 9.15 22.4295 9.15 21.0246H7.65C7.65 23.3476 9.64389 25.1496 12 25.1496V23.6496ZM13.65 3.99961C13.65 4.91088 12.9113 5.64961 12 5.64961V7.14961C13.7397 7.14961 15.15 5.73931 15.15 3.99961H13.65ZM12 5.64961C11.0887 5.64961 10.35 4.91088 10.35 3.99961H8.85C8.85 5.73931 10.2603 7.14961 12 7.14961V5.64961ZM10.35 3.99961C10.35 3.08834 11.0887 2.34961 12 2.34961V0.849609C10.2603 0.849609 8.85 2.25991 8.85 3.99961H10.35ZM12 2.34961C12.9113 2.34961 13.65 3.08834 13.65 3.99961H15.15C15.15 2.25991 13.7397 0.849609 12 0.849609V2.34961ZM3.69615 7.28308C4.25127 5.89833 5.24147 4.75067 6.52397 4.0598L5.81259 2.73922C4.20046 3.60765 2.9808 5.03631 2.30385 6.72493L3.69615 7.28308ZM17.4467 4.06572C18.7577 4.79 19.7755 5.91345 20.3009 7.26582L21.6991 6.72258C21.0373 5.01919 19.7676 3.63427 18.1721 2.75277L17.4467 4.06572Z" fill="#111111"/>
</svg>
