<svg width="20" height="26" viewBox="0 0 20 26" fill="none" xmlns="http://www.w3.org/2000/svg">
<path d="M1.11877 19.9625L0.520508 19.5102H0.520508L1.11877 19.9625ZM2.42712 16.2351L1.67712 16.226V16.2351H2.42712ZM2.45458 13.9815L3.20458 13.9906V13.9815H2.45458ZM18.8882 19.9806L19.4954 19.5404L19.4954 19.5404L18.8882 19.9806ZM17.6291 16.2351L16.8791 16.2255V16.2351H17.6291ZM17.6566 14.0932L18.4066 14.1028V14.0932H17.6566ZM1.71703 20.4148C2.44923 19.4464 3.17712 17.9998 3.17712 16.2351H1.67712C1.67712 17.581 1.11983 18.7175 0.520508 19.5102L1.71703 20.4148ZM3.17707 16.2443L3.20453 13.9906L1.70464 13.9724L1.67718 16.226L3.17707 16.2443ZM19.4954 19.5404C18.9212 18.7484 18.3791 17.6007 18.3791 16.2351H16.8791C16.8791 18.0014 17.5778 19.4509 18.281 20.4209L19.4954 19.5404ZM18.379 16.2447L18.4065 14.1028L16.9066 14.0836L16.8792 16.2255L18.379 16.2447ZM18.4066 14.0932C18.4066 9.43356 14.6462 5.6501 10 5.6501V7.1501C13.811 7.1501 16.9066 10.2553 16.9066 14.0932H18.4066ZM18.43 21.7751C19.0584 21.7751 19.462 21.3319 19.6288 20.9381C19.7952 20.5453 19.8238 19.9934 19.4954 19.5404L18.281 20.4208C18.254 20.3836 18.2504 20.3532 18.2501 20.3468C18.2498 20.3421 18.2504 20.3464 18.2476 20.3529C18.2446 20.3601 18.2476 20.347 18.2736 20.3265C18.3045 20.3021 18.3606 20.2751 18.43 20.2751V21.7751ZM3.20458 13.9815C3.20458 10.2053 6.25036 7.1501 10 7.1501V5.6501C5.41521 5.6501 1.70458 9.38356 1.70458 13.9815H3.20458ZM1.57109 20.2751C1.6424 20.2751 1.69927 20.3033 1.7298 20.3278C1.7551 20.3482 1.75699 20.3603 1.75319 20.3511C1.7497 20.3426 1.75019 20.3365 1.74992 20.3403C1.74955 20.3458 1.74576 20.3768 1.71703 20.4148L0.520508 19.5102C0.177708 19.9636 0.202827 20.5246 0.365746 20.9212C0.528894 21.3182 0.932498 21.7751 1.57109 21.7751V20.2751ZM18.43 20.2751H1.57109V21.7751H18.43V20.2751ZM12.85 21.0251C12.85 22.43 11.6203 23.6501 10 23.6501V25.1501C12.3561 25.1501 14.35 23.3481 14.35 21.0251H12.85ZM10 23.6501C8.37966 23.6501 7.15 22.43 7.15 21.0251H5.65C5.65 23.3481 7.64389 25.1501 10 25.1501V23.6501ZM11.65 4.0001C11.65 4.91137 10.9113 5.6501 10 5.6501V7.1501C11.7397 7.1501 13.15 5.7398 13.15 4.0001H11.65ZM10 5.6501C9.08873 5.6501 8.35 4.91137 8.35 4.0001H6.85C6.85 5.7398 8.2603 7.1501 10 7.1501V5.6501ZM8.35 4.0001C8.35 3.08883 9.08873 2.3501 10 2.3501V0.850098C8.2603 0.850098 6.85 2.2604 6.85 4.0001H8.35ZM10 2.3501C10.9113 2.3501 11.65 3.08883 11.65 4.0001H13.15C13.15 2.2604 11.7397 0.850098 10 0.850098V2.3501Z" fill="#111111"/>
</svg>
