<svg width="25" height="24" viewBox="0 0 25 24" fill="none" xmlns="http://www.w3.org/2000/svg">
<path d="M17.125 3.56V2C17.125 1.59 16.785 1.25 16.375 1.25C15.965 1.25 15.625 1.59 15.625 2V3.5H9.12499V2C9.12499 1.59 8.78499 1.25 8.37499 1.25C7.96499 1.25 7.62499 1.59 7.62499 2V3.56C4.92499 3.81 3.61499 5.42 3.41499 7.81C3.39499 8.1 3.63499 8.34 3.91499 8.34H20.835C21.125 8.34 21.365 8.09 21.335 7.81C21.135 5.42 19.825 3.81 17.125 3.56Z" fill="#DF1D32"/>
<path d="M20.375 9.84009H4.375C3.825 9.84009 3.375 10.2901 3.375 10.8401V17.0001C3.375 20.0001 4.875 22.0001 8.375 22.0001H16.375C19.875 22.0001 21.375 20.0001 21.375 17.0001V10.8401C21.375 10.2901 20.925 9.84009 20.375 9.84009ZM9.585 18.2101C9.485 18.3001 9.375 18.3701 9.255 18.4201C9.135 18.4701 9.005 18.5001 8.875 18.5001C8.745 18.5001 8.615 18.4701 8.495 18.4201C8.375 18.3701 8.265 18.3001 8.165 18.2101C7.985 18.0201 7.875 17.7601 7.875 17.5001C7.875 17.2401 7.985 16.9801 8.165 16.7901C8.265 16.7001 8.375 16.6301 8.495 16.5801C8.735 16.4801 9.015 16.4801 9.255 16.5801C9.375 16.6301 9.485 16.7001 9.585 16.7901C9.765 16.9801 9.875 17.2401 9.875 17.5001C9.875 17.7601 9.765 18.0201 9.585 18.2101ZM9.795 14.3801C9.745 14.5001 9.675 14.6101 9.585 14.7101C9.485 14.8001 9.375 14.8701 9.255 14.9201C9.135 14.9701 9.005 15.0001 8.875 15.0001C8.745 15.0001 8.615 14.9701 8.495 14.9201C8.375 14.8701 8.265 14.8001 8.165 14.7101C8.075 14.6101 8.005 14.5001 7.955 14.3801C7.905 14.2601 7.875 14.1301 7.875 14.0001C7.875 13.8701 7.905 13.7401 7.955 13.6201C8.005 13.5001 8.075 13.3901 8.165 13.2901C8.265 13.2001 8.375 13.1301 8.495 13.0801C8.735 12.9801 9.015 12.9801 9.255 13.0801C9.375 13.1301 9.485 13.2001 9.585 13.2901C9.675 13.3901 9.745 13.5001 9.795 13.6201C9.845 13.7401 9.875 13.8701 9.875 14.0001C9.875 14.1301 9.845 14.2601 9.795 14.3801ZM13.085 14.7101C12.985 14.8001 12.875 14.8701 12.755 14.9201C12.635 14.9701 12.505 15.0001 12.375 15.0001C12.245 15.0001 12.115 14.9701 11.995 14.9201C11.875 14.8701 11.765 14.8001 11.665 14.7101C11.485 14.5201 11.375 14.2601 11.375 14.0001C11.375 13.7401 11.485 13.4801 11.665 13.2901C11.765 13.2001 11.875 13.1301 11.995 13.0801C12.235 12.9701 12.515 12.9701 12.755 13.0801C12.875 13.1301 12.985 13.2001 13.085 13.2901C13.265 13.4801 13.375 13.7401 13.375 14.0001C13.375 14.2601 13.265 14.5201 13.085 14.7101Z" fill="#DF1D32"/>
</svg>
