<svg width="41" height="36" viewBox="0 0 41 36" fill="none" xmlns="http://www.w3.org/2000/svg">
<path d="M31.7382 25.1732L1.82375 20.9691C0.982817 20.8509 0.396957 20.0734 0.51516 19.2325L2.99485 1.5884C3.11305 0.747465 3.89055 0.161606 4.73141 0.279809L34.6459 4.48403C35.4868 4.60223 36.0727 5.37973 35.9545 6.22059L33.4748 23.8647C33.3566 24.7056 32.5791 25.2914 31.7382 25.1732Z" fill="url(#paint0_linear_14265_10704)"/>
<path d="M31.7382 25.1732L1.82375 20.9691C0.982817 20.8509 0.396957 20.0734 0.51516 19.2325L2.99485 1.5884C3.11305 0.747465 3.89055 0.161606 4.73141 0.279809L34.6459 4.48403C35.4868 4.60223 36.0727 5.37973 35.9545 6.22059L33.4748 23.8647C33.3566 24.7056 32.5791 25.2914 31.7382 25.1732Z" fill="url(#paint1_linear_14265_10704)"/>
<path d="M1.95875 8.96094L0.515159 19.2325C0.396956 20.0734 0.982893 20.8509 1.82375 20.9691L31.7382 25.1733C32.5791 25.2915 33.3566 24.7055 33.4748 23.8647L34.9184 13.5932L1.95875 8.96094Z" fill="url(#paint2_linear_14265_10704)"/>
<path d="M34.6459 4.48396L22.9838 2.84497L20.0762 23.5343L31.7383 25.1733C32.5792 25.2915 33.3566 24.7055 33.4748 23.8647L35.9545 6.22052C36.0727 5.37958 35.4868 4.60216 34.6459 4.48396Z" fill="url(#paint3_linear_14265_10704)"/>
<path d="M2.05005 8.31139L35.0097 12.9436L35.7343 7.78795L2.77466 3.15576L2.05005 8.31139Z" fill="url(#paint4_linear_14265_10704)"/>
<path d="M15.9949 12.581L4.98322 11.0334C4.86053 11.0156 4.7499 10.9498 4.67553 10.8506C4.60116 10.7514 4.5691 10.6268 4.58635 10.5041C4.60361 10.3813 4.66878 10.2703 4.76762 10.1955C4.86645 10.1206 4.99091 10.0879 5.11377 10.1046L16.1255 11.6522C16.1865 11.6607 16.2453 11.6812 16.2984 11.7124C16.3515 11.7437 16.3979 11.7851 16.4351 11.8343C16.4722 11.8835 16.4992 11.9395 16.5146 11.9992C16.5301 12.0588 16.5336 12.1209 16.525 12.182C16.5164 12.243 16.4959 12.3017 16.4646 12.3548C16.4333 12.4079 16.3919 12.4543 16.3426 12.4914C16.2934 12.5284 16.2373 12.5554 16.1777 12.5708C16.118 12.5862 16.0559 12.5896 15.9949 12.581Z" fill="url(#paint5_linear_14265_10704)"/>
<path d="M31.4398 14.7516L28.4771 14.3352C28.3544 14.3173 28.2438 14.2516 28.1694 14.1524C28.0951 14.0532 28.063 13.9286 28.0803 13.8058C28.0975 13.683 28.1627 13.5721 28.2615 13.4972C28.3603 13.4224 28.4848 13.3897 28.6077 13.4064L31.5704 13.8228C31.6931 13.8406 31.8037 13.9063 31.8781 14.0055C31.9525 14.1047 31.9845 14.2293 31.9673 14.3521C31.95 14.4749 31.8848 14.5859 31.786 14.6607C31.6872 14.7356 31.5627 14.7682 31.4398 14.7516Z" fill="url(#paint6_linear_14265_10704)"/>
<path d="M10.0899 15.1276L4.73467 14.3749C4.64522 14.3624 4.55912 14.3323 4.48129 14.2865C4.40347 14.2406 4.33543 14.1799 4.28107 14.1077C4.22671 14.0356 4.18709 13.9535 4.16448 13.866C4.14187 13.7786 4.1367 13.6875 4.14928 13.5981L4.28092 12.6614C4.29349 12.572 4.32355 12.4859 4.3694 12.4081C4.41525 12.3302 4.47597 12.2622 4.54811 12.2078C4.62025 12.1535 4.70239 12.1139 4.78984 12.0912C4.8773 12.0686 4.96834 12.0635 5.05779 12.076L10.413 12.8287C10.5025 12.8413 10.5886 12.8713 10.6664 12.9172C10.7442 12.963 10.8123 13.0237 10.8666 13.0959C10.921 13.168 10.9606 13.2502 10.9832 13.3376C11.0058 13.4251 11.011 13.5161 10.9984 13.6056L10.8668 14.5422C10.8413 14.7228 10.7452 14.886 10.5995 14.9958C10.4539 15.1055 10.2705 15.153 10.0899 15.1276Z" fill="url(#paint7_linear_14265_10704)"/>
<path d="M10.0899 15.1276L4.73467 14.3749C4.64522 14.3624 4.55912 14.3323 4.48129 14.2865C4.40347 14.2406 4.33543 14.1799 4.28107 14.1077C4.22671 14.0356 4.18709 13.9535 4.16448 13.866C4.14187 13.7786 4.1367 13.6875 4.14928 13.5981L4.28092 12.6614C4.29349 12.572 4.32355 12.4859 4.3694 12.4081C4.41525 12.3302 4.47597 12.2622 4.54811 12.2078C4.62025 12.1535 4.70239 12.1139 4.78984 12.0912C4.8773 12.0686 4.96834 12.0635 5.05779 12.076L10.413 12.8287C10.5025 12.8413 10.5886 12.8713 10.6664 12.9172C10.7442 12.963 10.8123 13.0237 10.8666 13.0959C10.921 13.168 10.9606 13.2502 10.9832 13.3376C11.0058 13.4251 11.011 13.5161 10.9984 13.6056L10.8668 14.5422C10.8413 14.7228 10.7452 14.886 10.5995 14.9958C10.4539 15.1055 10.2705 15.153 10.0899 15.1276Z" fill="url(#paint8_linear_14265_10704)"/>
<path d="M10.0899 15.1276L4.73467 14.3749C4.64522 14.3624 4.55912 14.3323 4.48129 14.2865C4.40347 14.2406 4.33543 14.1799 4.28107 14.1077C4.22671 14.0356 4.18709 13.9535 4.16448 13.866C4.14187 13.7786 4.1367 13.6875 4.14928 13.5981L4.28092 12.6614C4.29349 12.572 4.32355 12.4859 4.3694 12.4081C4.41525 12.3302 4.47597 12.2622 4.54811 12.2078C4.62025 12.1535 4.70239 12.1139 4.78984 12.0912C4.8773 12.0686 4.96834 12.0635 5.05779 12.076L10.413 12.8287C10.5025 12.8413 10.5886 12.8713 10.6664 12.9172C10.7442 12.963 10.8123 13.0237 10.8666 13.0959C10.921 13.168 10.9606 13.2502 10.9832 13.3376C11.0058 13.4251 11.011 13.5161 10.9984 13.6056L10.8668 14.5422C10.8413 14.7228 10.7452 14.886 10.5995 14.9958C10.4539 15.1055 10.2705 15.153 10.0899 15.1276Z" fill="url(#paint9_linear_14265_10704)"/>
<path d="M39.3601 27.8639L10.1809 35.6824C9.36069 35.9022 8.51756 35.4155 8.2978 34.5952L3.68631 17.3848C3.46655 16.5645 3.95327 15.7214 4.7735 15.5017L33.9526 7.68314C34.7729 7.46337 35.616 7.95009 35.8358 8.77033L40.4473 25.9808C40.6671 26.801 40.1803 27.6442 39.3601 27.8639Z" fill="url(#paint10_linear_14265_10704)"/>
<path d="M5.61328 24.5762L8.29789 34.5952C8.51766 35.4154 9.36078 35.9022 10.181 35.6824L39.3602 27.8639C40.1804 27.6441 40.6672 26.801 40.4473 25.9807L37.7627 15.9617L5.61328 24.5762Z" fill="url(#paint11_linear_14265_10704)"/>
<path d="M21.2388 27.248L10.4978 30.1261C10.3782 30.1567 10.2513 30.139 10.1447 30.0767C10.038 30.0143 9.96031 29.9125 9.92834 29.7932C9.89637 29.6739 9.91274 29.5468 9.9739 29.4395C10.0351 29.3322 10.1361 29.2534 10.255 29.2201L20.996 26.3421C21.1156 26.3114 21.2425 26.3292 21.3491 26.3915C21.4558 26.4538 21.5335 26.5557 21.5655 26.675C21.5974 26.7943 21.5811 26.9213 21.5199 27.0286C21.4588 27.1359 21.3577 27.2148 21.2388 27.248Z" fill="url(#paint12_linear_14265_10704)"/>
<path d="M33.9525 7.68314L22.5771 10.7312L27.9846 30.912L39.36 27.8639C40.1802 27.6442 40.667 26.801 40.4471 25.9808L35.8356 8.77032C35.6159 7.95017 34.7728 7.46337 33.9525 7.68314Z" fill="url(#paint13_linear_14265_10704)"/>
<path d="M14.3799 22.5234L9.88338 23.7283C9.06643 23.9472 8.22666 23.4623 8.00776 22.6454L7.32112 20.0827C7.10221 19.2658 7.58705 18.426 8.40401 18.2071L12.9005 17.0023C13.7174 16.7834 14.5572 17.2682 14.7761 18.0852L15.4628 20.6478C15.6816 21.4648 15.1968 22.3046 14.3799 22.5234Z" fill="url(#paint14_linear_14265_10704)"/>
<path d="M14.3799 22.5234L9.88338 23.7283C9.06643 23.9472 8.22666 23.4623 8.00776 22.6454L7.32112 20.0827C7.10221 19.2658 7.58705 18.426 8.40401 18.2071L12.9005 17.0023C13.7174 16.7834 14.5572 17.2682 14.7761 18.0852L15.4628 20.6478C15.6816 21.4648 15.1968 22.3046 14.3799 22.5234Z" fill="url(#paint15_linear_14265_10704)"/>
<path d="M9.88347 23.7282L14.38 22.5234C15.1969 22.3045 15.6817 21.4647 15.4628 20.6478L14.7762 18.0852C14.6643 17.6676 14.3898 17.3378 14.0395 17.1433L12.6338 19.5781C12.4569 19.8844 12.1656 20.108 11.8239 20.1996L10.9929 20.4222C10.8237 20.4675 10.6651 20.5457 10.5262 20.6524C10.3872 20.759 10.2706 20.8919 10.1831 21.0436L8.72144 23.5752C8.89549 23.676 9.08775 23.7414 9.28717 23.7677C9.4866 23.794 9.68925 23.7806 9.88347 23.7282Z" fill="url(#paint16_linear_14265_10704)"/>
<path d="M14.3799 22.5234L9.88342 23.7282C9.06646 23.9471 8.2267 23.4623 8.00779 22.6453L7.32115 20.0827C7.20927 19.6652 7.28209 19.2423 7.48826 18.8987L9.92302 20.3044C10.0747 20.392 10.2422 20.4488 10.4158 20.4717C10.5895 20.4946 10.7659 20.483 10.9351 20.4377L11.7661 20.215C11.9353 20.1697 12.1117 20.1581 12.2854 20.181C12.459 20.2039 12.6265 20.2607 12.7782 20.3483L15.3097 21.8099C15.2094 21.9842 15.0756 22.137 14.916 22.2594C14.7564 22.3819 14.5742 22.4716 14.3799 22.5234Z" fill="url(#paint17_linear_14265_10704)"/>
<path d="M12.9004 17.0023L9.77856 17.8388L11.2579 23.3598L14.3798 22.5234C15.1968 22.3045 15.6816 21.4647 15.4627 20.6477L14.7761 18.0851C14.5571 17.2682 13.7174 16.7834 12.9004 17.0023Z" fill="url(#paint18_linear_14265_10704)"/>
<path d="M19.2906 30.3335L11.1338 32.519C11.0149 32.5509 10.8883 32.5342 10.7816 32.4726C10.675 32.4111 10.5973 32.3097 10.5654 32.1908L10.3454 31.3697C10.3135 31.2507 10.3302 31.1241 10.3918 31.0175C10.4533 30.9109 10.5547 30.8331 10.6736 30.8012L18.8303 28.6157C18.9492 28.5838 19.0759 28.6005 19.1825 28.662C19.2891 28.7236 19.3669 28.825 19.3988 28.9439L19.6188 29.765C19.6345 29.8239 19.6386 29.8853 19.6306 29.9458C19.6227 30.0062 19.6029 30.0645 19.5724 30.1172C19.5419 30.17 19.5014 30.2163 19.453 30.2534C19.4046 30.2905 19.3494 30.3177 19.2906 30.3335Z" fill="url(#paint19_linear_14265_10704)"/>
<path d="M25.1175 28.7722L21.0391 29.865C20.9202 29.8969 20.7935 29.8802 20.6869 29.8186C20.5803 29.7571 20.5025 29.6557 20.4707 29.5368L20.2507 28.7156C20.2188 28.5967 20.2355 28.47 20.2971 28.3634C20.3586 28.2568 20.46 28.1791 20.5789 28.1472L24.6572 27.0544C24.7761 27.0225 24.9028 27.0392 25.0094 27.1008C25.116 27.1623 25.1938 27.2637 25.2257 27.3826L25.4457 28.2038C25.4615 28.2626 25.4655 28.324 25.4575 28.3845C25.4496 28.4449 25.4298 28.5032 25.3993 28.556C25.3688 28.6088 25.3283 28.655 25.2799 28.6921C25.2315 28.7292 25.1764 28.7564 25.1175 28.7722Z" fill="url(#paint20_linear_14265_10704)"/>
<path d="M31.063 27.1792L26.9847 28.272C26.8658 28.3038 26.7391 28.2872 26.6325 28.2256C26.5259 28.1641 26.4481 28.0627 26.4162 27.9438L26.1962 27.1226C26.1644 27.0037 26.1811 26.877 26.2426 26.7704C26.3042 26.6638 26.4055 26.586 26.5244 26.5542L30.6028 25.4614C30.7217 25.4295 30.8484 25.4462 30.955 25.5077C31.0616 25.5693 31.1394 25.6707 31.1712 25.7896L31.3912 26.6107C31.4231 26.7296 31.4064 26.8563 31.3449 26.9629C31.2833 27.0695 31.1819 27.1473 31.063 27.1792Z" fill="url(#paint21_linear_14265_10704)"/>
<path d="M34.7467 23.0382L32.2765 22.2153C31.6129 21.9942 30.9698 22.6 31.1509 23.2756L31.8932 26.0462C32.0742 26.7218 32.9341 26.9249 33.3982 26.4016L35.126 24.4539C35.5441 23.9825 35.3444 23.2373 34.7467 23.0382Z" fill="url(#paint22_linear_14265_10704)"/>
<path d="M33.1984 23.4529L34.9262 21.5051C35.3903 20.9818 36.2502 21.1849 36.4312 21.8605L37.1735 24.6311C37.3545 25.3068 36.7115 25.9125 36.0479 25.6915L33.5777 24.8686C32.98 24.6695 32.7803 23.9242 33.1984 23.4529Z" fill="url(#paint23_linear_14265_10704)"/>
<path d="M33.1984 23.4529L34.9262 21.5051C35.3903 20.9818 36.2502 21.1849 36.4312 21.8605L37.1735 24.6311C37.3545 25.3068 36.7115 25.9125 36.0479 25.6915L33.5777 24.8686C32.98 24.6695 32.7803 23.9242 33.1984 23.4529Z" fill="url(#paint24_linear_14265_10704)"/>
<path d="M27.8255 14.8442L26.471 15.2072C26.3521 15.239 26.2254 15.2224 26.1188 15.1608C26.0122 15.0993 25.9344 14.9979 25.9026 14.879L25.6826 14.0578C25.6507 13.9389 25.6674 13.8122 25.7289 13.7056C25.7905 13.599 25.8919 13.5212 26.0108 13.4894L27.3652 13.1264C27.4841 13.0946 27.6108 13.1112 27.7174 13.1728C27.824 13.2343 27.9018 13.3357 27.9337 13.4546L28.1537 14.2758C28.1855 14.3947 28.1688 14.5214 28.1073 14.628C28.0457 14.7346 27.9444 14.8124 27.8255 14.8442Z" fill="url(#paint25_linear_14265_10704)"/>
<path d="M33.6524 13.2829L29.574 14.3758C29.4551 14.4076 29.3284 14.3909 29.2218 14.3294C29.1152 14.2678 29.0374 14.1665 29.0056 14.0476L28.7856 13.2264C28.7537 13.1075 28.7704 12.9808 28.832 12.8742C28.8935 12.7676 28.9949 12.6898 29.1138 12.6579L33.1922 11.5651C33.3111 11.5333 33.4377 11.55 33.5443 11.6115C33.6509 11.6731 33.7287 11.7744 33.7606 11.8933L33.9806 12.7145C34.0124 12.8334 33.9958 12.9601 33.9342 13.0667C33.8727 13.1733 33.7713 13.2511 33.6524 13.2829Z" fill="url(#paint26_linear_14265_10704)"/>
<defs>
<linearGradient id="paint0_linear_14265_10704" x1="12.2789" y1="-0.727928" x2="22.3328" y2="21.9658" gradientUnits="userSpaceOnUse">
<stop stop-color="#5A5A5A"/>
<stop offset="1" stop-color="#444444"/>
</linearGradient>
<linearGradient id="paint1_linear_14265_10704" x1="16.3591" y1="7.66762" x2="18.3488" y2="13.0339" gradientUnits="userSpaceOnUse">
<stop stop-color="#433F43" stop-opacity="0"/>
<stop offset="1" stop-color="#1A1A1A"/>
</linearGradient>
<linearGradient id="paint2_linear_14265_10704" x1="17.2111" y1="20.0199" x2="16.8332" y2="22.7083" gradientUnits="userSpaceOnUse">
<stop stop-color="#433F43" stop-opacity="0"/>
<stop offset="1" stop-color="#1A1A1A"/>
</linearGradient>
<linearGradient id="paint3_linear_14265_10704" x1="30.3281" y1="14.4198" x2="34.3585" y2="14.9863" gradientUnits="userSpaceOnUse">
<stop stop-color="#433F43" stop-opacity="0"/>
<stop offset="1" stop-color="#1A1A1A"/>
</linearGradient>
<linearGradient id="paint4_linear_14265_10704" x1="13.639" y1="-23.8307" x2="21.7712" y2="25.4865" gradientUnits="userSpaceOnUse">
<stop stop-color="#433F43" stop-opacity="0"/>
<stop offset="1" stop-color="#1A1A1A"/>
</linearGradient>
<linearGradient id="paint5_linear_14265_10704" x1="9.05517" y1="2.23255" x2="11.3781" y2="16.3199" gradientUnits="userSpaceOnUse">
<stop stop-color="#433F43" stop-opacity="0"/>
<stop offset="1" stop-color="#1A1A1A"/>
</linearGradient>
<linearGradient id="paint6_linear_14265_10704" x1="29.3802" y1="10.1575" x2="30.3794" y2="16.2172" gradientUnits="userSpaceOnUse">
<stop stop-color="#433F43" stop-opacity="0"/>
<stop offset="1" stop-color="#1A1A1A"/>
</linearGradient>
<linearGradient id="paint7_linear_14265_10704" x1="7.55145" y1="12.0947" x2="7.604" y2="15.1871" gradientUnits="userSpaceOnUse">
<stop stop-color="#F5FBFF"/>
<stop offset="1" stop-color="#DBD5EF"/>
</linearGradient>
<linearGradient id="paint8_linear_14265_10704" x1="7.52618" y1="13.9602" x2="7.73438" y2="12.4788" gradientUnits="userSpaceOnUse">
<stop stop-color="#DBD5EF" stop-opacity="0"/>
<stop offset="0.285" stop-color="#D9D2EE" stop-opacity="0.285"/>
<stop offset="0.474" stop-color="#D4C9E9" stop-opacity="0.474"/>
<stop offset="0.635" stop-color="#CBBAE2" stop-opacity="0.635"/>
<stop offset="0.779" stop-color="#BFA5D7" stop-opacity="0.78"/>
<stop offset="0.913" stop-color="#AF8ACA" stop-opacity="0.913"/>
<stop offset="1" stop-color="#A274BF"/>
</linearGradient>
<linearGradient id="paint9_linear_14265_10704" x1="5.78079" y1="13.3458" x2="4.18066" y2="13.1209" gradientUnits="userSpaceOnUse">
<stop stop-color="#DBD5EF" stop-opacity="0"/>
<stop offset="0.285" stop-color="#D9D2EE" stop-opacity="0.285"/>
<stop offset="0.474" stop-color="#D4C9E9" stop-opacity="0.474"/>
<stop offset="0.635" stop-color="#CBBAE2" stop-opacity="0.635"/>
<stop offset="0.779" stop-color="#BFA5D7" stop-opacity="0.78"/>
<stop offset="0.913" stop-color="#AF8ACA" stop-opacity="0.913"/>
<stop offset="1" stop-color="#A274BF"/>
</linearGradient>
<linearGradient id="paint10_linear_14265_10704" x1="11.3352" y1="11.628" x2="29.4511" y2="28.5956" gradientUnits="userSpaceOnUse">
<stop stop-color="#5A5A5A"/>
<stop offset="1" stop-color="#444444"/>
</linearGradient>
<linearGradient id="paint11_linear_14265_10704" x1="23.9761" y1="28.8038" x2="24.6778" y2="31.4263" gradientUnits="userSpaceOnUse">
<stop stop-color="#433F43" stop-opacity="0"/>
<stop offset="1" stop-color="#1A1A1A"/>
</linearGradient>
<linearGradient id="paint12_linear_14265_10704" x1="10.8114" y1="20.4354" x2="18.4498" y2="32.4979" gradientUnits="userSpaceOnUse">
<stop stop-color="#433F43" stop-opacity="0"/>
<stop offset="1" stop-color="#1A1A1A"/>
</linearGradient>
<linearGradient id="paint13_linear_14265_10704" x1="33.8657" y1="18.5271" x2="37.7974" y2="17.4751" gradientUnits="userSpaceOnUse">
<stop stop-color="#433F43" stop-opacity="0"/>
<stop offset="1" stop-color="#1A1A1A"/>
</linearGradient>
<linearGradient id="paint14_linear_14265_10704" x1="9.82253" y1="18.231" x2="13.2483" y2="22.8696" gradientUnits="userSpaceOnUse">
<stop stop-color="#FEF0AE"/>
<stop offset="1" stop-color="#FAC600"/>
</linearGradient>
<linearGradient id="paint15_linear_14265_10704" x1="11.4961" y1="20.7346" x2="12.058" y2="22.8347" gradientUnits="userSpaceOnUse">
<stop stop-color="#FE9738" stop-opacity="0"/>
<stop offset="1" stop-color="#FE9738"/>
</linearGradient>
<linearGradient id="paint16_linear_14265_10704" x1="8.58197" y1="17.1267" x2="15.2437" y2="24.6444" gradientUnits="userSpaceOnUse">
<stop stop-color="#FE9738" stop-opacity="0"/>
<stop offset="1" stop-color="#FE9738"/>
</linearGradient>
<linearGradient id="paint17_linear_14265_10704" x1="12.1781" y1="16.1675" x2="10.1643" y2="26.0081" gradientUnits="userSpaceOnUse">
<stop stop-color="#FE9738" stop-opacity="0"/>
<stop offset="1" stop-color="#FE9738"/>
</linearGradient>
<linearGradient id="paint18_linear_14265_10704" x1="13.0272" y1="19.9255" x2="14.7746" y2="19.4579" gradientUnits="userSpaceOnUse">
<stop stop-color="#FE9738" stop-opacity="0"/>
<stop offset="1" stop-color="#FE9738"/>
</linearGradient>
<linearGradient id="paint19_linear_14265_10704" x1="14.9082" y1="30.2859" x2="15.1732" y2="31.276" gradientUnits="userSpaceOnUse">
<stop stop-color="#F5FBFF"/>
<stop offset="1" stop-color="#DBD5EF"/>
</linearGradient>
<linearGradient id="paint20_linear_14265_10704" x1="22.775" y1="28.1809" x2="23.04" y2="29.1711" gradientUnits="userSpaceOnUse">
<stop stop-color="#F5FBFF"/>
<stop offset="1" stop-color="#DBD5EF"/>
</linearGradient>
<linearGradient id="paint21_linear_14265_10704" x1="28.7211" y1="26.59" x2="28.986" y2="27.5802" gradientUnits="userSpaceOnUse">
<stop stop-color="#F5FBFF"/>
<stop offset="1" stop-color="#DBD5EF"/>
</linearGradient>
<linearGradient id="paint22_linear_14265_10704" x1="31.6951" y1="23.7441" x2="33.9482" y2="25.046" gradientUnits="userSpaceOnUse">
<stop stop-color="#B3DAFE"/>
<stop offset="1" stop-color="#0182FC"/>
</linearGradient>
<linearGradient id="paint23_linear_14265_10704" x1="34.3153" y1="22.831" x2="35.8959" y2="23.7443" gradientUnits="userSpaceOnUse">
<stop stop-color="#FFA1AE"/>
<stop offset="1" stop-color="#FF4565"/>
</linearGradient>
<linearGradient id="paint24_linear_14265_10704" x1="35.8703" y1="23.5017" x2="36.7088" y2="23.2773" gradientUnits="userSpaceOnUse">
<stop stop-color="#FE0364" stop-opacity="0"/>
<stop offset="0.234" stop-color="#F90362" stop-opacity="0.234"/>
<stop offset="0.517" stop-color="#EA035B" stop-opacity="0.517"/>
<stop offset="0.824" stop-color="#D20250" stop-opacity="0.824"/>
<stop offset="1" stop-color="#C00148"/>
</linearGradient>
<linearGradient id="paint25_linear_14265_10704" x1="26.8499" y1="13.8894" x2="27.1149" y2="14.8797" gradientUnits="userSpaceOnUse">
<stop stop-color="#F5FBFF"/>
<stop offset="1" stop-color="#DBD5EF"/>
</linearGradient>
<linearGradient id="paint26_linear_14265_10704" x1="31.3154" y1="12.6946" x2="31.5803" y2="13.6849" gradientUnits="userSpaceOnUse">
<stop stop-color="#F5FBFF"/>
<stop offset="1" stop-color="#DBD5EF"/>
</linearGradient>
</defs>
</svg>
