<svg width="18" height="18" viewBox="0 0 18 18" fill="none" xmlns="http://www.w3.org/2000/svg">
<path d="M9 5.625V9" stroke="white" stroke-width="1.1" stroke-linecap="round" stroke-linejoin="round"/>
<path d="M11.925 10.6875L9 9" stroke="white" stroke-width="1.1" stroke-linecap="round" stroke-linejoin="round"/>
<path d="M5.04834 7.01001H2.23584V4.19751" stroke="white" stroke-width="1.1" stroke-linecap="round" stroke-linejoin="round"/>
<path d="M4.62647 13.3734C5.4916 14.2393 6.5941 14.8291 7.79449 15.0682C8.99489 15.3074 10.2392 15.1852 11.3702 14.717C12.5011 14.2488 13.4677 13.4558 14.1478 12.4381C14.828 11.4205 15.191 10.224 15.191 9C15.191 7.77602 14.828 6.57953 14.1478 5.56189C13.4677 4.54425 12.5011 3.75118 11.3702 3.28302C10.2392 2.81485 8.99489 2.69261 7.79449 2.93176C6.5941 3.17092 5.4916 3.76072 4.62647 4.62657L2.23584 7.01016" stroke="white" stroke-width="1.1" stroke-linecap="round" stroke-linejoin="round"/>
</svg>
