<svg width="20" height="20" viewBox="0 0 20 20" fill="none" xmlns="http://www.w3.org/2000/svg">
<path d="M12.8024 12.5929C13.1298 12.7021 13.4838 12.5251 13.5929 12.1976C13.7021 11.8702 13.5251 11.5162 13.1976 11.4071L12.8024 12.5929ZM10 11H9.375C9.375 11.269 9.54714 11.5079 9.80236 11.5929L10 11ZM10.625 6.81855C10.625 6.47337 10.3452 6.19355 10 6.19355C9.65482 6.19355 9.375 6.47337 9.375 6.81855H10.625ZM13.1976 11.4071L10.1976 10.4071L9.80236 11.5929L12.8024 12.5929L13.1976 11.4071ZM10.625 11V6.81855H9.375V11H10.625ZM17.375 10C17.375 14.0731 14.0731 17.375 10 17.375V18.625C14.7635 18.625 18.625 14.7635 18.625 10H17.375ZM10 17.375C5.9269 17.375 2.625 14.0731 2.625 10H1.375C1.375 14.7635 5.23654 18.625 10 18.625V17.375ZM2.625 10C2.625 5.9269 5.9269 2.625 10 2.625V1.375C5.23654 1.375 1.375 5.23654 1.375 10H2.625ZM10 2.625C14.0731 2.625 17.375 5.9269 17.375 10H18.625C18.625 5.23654 14.7635 1.375 10 1.375V2.625Z" fill="#111111"/>
</svg>
