<svg width="60" height="60" viewBox="0 0 60 60" fill="none" xmlns="http://www.w3.org/2000/svg">
<g clip-path="url(#clip0_16096_17215)">
<path d="M46.3097 20.199V43.8144C46.3097 47.0089 43.7105 49.6081 40.516 49.6081H29.8415L23.1549 54.2721L14.9577 59.9908V49.6081H5.79369C2.59919 49.6081 0 47.0089 0 43.8144V20.199C0 17.0033 2.59919 14.4053 5.79369 14.4053H40.516C43.7105 14.4053 46.3097 17.0033 46.3097 20.199Z" fill="#7195FF"/>
<path d="M46.3098 20.199V43.8144C46.3098 47.0089 43.7106 49.6081 40.5161 49.6081H29.8416L23.1549 54.2721V14.4053H40.5161C43.7106 14.4053 46.3098 17.0033 46.3098 20.199Z" fill="#1371DC"/>
<path d="M58.6842 7.678L35.5438 30.8184L28.9189 31.091L29.1915 24.4661L52.332 1.3258C54.0861 -0.428365 56.9308 -0.429185 58.6851 1.32498C59.5618 2.20165 60.001 3.35183 60.0002 4.50108C60 5.65126 59.561 6.80133 58.6842 7.678Z" fill="#7BB2FF"/>
<path d="M8.06482 23.417H23.1549V26.9326H8.06482V23.417ZM8.06482 30.2408H23.1549V33.7563H8.06482V30.2408ZM8.06482 37.0645H38.1641V40.5801H8.06482V37.0645Z" fill="white"/>
<path d="M58.6842 7.67822L35.5438 30.8187L28.9189 31.0912L58.685 1.3252C59.5617 2.20187 60.0009 3.35205 60 4.5013C60 5.65148 59.561 6.80155 58.6842 7.67822Z" fill="#AFC9FF"/>
<path d="M37.0827 29.2801L35.5439 30.8189L28.9189 31.0916L29.1915 24.4665L30.7303 22.9277L37.0827 29.2801Z" fill="#514C7E"/>
<path d="M37.0827 29.2796L35.5439 30.8184L28.9189 31.0911L33.9064 26.1035L37.0827 29.2796Z" fill="#2D2F5C"/>
<path d="M23.1549 37.0645H38.1641V40.58H23.1549V37.0645Z" fill="white"/>
</g>
<defs>
<clipPath id="clip0_16096_17215">
<rect width="60" height="60" fill="white"/>
</clipPath>
</defs>
</svg>
