<svg width="36" height="28" viewBox="0 0 36 28" fill="none" xmlns="http://www.w3.org/2000/svg">
<path d="M16.506 5.15092L16.5084 5.14853C16.5027 5.13887 16.497 5.12923 16.4912 5.1196C16.4406 5.01502 16.38 4.91802 16.3094 4.82916C14.7836 2.49719 12.1486 0.956543 9.15381 0.956543C4.43458 0.956543 0.608887 4.78223 0.608887 9.50146C0.608887 12.5372 2.2198 15.1888 4.60547 16.7045C6.11582 17.7162 9.64792 16.1663 12.7458 13.0685C15.7001 10.1142 17.2465 6.76493 16.506 5.15092Z" fill="#F6BF3F"/>
<path d="M16.506 5.15092L16.5084 5.14853C16.5027 5.13887 16.497 5.12923 16.4912 5.1196C16.4406 5.01502 16.38 4.91802 16.3094 4.82916C14.7836 2.49719 12.1486 0.956543 9.15381 0.956543C4.43458 0.956543 0.608887 4.78223 0.608887 9.50146C0.608887 12.5372 2.2198 15.1888 4.60547 16.7045C6.11582 17.7162 9.64792 16.1663 12.7458 13.0685C15.7001 10.1142 17.2465 6.76493 16.506 5.15092Z" fill="url(#paint0_radial_14279_7455)"/>
<path d="M16.506 5.15092L16.5084 5.14853C16.5027 5.13887 16.497 5.12923 16.4912 5.1196C16.4406 5.01502 16.38 4.91802 16.3094 4.82916C14.7836 2.49719 12.1486 0.956543 9.15381 0.956543C4.43458 0.956543 0.608887 4.78223 0.608887 9.50146C0.608887 12.5372 2.2198 15.1888 4.60547 16.7045C6.11582 17.7162 9.64792 16.1663 12.7458 13.0685C15.7001 10.1142 17.2465 6.76493 16.506 5.15092Z" fill="url(#paint1_radial_14279_7455)"/>
<path d="M16.506 5.15092L16.5084 5.14853C16.5027 5.13887 16.497 5.12923 16.4912 5.1196C16.4406 5.01502 16.38 4.91802 16.3094 4.82916C14.7836 2.49719 12.1486 0.956543 9.15381 0.956543C4.43458 0.956543 0.608887 4.78223 0.608887 9.50146C0.608887 12.5372 2.2198 15.1888 4.60547 16.7045C6.11582 17.7162 9.64792 16.1663 12.7458 13.0685C15.7001 10.1142 17.2465 6.76493 16.506 5.15092Z" fill="url(#paint2_radial_14279_7455)"/>
<g filter="url(#filter0_i_14279_7455)">
<path d="M19.6415 5.15092L19.639 5.14853C19.6448 5.13887 19.6505 5.12923 19.6563 5.1196C19.7069 5.01502 19.7674 4.91802 19.8381 4.82916C21.3639 2.49719 23.9988 0.956543 26.9937 0.956543C31.7129 0.956543 35.5386 4.78223 35.5386 9.50146C35.5386 12.5372 33.9789 15.3223 31.5933 16.838C30.0829 17.8498 26.488 16.1664 23.3901 13.0685C20.4358 10.1142 18.9009 6.76493 19.6415 5.15092Z" fill="#F7CC36"/>
<path d="M19.6415 5.15092L19.639 5.14853C19.6448 5.13887 19.6505 5.12923 19.6563 5.1196C19.7069 5.01502 19.7674 4.91802 19.8381 4.82916C21.3639 2.49719 23.9988 0.956543 26.9937 0.956543C31.7129 0.956543 35.5386 4.78223 35.5386 9.50146C35.5386 12.5372 33.9789 15.3223 31.5933 16.838C30.0829 17.8498 26.488 16.1664 23.3901 13.0685C20.4358 10.1142 18.9009 6.76493 19.6415 5.15092Z" fill="url(#paint3_radial_14279_7455)"/>
<path d="M19.6415 5.15092L19.639 5.14853C19.6448 5.13887 19.6505 5.12923 19.6563 5.1196C19.7069 5.01502 19.7674 4.91802 19.8381 4.82916C21.3639 2.49719 23.9988 0.956543 26.9937 0.956543C31.7129 0.956543 35.5386 4.78223 35.5386 9.50146C35.5386 12.5372 33.9789 15.3223 31.5933 16.838C30.0829 17.8498 26.488 16.1664 23.3901 13.0685C20.4358 10.1142 18.9009 6.76493 19.6415 5.15092Z" fill="url(#paint4_radial_14279_7455)"/>
</g>
<g filter="url(#filter1_f_14279_7455)">
<ellipse cx="3.14883" cy="8.01019" rx="3.14883" ry="8.01019" transform="matrix(-0.707107 0.707107 0.707107 0.707107 22.5288 2.85364)" stroke="url(#paint5_linear_14279_7455)" stroke-width="0.5"/>
</g>
<ellipse cx="3.14883" cy="8.01019" rx="3.14883" ry="8.01019" transform="matrix(-0.707107 0.707107 0.707107 0.707107 22.5288 2.85364)" fill="url(#paint6_linear_14279_7455)"/>
<path fill-rule="evenodd" clip-rule="evenodd" d="M11.8405 18.2718C12.4833 18.0199 13.2085 18.3369 13.4603 18.9797C14.0012 20.3604 14.9689 23.8327 12.4694 26.9381C12.0366 27.4759 11.2497 27.561 10.7119 27.1282C10.1741 26.6953 10.089 25.9084 10.5219 25.3706C12.1473 23.3511 11.5813 21.037 11.1326 19.8916C10.8807 19.2488 11.1977 18.5236 11.8405 18.2718Z" fill="#FC28A2"/>
<path fill-rule="evenodd" clip-rule="evenodd" d="M11.8405 18.2718C12.4833 18.0199 13.2085 18.3369 13.4603 18.9797C14.0012 20.3604 14.9689 23.8327 12.4694 26.9381C12.0366 27.4759 11.2497 27.561 10.7119 27.1282C10.1741 26.6953 10.089 25.9084 10.5219 25.3706C12.1473 23.3511 11.5813 21.037 11.1326 19.8916C10.8807 19.2488 11.1977 18.5236 11.8405 18.2718Z" fill="url(#paint7_linear_14279_7455)"/>
<path fill-rule="evenodd" clip-rule="evenodd" d="M26.8024 7.87455C27.3733 8.11958 27.6376 8.78107 27.3925 9.35203C26.397 11.6717 24.9228 13.3912 23.4347 14.3464C23.4165 14.4196 23.3975 14.4912 23.3777 14.5609C23.1617 15.3227 22.8154 16.033 22.4745 16.4629C22.0884 16.9497 21.3808 17.0314 20.894 16.6453C20.449 16.2923 20.3426 15.6706 20.6226 15.1946C20.5104 15.1851 20.3988 15.1693 20.2881 15.1466C19.3357 14.9514 18.6315 14.2839 18.3454 13.3064C18.1087 12.4977 18.184 11.7098 18.5845 11.0644C18.973 10.4385 19.5917 10.07 20.2148 9.92825C21.3472 9.67071 22.7824 10.1315 23.3494 11.5108C24.0619 10.7757 24.7687 9.76076 25.3249 8.4647C25.5699 7.89374 26.2314 7.62952 26.8024 7.87455ZM20.4962 12.251C20.9193 11.7746 21.5003 12.3654 21.3596 12.8714C20.763 13.3064 20.138 12.7023 20.4962 12.251Z" fill="url(#paint8_linear_14279_7455)"/>
<path fill-rule="evenodd" clip-rule="evenodd" d="M26.8024 7.87455C27.3733 8.11958 27.6376 8.78107 27.3925 9.35203C26.397 11.6717 24.9228 13.3912 23.4347 14.3464C23.4165 14.4196 23.3975 14.4912 23.3777 14.5609C23.1617 15.3227 22.8154 16.033 22.4745 16.4629C22.0884 16.9497 21.3808 17.0314 20.894 16.6453C20.449 16.2923 20.3426 15.6706 20.6226 15.1946C20.5104 15.1851 20.3988 15.1693 20.2881 15.1466C19.3357 14.9514 18.6315 14.2839 18.3454 13.3064C18.1087 12.4977 18.184 11.7098 18.5845 11.0644C18.973 10.4385 19.5917 10.07 20.2148 9.92825C21.3472 9.67071 22.7824 10.1315 23.3494 11.5108C24.0619 10.7757 24.7687 9.76076 25.3249 8.4647C25.5699 7.89374 26.2314 7.62952 26.8024 7.87455ZM20.4962 12.251C20.9193 11.7746 21.5003 12.3654 21.3596 12.8714C20.763 13.3064 20.138 12.7023 20.4962 12.251Z" fill="url(#paint9_linear_14279_7455)"/>
<path fill-rule="evenodd" clip-rule="evenodd" d="M26.8024 7.87455C27.3733 8.11958 27.6376 8.78107 27.3925 9.35203C26.397 11.6717 24.9228 13.3912 23.4347 14.3464C23.4165 14.4196 23.3975 14.4912 23.3777 14.5609C23.1617 15.3227 22.8154 16.033 22.4745 16.4629C22.0884 16.9497 21.3808 17.0314 20.894 16.6453C20.449 16.2923 20.3426 15.6706 20.6226 15.1946C20.5104 15.1851 20.3988 15.1693 20.2881 15.1466C19.3357 14.9514 18.6315 14.2839 18.3454 13.3064C18.1087 12.4977 18.184 11.7098 18.5845 11.0644C18.973 10.4385 19.5917 10.07 20.2148 9.92825C21.3472 9.67071 22.7824 10.1315 23.3494 11.5108C24.0619 10.7757 24.7687 9.76076 25.3249 8.4647C25.5699 7.89374 26.2314 7.62952 26.8024 7.87455ZM20.4962 12.251C20.9193 11.7746 21.5003 12.3654 21.3596 12.8714C20.763 13.3064 20.138 12.7023 20.4962 12.251Z" fill="url(#paint10_radial_14279_7455)"/>
<path fill-rule="evenodd" clip-rule="evenodd" d="M26.8024 7.87455C27.3733 8.11958 27.6376 8.78107 27.3925 9.35203C26.397 11.6717 24.9228 13.3912 23.4347 14.3464C23.4165 14.4196 23.3975 14.4912 23.3777 14.5609C23.1617 15.3227 22.8154 16.033 22.4745 16.4629C22.0884 16.9497 21.3808 17.0314 20.894 16.6453C20.449 16.2923 20.3426 15.6706 20.6226 15.1946C20.5104 15.1851 20.3988 15.1693 20.2881 15.1466C19.3357 14.9514 18.6315 14.2839 18.3454 13.3064C18.1087 12.4977 18.184 11.7098 18.5845 11.0644C18.973 10.4385 19.5917 10.07 20.2148 9.92825C21.3472 9.67071 22.7824 10.1315 23.3494 11.5108C24.0619 10.7757 24.7687 9.76076 25.3249 8.4647C25.5699 7.89374 26.2314 7.62952 26.8024 7.87455ZM20.4962 12.251C20.9193 11.7746 21.5003 12.3654 21.3596 12.8714C20.763 13.3064 20.138 12.7023 20.4962 12.251Z" fill="url(#paint11_radial_14279_7455)"/>
<circle cx="18.1753" cy="25.881" r="1.13281" fill="url(#paint12_radial_14279_7455)"/>
<circle cx="21.9058" cy="20.8419" r="1.13281" fill="url(#paint13_radial_14279_7455)"/>
<circle cx="26.8276" cy="24.5919" r="1.13281" fill="url(#paint14_radial_14279_7455)"/>
<circle cx="13.1851" cy="15.865" r="1.02051" fill="url(#paint15_radial_14279_7455)"/>
<circle cx="9.41877" cy="23.3162" r="0.924144" fill="url(#paint16_radial_14279_7455)"/>
<circle cx="9.41877" cy="23.3162" r="0.924144" fill="url(#paint17_radial_14279_7455)"/>
<g filter="url(#filter2_f_14279_7455)">
<ellipse cx="10.3433" cy="10.7443" rx="3.14883" ry="8.01019" transform="rotate(45 10.3433 10.7443)" stroke="url(#paint18_linear_14279_7455)" stroke-width="0.3"/>
</g>
<ellipse cx="10.3433" cy="10.7443" rx="3.14883" ry="8.01019" transform="rotate(45 10.3433 10.7443)" fill="url(#paint19_linear_14279_7455)"/>
<g filter="url(#filter3_i_14279_7455)">
<path d="M6.08605 10.8987C6.59278 10.1897 7.1943 9.467 7.87729 8.76111C8.09503 9.20528 8.30695 9.69635 8.50134 10.2159C9.04086 11.6578 9.49702 13.4549 9.56132 15.3303C9.63564 17.498 8.91798 19.4613 8.02675 21.006C7.13793 22.5466 6.02963 23.7532 5.19205 24.4309C4.65536 24.8651 3.86827 24.782 3.43404 24.2453C2.99981 23.7087 3.08287 22.9216 3.61956 22.4873C4.21427 22.0062 5.12308 21.0362 5.86131 19.7567C6.59713 18.4813 7.11645 16.9811 7.06279 15.416C7.0099 13.8735 6.62947 12.347 6.15988 11.092C6.13537 11.0265 6.11074 10.962 6.08605 10.8987Z" fill="#24A4DC"/>
<path d="M6.08605 10.8987C6.59278 10.1897 7.1943 9.467 7.87729 8.76111C8.09503 9.20528 8.30695 9.69635 8.50134 10.2159C9.04086 11.6578 9.49702 13.4549 9.56132 15.3303C9.63564 17.498 8.91798 19.4613 8.02675 21.006C7.13793 22.5466 6.02963 23.7532 5.19205 24.4309C4.65536 24.8651 3.86827 24.782 3.43404 24.2453C2.99981 23.7087 3.08287 22.9216 3.61956 22.4873C4.21427 22.0062 5.12308 21.0362 5.86131 19.7567C6.59713 18.4813 7.11645 16.9811 7.06279 15.416C7.0099 13.8735 6.62947 12.347 6.15988 11.092C6.13537 11.0265 6.11074 10.962 6.08605 10.8987Z" fill="url(#paint20_linear_14279_7455)"/>
<path d="M6.08605 10.8987C6.59278 10.1897 7.1943 9.467 7.87729 8.76111C8.09503 9.20528 8.30695 9.69635 8.50134 10.2159C9.04086 11.6578 9.49702 13.4549 9.56132 15.3303C9.63564 17.498 8.91798 19.4613 8.02675 21.006C7.13793 22.5466 6.02963 23.7532 5.19205 24.4309C4.65536 24.8651 3.86827 24.782 3.43404 24.2453C2.99981 23.7087 3.08287 22.9216 3.61956 22.4873C4.21427 22.0062 5.12308 21.0362 5.86131 19.7567C6.59713 18.4813 7.11645 16.9811 7.06279 15.416C7.0099 13.8735 6.62947 12.347 6.15988 11.092C6.13537 11.0265 6.11074 10.962 6.08605 10.8987Z" fill="url(#paint21_radial_14279_7455)"/>
<path d="M6.08605 10.8987C6.59278 10.1897 7.1943 9.467 7.87729 8.76111C8.09503 9.20528 8.30695 9.69635 8.50134 10.2159C9.04086 11.6578 9.49702 13.4549 9.56132 15.3303C9.63564 17.498 8.91798 19.4613 8.02675 21.006C7.13793 22.5466 6.02963 23.7532 5.19205 24.4309C4.65536 24.8651 3.86827 24.782 3.43404 24.2453C2.99981 23.7087 3.08287 22.9216 3.61956 22.4873C4.21427 22.0062 5.12308 21.0362 5.86131 19.7567C6.59713 18.4813 7.11645 16.9811 7.06279 15.416C7.0099 13.8735 6.62947 12.347 6.15988 11.092C6.13537 11.0265 6.11074 10.962 6.08605 10.8987Z" fill="url(#paint22_radial_14279_7455)"/>
</g>
<path d="M8.10645 8.52777C8.10982 8.52439 8.1132 8.52101 8.11658 8.51763C8.75858 7.87562 9.41763 7.30055 10.0703 6.80261C10.2519 7.22643 10.509 7.77872 10.813 8.34685C11.2333 9.13248 11.7018 9.86916 12.1415 10.3466C12.4205 10.6496 12.6638 10.6906 13.4343 10.6832L13.5347 10.682C14.2646 10.6725 15.5004 10.6563 16.54 11.7161C17.5925 12.7504 17.5574 13.9401 17.5359 14.6684C17.5332 14.7615 17.5306 14.8472 17.5306 14.9239V17.5963C17.5306 17.7636 17.5977 17.9239 17.7169 18.0414L18.5057 18.8187C18.9974 19.3033 19.0032 20.0947 18.5186 20.5864C18.034 21.0781 17.2426 21.0839 16.7509 20.5993C15.8877 19.8333 15.0135 18.8821 15.0374 17.3535L15.0306 14.9239C15.0306 14.8058 15.0325 14.6915 15.0342 14.5907L15.0344 14.5805C15.0362 14.4734 15.0376 14.3824 15.0374 14.2953C15.0368 14.1205 15.029 14.0022 15.0135 13.9087C14.9907 13.7723 14.9512 13.6584 14.7836 13.4953L14.7712 13.4832L14.7592 13.4708C14.5029 13.2071 14.2808 13.1753 13.4581 13.1831L13.4228 13.1834C12.651 13.1911 11.3742 13.2037 10.3026 12.0403C9.64857 11.3302 9.06231 10.3741 8.60866 9.5263C8.42482 9.18272 8.25594 8.84391 8.10645 8.52777Z" fill="#FA3F99"/>
<path d="M8.10645 8.52777C8.10982 8.52439 8.1132 8.52101 8.11658 8.51763C8.75858 7.87562 9.41763 7.30055 10.0703 6.80261C10.2519 7.22643 10.509 7.77872 10.813 8.34685C11.2333 9.13248 11.7018 9.86916 12.1415 10.3466C12.4205 10.6496 12.6638 10.6906 13.4343 10.6832L13.5347 10.682C14.2646 10.6725 15.5004 10.6563 16.54 11.7161C17.5925 12.7504 17.5574 13.9401 17.5359 14.6684C17.5332 14.7615 17.5306 14.8472 17.5306 14.9239V17.5963C17.5306 17.7636 17.5977 17.9239 17.7169 18.0414L18.5057 18.8187C18.9974 19.3033 19.0032 20.0947 18.5186 20.5864C18.034 21.0781 17.2426 21.0839 16.7509 20.5993C15.8877 19.8333 15.0135 18.8821 15.0374 17.3535L15.0306 14.9239C15.0306 14.8058 15.0325 14.6915 15.0342 14.5907L15.0344 14.5805C15.0362 14.4734 15.0376 14.3824 15.0374 14.2953C15.0368 14.1205 15.029 14.0022 15.0135 13.9087C14.9907 13.7723 14.9512 13.6584 14.7836 13.4953L14.7712 13.4832L14.7592 13.4708C14.5029 13.2071 14.2808 13.1753 13.4581 13.1831L13.4228 13.1834C12.651 13.1911 11.3742 13.2037 10.3026 12.0403C9.64857 11.3302 9.06231 10.3741 8.60866 9.5263C8.42482 9.18272 8.25594 8.84391 8.10645 8.52777Z" fill="url(#paint23_radial_14279_7455)"/>
<path d="M8.10645 8.52777C8.10982 8.52439 8.1132 8.52101 8.11658 8.51763C8.75858 7.87562 9.41763 7.30055 10.0703 6.80261C10.2519 7.22643 10.509 7.77872 10.813 8.34685C11.2333 9.13248 11.7018 9.86916 12.1415 10.3466C12.4205 10.6496 12.6638 10.6906 13.4343 10.6832L13.5347 10.682C14.2646 10.6725 15.5004 10.6563 16.54 11.7161C17.5925 12.7504 17.5574 13.9401 17.5359 14.6684C17.5332 14.7615 17.5306 14.8472 17.5306 14.9239V17.5963C17.5306 17.7636 17.5977 17.9239 17.7169 18.0414L18.5057 18.8187C18.9974 19.3033 19.0032 20.0947 18.5186 20.5864C18.034 21.0781 17.2426 21.0839 16.7509 20.5993C15.8877 19.8333 15.0135 18.8821 15.0374 17.3535L15.0306 14.9239C15.0306 14.8058 15.0325 14.6915 15.0342 14.5907L15.0344 14.5805C15.0362 14.4734 15.0376 14.3824 15.0374 14.2953C15.0368 14.1205 15.029 14.0022 15.0135 13.9087C14.9907 13.7723 14.9512 13.6584 14.7836 13.4953L14.7712 13.4832L14.7592 13.4708C14.5029 13.2071 14.2808 13.1753 13.4581 13.1831L13.4228 13.1834C12.651 13.1911 11.3742 13.2037 10.3026 12.0403C9.64857 11.3302 9.06231 10.3741 8.60866 9.5263C8.42482 9.18272 8.25594 8.84391 8.10645 8.52777Z" fill="url(#paint24_radial_14279_7455)"/>
<path d="M8.10645 8.52777C8.10982 8.52439 8.1132 8.52101 8.11658 8.51763C8.75858 7.87562 9.41763 7.30055 10.0703 6.80261C10.2519 7.22643 10.509 7.77872 10.813 8.34685C11.2333 9.13248 11.7018 9.86916 12.1415 10.3466C12.4205 10.6496 12.6638 10.6906 13.4343 10.6832L13.5347 10.682C14.2646 10.6725 15.5004 10.6563 16.54 11.7161C17.5925 12.7504 17.5574 13.9401 17.5359 14.6684C17.5332 14.7615 17.5306 14.8472 17.5306 14.9239V17.5963C17.5306 17.7636 17.5977 17.9239 17.7169 18.0414L18.5057 18.8187C18.9974 19.3033 19.0032 20.0947 18.5186 20.5864C18.034 21.0781 17.2426 21.0839 16.7509 20.5993C15.8877 19.8333 15.0135 18.8821 15.0374 17.3535L15.0306 14.9239C15.0306 14.8058 15.0325 14.6915 15.0342 14.5907L15.0344 14.5805C15.0362 14.4734 15.0376 14.3824 15.0374 14.2953C15.0368 14.1205 15.029 14.0022 15.0135 13.9087C14.9907 13.7723 14.9512 13.6584 14.7836 13.4953L14.7712 13.4832L14.7592 13.4708C14.5029 13.2071 14.2808 13.1753 13.4581 13.1831L13.4228 13.1834C12.651 13.1911 11.3742 13.2037 10.3026 12.0403C9.64857 11.3302 9.06231 10.3741 8.60866 9.5263C8.42482 9.18272 8.25594 8.84391 8.10645 8.52777Z" fill="url(#paint25_radial_14279_7455)"/>
<g filter="url(#filter4_f_14279_7455)">
<path d="M16.5732 15.5306V17.7798C16.5732 18.1674 16.7233 18.54 16.992 18.8194L17.7055 19.5615" stroke="#FF5CAC" stroke-width="0.4" stroke-linecap="round"/>
</g>
<g filter="url(#filter5_i_14279_7455)">
<path d="M29.9545 10.5308C30.5557 11.3417 31.0488 12.1001 31.388 12.839C30.8409 13.7251 30.3411 14.8299 30.0992 15.9714C29.6935 17.8857 29.9666 20.0094 31.8603 21.9964C32.3366 22.4962 32.3176 23.2874 31.8178 23.7637C31.3181 24.24 30.5268 24.2209 30.0506 23.7212C27.5068 21.052 27.1028 18.0519 27.6535 15.4532C28.0664 13.5046 29.01 11.7824 29.9545 10.5308Z" fill="#2BBAFE"/>
<path d="M29.9545 10.5308C30.5557 11.3417 31.0488 12.1001 31.388 12.839C30.8409 13.7251 30.3411 14.8299 30.0992 15.9714C29.6935 17.8857 29.9666 20.0094 31.8603 21.9964C32.3366 22.4962 32.3176 23.2874 31.8178 23.7637C31.3181 24.24 30.5268 24.2209 30.0506 23.7212C27.5068 21.052 27.1028 18.0519 27.6535 15.4532C28.0664 13.5046 29.01 11.7824 29.9545 10.5308Z" fill="url(#paint26_linear_14279_7455)"/>
</g>
<path d="M29.9545 10.5308C30.5557 11.3417 31.0488 12.1001 31.388 12.839C30.8409 13.7251 30.3411 14.8299 30.0992 15.9714C29.6935 17.8857 29.9666 20.0094 31.8603 21.9964C32.3366 22.4962 32.3176 23.2874 31.8178 23.7637C31.3181 24.24 30.5268 24.2209 30.0506 23.7212C27.5068 21.052 27.1028 18.0519 27.6535 15.4532C28.0664 13.5046 29.01 11.7824 29.9545 10.5308Z" fill="url(#paint27_radial_14279_7455)"/>
<g filter="url(#filter6_f_14279_7455)">
<path d="M30.0113 14.0841C29.1454 15.5164 28.1988 19.2482 31.3394 22.7169" stroke="url(#paint28_linear_14279_7455)" stroke-width="0.6" stroke-linecap="round"/>
</g>
<path d="M23.5559 14.267C23.5156 14.294 23.4753 14.3204 23.4349 14.3463C23.4168 14.4195 23.3977 14.4911 23.3779 14.5609C23.1619 15.3226 22.8157 16.033 22.4747 16.4628C22.0887 16.9496 21.381 17.0313 20.8942 16.6452C20.4492 16.2923 20.3428 15.6706 20.6228 15.1945C20.6109 15.1935 20.5989 15.1925 20.587 15.1913C21.221 15.1686 22.6694 14.8214 23.4634 14.3185C23.4951 14.2984 23.5259 14.2813 23.5559 14.267Z" fill="#2A82D3"/>
<path d="M23.5559 14.267C23.5156 14.294 23.4753 14.3204 23.4349 14.3463C23.4168 14.4195 23.3977 14.4911 23.3779 14.5609C23.1619 15.3226 22.8157 16.033 22.4747 16.4628C22.0887 16.9496 21.381 17.0313 20.8942 16.6452C20.4492 16.2923 20.3428 15.6706 20.6228 15.1945C20.6109 15.1935 20.5989 15.1925 20.587 15.1913C21.221 15.1686 22.6694 14.8214 23.4634 14.3185C23.4951 14.2984 23.5259 14.2813 23.5559 14.267Z" fill="url(#paint29_radial_14279_7455)"/>
<path d="M23.5559 14.267C23.5156 14.294 23.4753 14.3204 23.4349 14.3463C23.4168 14.4195 23.3977 14.4911 23.3779 14.5609C23.1619 15.3226 22.8157 16.033 22.4747 16.4628C22.0887 16.9496 21.381 17.0313 20.8942 16.6452C20.4492 16.2923 20.3428 15.6706 20.6228 15.1945C20.6109 15.1935 20.5989 15.1925 20.587 15.1913C21.221 15.1686 22.6694 14.8214 23.4634 14.3185C23.4951 14.2984 23.5259 14.2813 23.5559 14.267Z" fill="url(#paint30_radial_14279_7455)"/>
<path d="M23.3494 11.5107C22.7824 10.1314 21.3472 9.67058 20.2148 9.92812C19.5917 10.0698 18.973 10.4384 18.5845 11.0643C18.302 11.5194 18.1813 12.0454 18.2177 12.5997H20.3961C20.3785 12.4863 20.4066 12.3638 20.4962 12.2509C20.9193 11.7745 21.5003 12.3653 21.3596 12.8713C21.8036 12.6705 22.8284 12.0479 23.3494 11.5107Z" fill="url(#paint31_radial_14279_7455)"/>
<g filter="url(#filter7_f_14279_7455)">
<path d="M21.7874 14.046C21.2291 14.1524 20.1493 14.1094 19.6388 13.046C18.9953 11.7055 20.7505 10.2176 22.2127 11.6267" stroke="url(#paint32_linear_14279_7455)" stroke-width="0.5" stroke-linecap="round"/>
</g>
<g filter="url(#filter8_f_14279_7455)">
<path d="M26.8276 9.00598C26.4631 9.86536 25.2729 12.4279 23.1167 13.7716" stroke="url(#paint33_linear_14279_7455)" stroke-width="0.5" stroke-linecap="round"/>
</g>
<defs>
<filter id="filter0_i_14279_7455" x="19.207" y="0.956543" width="16.3315" height="16.1754" filterUnits="userSpaceOnUse" color-interpolation-filters="sRGB">
<feFlood flood-opacity="0" result="BackgroundImageFix"/>
<feBlend mode="normal" in="SourceGraphic" in2="BackgroundImageFix" result="shape"/>
<feColorMatrix in="SourceAlpha" type="matrix" values="0 0 0 0 0 0 0 0 0 0 0 0 0 0 0 0 0 0 127 0" result="hardAlpha"/>
<feOffset dx="-0.25"/>
<feGaussianBlur stdDeviation="0.375"/>
<feComposite in2="hardAlpha" operator="arithmetic" k2="-1" k3="1"/>
<feColorMatrix type="matrix" values="0 0 0 0 0.945098 0 0 0 0 0.698039 0 0 0 0 0.380392 0 0 0 1 0"/>
<feBlend mode="normal" in2="shape" result="effect1_innerShadow_14279_7455"/>
</filter>
<filter id="filter1_f_14279_7455" x="19.4289" y="4.20662" width="13.0748" height="13.0753" filterUnits="userSpaceOnUse" color-interpolation-filters="sRGB">
<feFlood flood-opacity="0" result="BackgroundImageFix"/>
<feBlend mode="normal" in="SourceGraphic" in2="BackgroundImageFix" result="shape"/>
<feGaussianBlur stdDeviation="0.1" result="effect1_foregroundBlur_14279_7455"/>
</filter>
<filter id="filter2_f_14279_7455" x="4.00547" y="4.40671" width="12.6756" height="12.6751" filterUnits="userSpaceOnUse" color-interpolation-filters="sRGB">
<feFlood flood-opacity="0" result="BackgroundImageFix"/>
<feBlend mode="normal" in="SourceGraphic" in2="BackgroundImageFix" result="shape"/>
<feGaussianBlur stdDeviation="0.05" result="effect1_foregroundBlur_14279_7455"/>
</filter>
<filter id="filter3_i_14279_7455" x="3.15576" y="8.76111" width="6.56064" height="15.948" filterUnits="userSpaceOnUse" color-interpolation-filters="sRGB">
<feFlood flood-opacity="0" result="BackgroundImageFix"/>
<feBlend mode="normal" in="SourceGraphic" in2="BackgroundImageFix" result="shape"/>
<feColorMatrix in="SourceAlpha" type="matrix" values="0 0 0 0 0 0 0 0 0 0 0 0 0 0 0 0 0 0 127 0" result="hardAlpha"/>
<feOffset dx="0.15"/>
<feGaussianBlur stdDeviation="0.25"/>
<feComposite in2="hardAlpha" operator="arithmetic" k2="-1" k3="1"/>
<feColorMatrix type="matrix" values="0 0 0 0 0.054902 0 0 0 0 0.462745 0 0 0 0 0.701961 0 0 0 1 0"/>
<feBlend mode="normal" in2="shape" result="effect1_innerShadow_14279_7455"/>
</filter>
<filter id="filter4_f_14279_7455" x="15.773" y="14.7307" width="2.73223" height="5.63079" filterUnits="userSpaceOnUse" color-interpolation-filters="sRGB">
<feFlood flood-opacity="0" result="BackgroundImageFix"/>
<feBlend mode="normal" in="SourceGraphic" in2="BackgroundImageFix" result="shape"/>
<feGaussianBlur stdDeviation="0.3" result="effect1_foregroundBlur_14279_7455"/>
</filter>
<filter id="filter5_i_14279_7455" x="27.438" y="10.5308" width="5.06758" height="13.878" filterUnits="userSpaceOnUse" color-interpolation-filters="sRGB">
<feFlood flood-opacity="0" result="BackgroundImageFix"/>
<feBlend mode="normal" in="SourceGraphic" in2="BackgroundImageFix" result="shape"/>
<feColorMatrix in="SourceAlpha" type="matrix" values="0 0 0 0 0 0 0 0 0 0 0 0 0 0 0 0 0 0 127 0" result="hardAlpha"/>
<feOffset dx="0.3" dy="0.3"/>
<feGaussianBlur stdDeviation="0.425"/>
<feComposite in2="hardAlpha" operator="arithmetic" k2="-1" k3="1"/>
<feColorMatrix type="matrix" values="0 0 0 0 0.0705882 0 0 0 0 0.329412 0 0 0 0 0.6 0 0 0 1 0"/>
<feBlend mode="normal" in2="shape" result="effect1_innerShadow_14279_7455"/>
</filter>
<filter id="filter6_f_14279_7455" x="28.2196" y="13.1341" width="4.07002" height="10.5329" filterUnits="userSpaceOnUse" color-interpolation-filters="sRGB">
<feFlood flood-opacity="0" result="BackgroundImageFix"/>
<feBlend mode="normal" in="SourceGraphic" in2="BackgroundImageFix" result="shape"/>
<feGaussianBlur stdDeviation="0.325" result="effect1_foregroundBlur_14279_7455"/>
</filter>
<filter id="filter7_f_14279_7455" x="18.5015" y="10.0573" width="4.71143" height="5.02722" filterUnits="userSpaceOnUse" color-interpolation-filters="sRGB">
<feFlood flood-opacity="0" result="BackgroundImageFix"/>
<feBlend mode="normal" in="SourceGraphic" in2="BackgroundImageFix" result="shape"/>
<feGaussianBlur stdDeviation="0.375" result="effect1_foregroundBlur_14279_7455"/>
</filter>
<filter id="filter8_f_14279_7455" x="22.1167" y="8.00586" width="5.71094" height="6.76575" filterUnits="userSpaceOnUse" color-interpolation-filters="sRGB">
<feFlood flood-opacity="0" result="BackgroundImageFix"/>
<feBlend mode="normal" in="SourceGraphic" in2="BackgroundImageFix" result="shape"/>
<feGaussianBlur stdDeviation="0.375" result="effect1_foregroundBlur_14279_7455"/>
</filter>
<radialGradient id="paint0_radial_14279_7455" cx="0" cy="0" r="1" gradientUnits="userSpaceOnUse" gradientTransform="translate(13.859 6.38882) rotate(-132.541) scale(9.01286 6.54108)">
<stop stop-color="#FFE94C"/>
<stop offset="1" stop-color="#FFE94C" stop-opacity="0"/>
</radialGradient>
<radialGradient id="paint1_radial_14279_7455" cx="0" cy="0" r="1" gradientUnits="userSpaceOnUse" gradientTransform="translate(5.34342 0.956542) rotate(61.1177) scale(16.8215 16.9809)">
<stop offset="0.683811" stop-color="#B9706D" stop-opacity="0"/>
<stop offset="1" stop-color="#B9706D"/>
</radialGradient>
<radialGradient id="paint2_radial_14279_7455" cx="0" cy="0" r="1" gradientUnits="userSpaceOnUse" gradientTransform="translate(12.0622 9.51382) rotate(176.876) scale(11.4703 11.4881)">
<stop offset="0.838992" stop-color="#F3C893" stop-opacity="0"/>
<stop offset="1" stop-color="#F3C893"/>
</radialGradient>
<radialGradient id="paint3_radial_14279_7455" cx="0" cy="0" r="1" gradientUnits="userSpaceOnUse" gradientTransform="translate(29.8895 10.3705) rotate(-47.8156) scale(9.35912 7.80375)">
<stop stop-color="#FFE76D"/>
<stop offset="1" stop-color="#FFE76D" stop-opacity="0"/>
</radialGradient>
<radialGradient id="paint4_radial_14279_7455" cx="0" cy="0" r="1" gradientUnits="userSpaceOnUse" gradientTransform="translate(20.2871 3.57399) rotate(27.7904) scale(3.78846 3.79434)">
<stop stop-color="#D6BE6F"/>
<stop offset="1" stop-color="#D6BE6F" stop-opacity="0"/>
</radialGradient>
<linearGradient id="paint5_linear_14279_7455" x1="-1.11532" y1="6.38228" x2="7.20551" y2="7.63827" gradientUnits="userSpaceOnUse">
<stop stop-color="#ECB43E"/>
<stop offset="1" stop-color="#925960"/>
</linearGradient>
<linearGradient id="paint6_linear_14279_7455" x1="0.229144" y1="2.56061" x2="3.14883" y2="16.0204" gradientUnits="userSpaceOnUse">
<stop stop-color="#572943"/>
<stop offset="1" stop-color="#4D2C30"/>
</linearGradient>
<linearGradient id="paint7_linear_14279_7455" x1="12.9995" y1="17.17" x2="14.7183" y2="23.6544" gradientUnits="userSpaceOnUse">
<stop stop-color="#C9136C"/>
<stop offset="1" stop-color="#C9136C" stop-opacity="0"/>
</linearGradient>
<linearGradient id="paint8_linear_14279_7455" x1="25.7337" y1="9.59196" x2="19.4837" y2="16.8889" gradientUnits="userSpaceOnUse">
<stop offset="0.252724" stop-color="#1DA2CD"/>
<stop offset="1" stop-color="#255EB1"/>
</linearGradient>
<linearGradient id="paint9_linear_14279_7455" x1="27.765" y1="8.6154" x2="26.4759" y2="9.70915" gradientUnits="userSpaceOnUse">
<stop stop-color="#0D8CBA"/>
<stop offset="1" stop-color="#0D8CBA" stop-opacity="0"/>
</linearGradient>
<radialGradient id="paint10_radial_14279_7455" cx="0" cy="0" r="1" gradientUnits="userSpaceOnUse" gradientTransform="translate(23.5462 9.04509) rotate(119.705) scale(7.01572 4.54563)">
<stop offset="0.835044" stop-color="#3165CF" stop-opacity="0"/>
<stop offset="1" stop-color="#3165CF"/>
</radialGradient>
<radialGradient id="paint11_radial_14279_7455" cx="0" cy="0" r="1" gradientUnits="userSpaceOnUse" gradientTransform="translate(25.4744 13.0195) rotate(-168.317) scale(8.00883 7.83585)">
<stop offset="0.807628" stop-color="#2471AD" stop-opacity="0"/>
<stop offset="0.950123" stop-color="#2471AD"/>
</radialGradient>
<radialGradient id="paint12_radial_14279_7455" cx="0" cy="0" r="1" gradientUnits="userSpaceOnUse" gradientTransform="translate(18.8589 25.5685) rotate(130.855) scale(1.91087)">
<stop stop-color="#43C7F4"/>
<stop offset="1" stop-color="#2D64CF"/>
</radialGradient>
<radialGradient id="paint13_radial_14279_7455" cx="0" cy="0" r="1" gradientUnits="userSpaceOnUse" gradientTransform="translate(22.3255 20.4281) rotate(140.042) scale(1.6034)">
<stop stop-color="#FF48A3"/>
<stop offset="1" stop-color="#DB1D93"/>
</radialGradient>
<radialGradient id="paint14_radial_14279_7455" cx="0" cy="0" r="1" gradientUnits="userSpaceOnUse" gradientTransform="translate(27.521 24.2892) rotate(144.498) scale(1.79934)">
<stop stop-color="#F7C851"/>
<stop offset="1" stop-color="#D97654"/>
</radialGradient>
<radialGradient id="paint15_radial_14279_7455" cx="0" cy="0" r="1" gradientUnits="userSpaceOnUse" gradientTransform="translate(13.3608 16.2521) rotate(-96.8428) scale(1.47535)">
<stop stop-color="#D48D3B"/>
<stop offset="1" stop-color="#B46518"/>
</radialGradient>
<radialGradient id="paint16_radial_14279_7455" cx="0" cy="0" r="1" gradientUnits="userSpaceOnUse" gradientTransform="translate(9.81558 23.1857) rotate(138.621) scale(1.09323)">
<stop stop-color="#F8AC4B"/>
<stop offset="1" stop-color="#E5A437"/>
</radialGradient>
<radialGradient id="paint17_radial_14279_7455" cx="0" cy="0" r="1" gradientUnits="userSpaceOnUse" gradientTransform="translate(9.16129 23.4689) rotate(-25.7553) scale(1.23607)">
<stop offset="0.756841" stop-color="#EB9530" stop-opacity="0"/>
<stop offset="1" stop-color="#EB9530"/>
</radialGradient>
<linearGradient id="paint18_linear_14279_7455" x1="6.07911" y1="9.11635" x2="14.3999" y2="10.3723" gradientUnits="userSpaceOnUse">
<stop stop-color="#EABE3F"/>
<stop offset="1" stop-color="#976061"/>
</linearGradient>
<linearGradient id="paint19_linear_14279_7455" x1="10.3433" y1="2.73407" x2="10.3433" y2="18.7545" gradientUnits="userSpaceOnUse">
<stop stop-color="#5E2B40"/>
<stop offset="1" stop-color="#6E4546"/>
</linearGradient>
<linearGradient id="paint20_linear_14279_7455" x1="3.53247" y1="25.0351" x2="5.78737" y2="22.9582" gradientUnits="userSpaceOnUse">
<stop stop-color="#3067D9"/>
<stop offset="1" stop-color="#3067D9" stop-opacity="0"/>
</linearGradient>
<radialGradient id="paint21_radial_14279_7455" cx="0" cy="0" r="1" gradientUnits="userSpaceOnUse" gradientTransform="translate(3.51067 14.6737) rotate(-5.85601) scale(6.62623 14.1765)">
<stop offset="0.655172" stop-color="#47CEFA" stop-opacity="0"/>
<stop offset="1" stop-color="#47CEFA"/>
</radialGradient>
<radialGradient id="paint22_radial_14279_7455" cx="0" cy="0" r="1" gradientUnits="userSpaceOnUse" gradientTransform="translate(5.69836 11.1497) rotate(16.4404) scale(1.88701 3.99897)">
<stop stop-color="#1569A5"/>
<stop offset="1" stop-color="#1569A5" stop-opacity="0"/>
</radialGradient>
<radialGradient id="paint23_radial_14279_7455" cx="0" cy="0" r="1" gradientUnits="userSpaceOnUse" gradientTransform="translate(8.10645 7.95112) rotate(63.9414) scale(8.38776 2.11386)">
<stop stop-color="#A80963"/>
<stop offset="1" stop-color="#A80963" stop-opacity="0"/>
</radialGradient>
<radialGradient id="paint24_radial_14279_7455" cx="0" cy="0" r="1" gradientUnits="userSpaceOnUse" gradientTransform="translate(18.3395 11.3186) rotate(92.7817) scale(7.96134 3.31814)">
<stop offset="0.198253" stop-color="#A80963"/>
<stop offset="1" stop-color="#A80963" stop-opacity="0"/>
</radialGradient>
<radialGradient id="paint25_radial_14279_7455" cx="0" cy="0" r="1" gradientUnits="userSpaceOnUse" gradientTransform="translate(13.7199 17.7498) rotate(-83.9041) scale(4.69145 2.03113)">
<stop stop-color="#A80963"/>
<stop offset="1" stop-color="#A80963" stop-opacity="0"/>
</radialGradient>
<linearGradient id="paint26_linear_14279_7455" x1="31.5931" y1="11.1544" x2="29.8217" y2="13.7326" gradientUnits="userSpaceOnUse">
<stop stop-color="#184E8C"/>
<stop offset="1" stop-color="#184E8C" stop-opacity="0"/>
</linearGradient>
<radialGradient id="paint27_radial_14279_7455" cx="0" cy="0" r="1" gradientUnits="userSpaceOnUse" gradientTransform="translate(32.2055 20.7247) rotate(164.748) scale(1.93034 6.34506)">
<stop stop-color="#4BDCFF"/>
<stop offset="1" stop-color="#4BDCFF" stop-opacity="0"/>
</radialGradient>
<linearGradient id="paint28_linear_14279_7455" x1="31.3394" y1="22.7169" x2="30.2544" y2="14.0841" gradientUnits="userSpaceOnUse">
<stop stop-color="#4BDAFF"/>
<stop offset="1" stop-color="#4BDAFF" stop-opacity="0"/>
</linearGradient>
<radialGradient id="paint29_radial_14279_7455" cx="0" cy="0" r="1" gradientUnits="userSpaceOnUse" gradientTransform="translate(21.8863 14.5528) rotate(76.1713) scale(1.30743 4.28859)">
<stop offset="0.306182" stop-color="#1E58A8"/>
<stop offset="1" stop-color="#1E58A8" stop-opacity="0"/>
</radialGradient>
<radialGradient id="paint30_radial_14279_7455" cx="0" cy="0" r="1" gradientUnits="userSpaceOnUse" gradientTransform="translate(23.4097 15.0997) rotate(163.015) scale(3.07561 4.3272)">
<stop offset="0.590262" stop-color="#1E58A8" stop-opacity="0"/>
<stop offset="1" stop-color="#1E58A8"/>
</radialGradient>
<radialGradient id="paint31_radial_14279_7455" cx="0" cy="0" r="1" gradientUnits="userSpaceOnUse" gradientTransform="translate(22.0032 13.1758) rotate(-92.6291) scale(1.91608 1.57512)">
<stop offset="0.186923" stop-color="#3258A2"/>
<stop offset="1" stop-color="#3258A2" stop-opacity="0"/>
</radialGradient>
<linearGradient id="paint32_linear_14279_7455" x1="20.5378" y1="10.6696" x2="20.7804" y2="14.0841" gradientUnits="userSpaceOnUse">
<stop stop-color="#46B4E2"/>
<stop offset="1" stop-color="#46B4E2" stop-opacity="0"/>
</linearGradient>
<linearGradient id="paint33_linear_14279_7455" x1="26.5933" y1="9.00598" x2="23.6683" y2="14.5553" gradientUnits="userSpaceOnUse">
<stop stop-color="#46B4E2"/>
<stop offset="1" stop-color="#46B4E2" stop-opacity="0"/>
</linearGradient>
</defs>
</svg>
