<svg width="24" height="22" viewBox="0 0 24 22" fill="none" xmlns="http://www.w3.org/2000/svg">
<path d="M7.62856 15.1012H4.5551C2.60745 15.1012 1.02856 13.7728 1.02856 11.8252C1.02856 9.87755 2.60745 8.29867 4.5551 8.29867C4.68754 8.29867 4.81828 8.30597 4.94693 8.32019V8.29867H4.99544C4.96342 8.04194 4.94693 7.78039 4.94693 7.51499C4.94693 4.05251 7.75383 1.24561 11.2163 1.24561C13.561 1.24561 15.6051 2.53274 16.6805 4.43898C16.9433 4.40032 17.2122 4.3803 17.4857 4.3803C20.5154 4.3803 22.9714 6.83634 22.9714 9.86601C22.9714 12.6296 20.9278 14.6653 18.2694 15.0456H15.4286M11.6082 8.6905V20.7543M11.6082 20.7543L8.82856 18.0456M11.6082 20.7543L14.3143 18.0456" stroke="#111111" stroke-width="1.5" stroke-linecap="round" stroke-linejoin="round"/>
</svg>
