<svg width="16" height="17" viewBox="0 0 16 17" fill="none" xmlns="http://www.w3.org/2000/svg">
<path d="M8 16.5C12.4183 16.5 16 12.9183 16 8.5C16 4.08172 12.4183 0.5 8 0.5C3.58172 0.5 0 4.08172 0 8.5C0 12.9183 3.58172 16.5 8 16.5Z" fill="#F0F0F0"/>
<path d="M1.65355 3.62923C1.02514 4.44683 0.551297 5.38917 0.275391 6.41289H4.4372L1.65355 3.62923ZM15.7242 6.41289C15.4483 5.3892 14.9744 4.44686 14.346 3.62927L11.5625 6.41289H15.7242ZM0.275391 10.5868C0.551328 11.6105 1.02517 12.5528 1.65355 13.3704L4.43711 10.5868H0.275391ZM12.8704 2.15358C12.0528 1.52517 11.1105 1.05133 10.0867 0.775391V4.93717L12.8704 2.15358ZM3.12923 14.846C3.94683 15.4744 4.88917 15.9483 5.91286 16.2242V12.0625L3.12923 14.846ZM5.91283 0.775391C4.88914 1.05133 3.9468 1.52517 3.12923 2.15355L5.91283 4.93714V0.775391ZM10.0868 16.2242C11.1105 15.9483 12.0528 15.4744 12.8704 14.846L10.0868 12.0625V16.2242ZM11.5625 10.5868L14.346 13.3704C14.9744 12.5529 15.4483 11.6105 15.7242 10.5868H11.5625Z" fill="#0052B4"/>
<path d="M15.9323 7.45653H9.0435V0.567719C8.69749 0.522638 8.34893 0.500017 8 0.5C7.64628 0.5 7.29809 0.52325 6.95653 0.567719V7.4565H0.0677188C0.0226377 7.80251 1.73815e-05 8.15107 0 8.5C0 8.85372 0.02325 9.20191 0.0677188 9.54347H6.9565V16.4323C7.64923 16.5226 8.35074 16.5226 9.04347 16.4323V9.5435H15.9323C15.9774 9.19749 16 8.84893 16 8.5C16 8.14634 15.9768 7.79809 15.9323 7.45653Z" fill="#D80027"/>
<path d="M10.0871 10.5871L13.657 14.157C13.8211 13.9927 13.978 13.8213 14.1272 13.6434L11.0709 10.5871H10.0871V10.5871ZM5.91317 10.5871H5.91311L2.34327 14.157C2.50757 14.3211 2.67893 14.478 2.85686 14.6272L5.91317 11.5708V10.5871ZM5.91317 6.4132V6.41314L2.3433 2.84323C2.17918 3.00754 2.02229 3.1789 1.87305 3.35683L4.92939 6.41317H5.91317V6.4132ZM10.0871 6.4132L13.657 2.84327C13.4927 2.67916 13.3214 2.52227 13.1434 2.37305L10.0871 5.42939V6.4132Z" fill="#D80027"/>
</svg>
