<svg width="31" height="30" viewBox="0 0 31 30" fill="none" xmlns="http://www.w3.org/2000/svg">
<path d="M26.1875 15.9375C26.1875 21.9727 17.4688 24.0469 16.0625 24.3399C15.9386 24.3633 15.8114 24.3633 15.6875 24.3399C14.2813 24.0469 5.56251 21.9727 5.56251 15.9375V9.0938C5.56153 8.90084 5.62087 8.7124 5.73223 8.55482C5.84358 8.39724 6.0014 8.27839 6.18361 8.21489L15.5586 4.80473C15.7636 4.7342 15.9864 4.7342 16.1914 4.80473L25.5664 8.21489C25.7486 8.27839 25.9064 8.39724 26.0178 8.55482C26.1292 8.7124 26.1885 8.90084 26.1875 9.0938V15.9375Z" stroke="#DF1D32" stroke-width="1.5" stroke-linecap="round" stroke-linejoin="round"/>
<path d="M11.1875 13.125H20.5625" stroke="#DF1D32" stroke-width="1.5" stroke-linecap="round" stroke-linejoin="round"/>
<path d="M11.1875 16.875H20.5625" stroke="#DF1D32" stroke-width="1.5" stroke-linecap="round" stroke-linejoin="round"/>
<path d="M25.8835 17.8125H27.1257C27.4955 17.8141 27.8619 17.7424 28.2039 17.6016C28.5458 17.4608 28.8565 17.2537 29.1179 16.9922C29.3794 16.7307 29.5865 16.4201 29.7273 16.0782C29.8681 15.7362 29.9398 15.3698 29.9382 15V12.1875C29.9398 11.8177 29.8681 11.4513 29.7273 11.1094C29.5865 10.7675 29.3794 10.4568 29.1179 10.1953C28.8565 9.93386 28.5458 9.72675 28.2039 9.58596C27.8619 9.44516 27.4955 9.37347 27.1257 9.37502H26.1882" stroke="#DF1D32" stroke-width="1.5" stroke-linecap="round" stroke-linejoin="round"/>
<path d="M5.86721 17.8125H4.62502C4.25525 17.8141 3.88882 17.7424 3.5469 17.6016C3.20497 17.4608 2.8943 17.2537 2.63283 16.9922C2.37136 16.7307 2.16425 16.4201 2.02346 16.0782C1.88266 15.7362 1.81097 15.3698 1.81252 15V12.1875C1.81097 11.8177 1.88266 11.4513 2.02346 11.1094C2.16425 10.7675 2.37136 10.4568 2.63283 10.1953C2.8943 9.93386 3.20497 9.72675 3.5469 9.58596C3.88882 9.44516 4.25525 9.37347 4.62502 9.37502H5.56253" stroke="#DF1D32" stroke-width="1.5" stroke-linecap="round" stroke-linejoin="round"/>
</svg>
