<svg width="24" height="24" viewBox="0 0 24 24" fill="none" xmlns="http://www.w3.org/2000/svg">
<path d="M15.0001 2.40039V6.00039C15.0001 6.66313 15.5373 7.20039 16.2001 7.20039H19.8001M8.40008 7.20039H10.8001M8.40008 10.8004H15.6001M8.40008 14.4004H15.6001M18.0001 4.20039C17.466 3.72253 16.9118 3.15577 16.5619 2.78767C16.3291 2.54273 16.0074 2.40039 15.6695 2.40039H6.5998C5.27432 2.40039 4.19981 3.4749 4.1998 4.80038L4.19971 19.2003C4.1997 20.5258 5.27421 21.6003 6.5997 21.6003L17.3997 21.6004C18.7252 21.6004 19.7997 20.5259 19.7998 19.2004L19.8001 6.47822C19.8001 6.17138 19.683 5.87643 19.4701 5.65552C19.0763 5.24704 18.4187 4.57491 18.0001 4.20039Z" stroke="#111111" stroke-width="1.5" stroke-linecap="round" stroke-linejoin="round"/>
</svg>
