<svg width="31" height="30" viewBox="0 0 31 30" fill="none" xmlns="http://www.w3.org/2000/svg">
<path d="M11.875 18.75H5.3125C5.06386 18.75 4.8254 18.6512 4.64959 18.4754C4.47377 18.2996 4.375 18.0611 4.375 17.8125V12.1875C4.375 11.9389 4.47377 11.7004 4.64959 11.5246C4.8254 11.3488 5.06386 11.25 5.3125 11.25H11.875V4.6875C11.875 4.43886 11.9738 4.2004 12.1496 4.02459C12.3254 3.84877 12.5639 3.75 12.8125 3.75H18.4375C18.6861 3.75 18.9246 3.84877 19.1004 4.02459C19.2762 4.2004 19.375 4.43886 19.375 4.6875V11.25H25.9375C26.1861 11.25 26.4246 11.3488 26.6004 11.5246C26.7762 11.7004 26.875 11.9389 26.875 12.1875V17.8125C26.875 18.0611 26.7762 18.2996 26.6004 18.4754C26.4246 18.6512 26.1861 18.75 25.9375 18.75H19.375V25.3125C19.375 25.5611 19.2762 25.7996 19.1004 25.9754C18.9246 26.1512 18.6861 26.25 18.4375 26.25H12.8125C12.5639 26.25 12.3254 26.1512 12.1496 25.9754C11.9738 25.7996 11.875 25.5611 11.875 25.3125V18.75Z" stroke="#DF1D32" stroke-width="1.5" stroke-linecap="round" stroke-linejoin="round"/>
</svg>
