<svg width="16" height="17" viewBox="0 0 16 17" fill="none" xmlns="http://www.w3.org/2000/svg">
<g clip-path="url(#clip0_14455_21167)">
<path d="M8 16.5C12.4183 16.5 16 12.9183 16 8.5C16 4.08172 12.4183 0.5 8 0.5C3.58172 0.5 0 4.08172 0 8.5C0 12.9183 3.58172 16.5 8 16.5Z" fill="#F0F0F0"/>
<path d="M16.0001 8.50045C16.0001 5.06073 13.8291 2.12839 10.7827 0.998047V16.0029C13.8291 14.8725 16.0001 11.9402 16.0001 8.50045Z" fill="#D80027"/>
<path d="M0 8.50045C0 11.9402 2.17103 14.8725 5.21741 16.0029V0.998047C2.17103 2.12839 0 5.06073 0 8.50045Z" fill="#0052B4"/>
</g>
<defs>
<clipPath id="clip0_14455_21167">
<rect width="16" height="16" fill="white" transform="translate(0 0.5)"/>
</clipPath>
</defs>
</svg>
