<svg width="25" height="24" viewBox="0 0 25 24" fill="none" xmlns="http://www.w3.org/2000/svg">
<path d="M12.125 16.5C14.6103 16.5 16.625 14.4853 16.625 12C16.625 9.51472 14.6103 7.5 12.125 7.5C9.63972 7.5 7.625 9.51472 7.625 12C7.625 14.4853 9.63972 16.5 12.125 16.5Z" stroke="#A7A7A7" stroke-width="1.5" stroke-linecap="round" stroke-linejoin="round"/>
<path d="M18.6316 7.56572C18.8573 7.88885 19.0549 8.23073 19.2223 8.5876L21.6504 9.9376C21.9536 11.2955 21.9568 12.7033 21.6598 14.0626L19.2223 15.4126C19.0549 15.7695 18.8573 16.1113 18.6316 16.4345L18.6785 19.2188C17.6495 20.1566 16.4315 20.863 15.1066 21.2907L12.716 19.8563C12.3228 19.8845 11.928 19.8845 11.5348 19.8563L9.15352 21.2813C7.82443 20.8614 6.60248 20.1577 5.57227 19.2188L5.61914 16.4438C5.39533 16.1162 5.19784 15.7714 5.02852 15.4126L2.60039 14.0626C2.2972 12.7047 2.29401 11.2969 2.59102 9.9376L5.02852 8.5876C5.19585 8.23073 5.39344 7.88885 5.61914 7.56572L5.57227 4.78135C6.60132 3.84363 7.81925 3.13716 9.14414 2.70947L11.5348 4.14385C11.928 4.11572 12.3228 4.11572 12.716 4.14385L15.0973 2.71885C16.4264 3.13875 17.6483 3.84249 18.6785 4.78135L18.6316 7.56572Z" stroke="#A7A7A7" stroke-width="1.5" stroke-linecap="round" stroke-linejoin="round"/>
</svg>
