<svg width="16" height="16" viewBox="0 0 16 16" fill="none" xmlns="http://www.w3.org/2000/svg">
<path d="M14.0938 8.49996H12.0938C11.8285 8.49996 11.5742 8.60532 11.3866 8.79286C11.1991 8.98039 11.0938 9.23475 11.0938 9.49996V12C11.0938 12.2652 11.1991 12.5195 11.3866 12.7071C11.5742 12.8946 11.8285 13 12.0938 13H13.0938C13.359 13 13.6133 12.8946 13.8009 12.7071C13.9884 12.5195 14.0938 12.2652 14.0938 12V8.49996ZM14.0938 8.49996C14.0938 7.70781 13.9369 6.92349 13.6323 6.19226C13.3276 5.46102 12.8812 4.79736 12.3188 4.23955C11.7563 3.68174 11.0889 3.24083 10.3552 2.94226C9.62147 2.64368 8.83588 2.49336 8.04375 2.49996C7.25214 2.49419 6.46722 2.64513 5.73421 2.94407C5.0012 3.24301 4.33459 3.68405 3.7728 4.24178C3.21101 4.79951 2.76513 5.46289 2.46087 6.19371C2.15661 6.92453 1.99998 7.70834 2 8.49996V12C2 12.2652 2.10536 12.5195 2.29289 12.7071C2.48043 12.8946 2.73478 13 3 13H4C4.26522 13 4.51957 12.8946 4.70711 12.7071C4.89464 12.5195 5 12.2652 5 12V9.49996C5 9.23475 4.89464 8.98039 4.70711 8.79286C4.51957 8.60532 4.26522 8.49996 4 8.49996H2" stroke="#646464" stroke-linecap="round" stroke-linejoin="round"/>
</svg>
