<svg width="31" height="30" viewBox="0 0 31 30" fill="none" xmlns="http://www.w3.org/2000/svg">
<path d="M3.875 15H8.5625L10.4375 12.1875L14.1875 17.8125L16.0625 15H18.875" stroke="#DF1D32" stroke-width="1.5" stroke-linecap="round" stroke-linejoin="round"/>
<path d="M3.41797 11.25C3.40625 11.0977 3.40625 10.9336 3.40625 10.7813C3.40625 9.37253 3.89433 8.00732 4.78745 6.91789C5.68056 5.82846 6.92355 5.08212 8.30492 4.80585C9.68629 4.52957 11.1207 4.74043 12.3641 5.40255C13.6076 6.06467 14.5832 7.13715 15.125 8.43751V8.43751C15.6668 7.13715 16.6424 6.06467 17.8859 5.40255C19.1293 4.74043 20.5637 4.52957 21.9451 4.80585C23.3265 5.08212 24.5694 5.82846 25.4626 6.91789C26.3557 8.00732 26.8438 9.37253 26.8438 10.7813C26.8438 18.75 15.125 25.3125 15.125 25.3125C15.125 25.3125 10.4492 22.6875 7.00391 18.75" stroke="#DF1D32" stroke-width="1.5" stroke-linecap="round" stroke-linejoin="round"/>
</svg>
