<svg width="24" height="24" viewBox="0 0 24 24" fill="none" xmlns="http://www.w3.org/2000/svg">
<path d="M12.5345 19.8653L20.1283 12.2715C21.9939 10.3965 22.2658 7.33089 20.5033 5.37152C20.0612 4.87774 19.5232 4.47928 18.922 4.20047C18.3208 3.92166 17.669 3.76836 17.0066 3.74993C16.3441 3.73151 15.6848 3.84834 15.0691 4.0933C14.4533 4.33826 13.8939 4.7062 13.4251 5.17464L12.0001 6.60902L10.772 5.37152C8.897 3.50589 5.83138 3.23402 3.872 4.99652C3.37823 5.43853 2.97977 5.97659 2.70096 6.5778C2.42215 7.17901 2.26885 7.83075 2.25042 8.49321C2.23199 9.15567 2.34883 9.81493 2.59379 10.4307C2.83875 11.0465 3.20669 11.6059 3.67513 12.0746L11.4658 19.8653C11.6079 20.0061 11.8 20.0851 12.0001 20.0851C12.2003 20.0851 12.3923 20.0061 12.5345 19.8653V19.8653Z" stroke="#111111" stroke-width="1.5" stroke-linecap="round" stroke-linejoin="round"/>
</svg>
