<svg width="25" height="24" viewBox="0 0 25 24" fill="none" xmlns="http://www.w3.org/2000/svg">
<path d="M20.7404 6.82018L14.9804 2.79018C13.4104 1.69018 11.0004 1.75018 9.49043 2.92018L4.48043 6.83018C3.48043 7.61018 2.69043 9.21018 2.69043 10.4702V17.3702C2.69043 19.9202 4.76043 22.0002 7.31043 22.0002H18.0904C20.6404 22.0002 22.7104 19.9302 22.7104 17.3802V10.6002C22.7104 9.25018 21.8404 7.59018 20.7404 6.82018ZM13.4504 18.0002C13.4504 18.4102 13.1104 18.7502 12.7004 18.7502C12.2904 18.7502 11.9504 18.4102 11.9504 18.0002V15.0002C11.9504 14.5902 12.2904 14.2502 12.7004 14.2502C13.1104 14.2502 13.4504 14.5902 13.4504 15.0002V18.0002Z" fill="#DF1D32"/>
</svg>
