<svg width="34" height="34" viewBox="0 0 34 34" fill="none" xmlns="http://www.w3.org/2000/svg">
<g clip-path="url(#clip0_14914_5575)">
<path d="M32.8667 32.3V14.7333C32.8667 14.4328 32.7473 14.1445 32.5347 13.932C32.3222 13.7194 32.0339 13.6 31.7333 13.6H24.3667V32.3H32.8667Z" fill="#D3E0E5"/>
<path d="M27.7667 20.4H30.0333C30.3463 20.4 30.6 20.1463 30.6 19.8333V17.5667C30.6 17.2537 30.3463 17 30.0333 17H27.7667C27.4537 17 27.2 17.2537 27.2 17.5667V19.8333C27.2 20.1463 27.4537 20.4 27.7667 20.4Z" fill="#BE1729"/>
<path d="M27.7667 27.2H30.0333C30.3463 27.2 30.6 26.9463 30.6 26.6333V24.3667C30.6 24.0537 30.3463 23.8 30.0333 23.8H27.7667C27.4537 23.8 27.2 24.0537 27.2 24.3667V26.6333C27.2 26.9463 27.4537 27.2 27.7667 27.2Z" fill="#BE1729"/>
<path d="M1.13336 32.3V14.7333C1.13336 14.4328 1.25277 14.1445 1.46531 13.932C1.67785 13.7194 1.96612 13.6 2.2667 13.6H9.63336V32.3H1.13336Z" fill="#D3E0E5"/>
<path d="M24.9333 32.3V8.5C24.9333 7.87667 24.4233 7.36667 23.8 7.36667H10.2C9.57668 7.36667 9.06668 7.87667 9.06668 8.5V32.3H24.9333Z" fill="#E1EBF0"/>
<path d="M17 10.7667C19.8167 10.7667 22.1 8.48333 22.1 5.66668C22.1 2.85003 19.8167 0.566681 17 0.566681C14.1834 0.566681 11.9 2.85003 11.9 5.66668C11.9 8.48333 14.1834 10.7667 17 10.7667Z" fill="#DF1D32"/>
<path d="M14.7334 13.0334H12.4667C12.1537 13.0334 11.9 13.2871 11.9 13.6V15.8667C11.9 16.1797 12.1537 16.4334 12.4667 16.4334H14.7334C15.0463 16.4334 15.3 16.1797 15.3 15.8667V13.6C15.3 13.2871 15.0463 13.0334 14.7334 13.0334Z" fill="#BE1729"/>
<path d="M6.23336 17H3.96669C3.65373 17 3.40002 17.2537 3.40002 17.5667V19.8333C3.40002 20.1463 3.65373 20.4 3.96669 20.4H6.23336C6.54632 20.4 6.80002 20.1463 6.80002 19.8333V17.5667C6.80002 17.2537 6.54632 17 6.23336 17Z" fill="#BE1729"/>
<path d="M6.23336 23.8H3.96669C3.65373 23.8 3.40002 24.0537 3.40002 24.3667V26.6334C3.40002 26.9463 3.65373 27.2 3.96669 27.2H6.23336C6.54632 27.2 6.80002 26.9463 6.80002 26.6334V24.3667C6.80002 24.0537 6.54632 23.8 6.23336 23.8Z" fill="#BE1729"/>
<path d="M21.5333 13.0334H19.2667C18.9537 13.0334 18.7 13.2871 18.7 13.6V15.8667C18.7 16.1797 18.9537 16.4334 19.2667 16.4334H21.5333C21.8463 16.4334 22.1 16.1797 22.1 15.8667V13.6C22.1 13.2871 21.8463 13.0334 21.5333 13.0334Z" fill="#BE1729"/>
<path d="M14.7334 18.7H12.4667C12.1537 18.7 11.9 18.9537 11.9 19.2667V21.5334C11.9 21.8463 12.1537 22.1 12.4667 22.1H14.7334C15.0463 22.1 15.3 21.8463 15.3 21.5334V19.2667C15.3 18.9537 15.0463 18.7 14.7334 18.7Z" fill="#BE1729"/>
<path d="M21.5333 18.7H19.2667C18.9537 18.7 18.7 18.9537 18.7 19.2667V21.5334C18.7 21.8463 18.9537 22.1 19.2667 22.1H21.5333C21.8463 22.1 22.1 21.8463 22.1 21.5334V19.2667C22.1 18.9537 21.8463 18.7 21.5333 18.7Z" fill="#BE1729"/>
<path d="M14.1667 31.7334V24.9334C14.1667 24.7831 14.2264 24.6389 14.3327 24.5327C14.4389 24.4264 14.5831 24.3667 14.7334 24.3667H19.2667C19.417 24.3667 19.5611 24.4264 19.6674 24.5327C19.7737 24.6389 19.8334 24.7831 19.8334 24.9334V31.7334H14.1667Z" fill="#BE1729"/>
<path d="M32.8667 31.1667H1.13335C0.820386 31.1667 0.566681 31.4204 0.566681 31.7334V32.8667C0.566681 33.1796 0.820386 33.4334 1.13335 33.4334H32.8667C33.1796 33.4334 33.4333 33.1796 33.4333 32.8667V31.7334C33.4333 31.4204 33.1796 31.1667 32.8667 31.1667Z" fill="#A5B9C8"/>
<path d="M19.55 4.95834H17.7084V3.11668C17.7084 3.04153 17.6785 2.96947 17.6254 2.91633C17.5722 2.86319 17.5002 2.83334 17.425 2.83334H16.575C16.4999 2.83334 16.4278 2.86319 16.3747 2.91633C16.3215 2.96947 16.2917 3.04153 16.2917 3.11668V4.95834H14.45C14.3749 4.95834 14.3028 4.98819 14.2497 5.04133C14.1965 5.09447 14.1667 5.16653 14.1667 5.24168V6.09168C14.1667 6.16682 14.1965 6.23889 14.2497 6.29202C14.3028 6.34516 14.3749 6.37501 14.45 6.37501H16.2917V8.21668C16.2917 8.29182 16.3215 8.36389 16.3747 8.41702C16.4278 8.47016 16.4999 8.50001 16.575 8.50001H17.425C17.5002 8.50001 17.5722 8.47016 17.6254 8.41702C17.6785 8.36389 17.7084 8.29182 17.7084 8.21668V6.37501H19.55C19.6252 6.37501 19.6972 6.34516 19.7504 6.29202C19.8035 6.23889 19.8334 6.16682 19.8334 6.09168V5.24168C19.8334 5.16653 19.8035 5.09447 19.7504 5.04133C19.6972 4.98819 19.6252 4.95834 19.55 4.95834Z" fill="white"/>
</g>
<defs>
<clipPath id="clip0_14914_5575">
<rect width="34" height="34" fill="white"/>
</clipPath>
</defs>
</svg>
