<svg width="41" height="40" viewBox="0 0 41 40" fill="none" xmlns="http://www.w3.org/2000/svg">
<g filter="url(#filter0_i_14455_13072)">
<path d="M8.14716 33.0686L14.4558 26.76L18.4697 30.774C19.0716 31.3759 19.1002 32.3425 18.5349 32.9789C18.1919 33.365 17.6843 33.5629 17.1704 33.5108L15.8196 33.3737C15.4874 33.34 15.1583 33.461 14.9271 33.7019C14.7128 33.9251 14.604 34.2292 14.628 34.5377L14.7322 35.8773C14.7661 36.3128 14.6107 36.7418 14.3056 37.0545C13.7153 37.6597 12.7443 37.6657 12.1465 37.0679L8.14716 33.0686Z" fill="url(#paint0_linear_14455_13072)"/>
</g>
<g filter="url(#filter1_i_14455_13072)">
<path d="M20.9966 15.2148L25.2544 19.4727L9.08251 35.6445C7.90675 36.8203 6.00046 36.8203 4.82469 35.6445C3.64893 34.4688 3.64893 32.5625 4.82469 31.3867L20.9966 15.2148Z" fill="url(#paint1_linear_14455_13072)"/>
</g>
<g filter="url(#filter2_i_14455_13072)">
<path fill-rule="evenodd" clip-rule="evenodd" d="M27.852 22.5C33.3532 22.5 37.8129 18.0403 37.8129 12.5391C37.8129 7.03779 33.3532 2.57812 27.852 2.57812C22.3507 2.57812 17.8911 7.03779 17.8911 12.5391C17.8911 18.0403 22.3507 22.5 27.852 22.5ZM27.852 17.5C30.5919 17.5 32.8129 15.2789 32.8129 12.5391C32.8129 9.79921 30.5919 7.57812 27.852 7.57812C25.1121 7.57812 22.8911 9.79921 22.8911 12.5391C22.8911 15.2789 25.1121 17.5 27.852 17.5Z" fill="url(#paint2_linear_14455_13072)"/>
</g>
<rect x="17.1" y="17.8027" width="7.70634" height="1.9101" rx="0.95505" transform="rotate(45 17.1 17.8027)" fill="url(#paint3_linear_14455_13072)"/>
<rect x="17.1" y="17.8027" width="7.70634" height="1.9101" rx="0.95505" transform="rotate(45 17.1 17.8027)" fill="url(#paint4_radial_14455_13072)"/>
<rect x="17.1" y="17.8027" width="7.70634" height="1.9101" rx="0.95505" transform="rotate(45 17.1 17.8027)" fill="url(#paint5_linear_14455_13072)"/>
<rect x="18.4507" y="16.4521" width="7.70634" height="1.9101" rx="0.95505" transform="rotate(45 18.4507 16.4521)" fill="url(#paint6_linear_14455_13072)"/>
<rect x="18.4507" y="16.4521" width="7.70634" height="1.9101" rx="0.95505" transform="rotate(45 18.4507 16.4521)" fill="url(#paint7_radial_14455_13072)"/>
<rect x="18.4507" y="16.4521" width="7.70634" height="1.9101" rx="0.95505" transform="rotate(45 18.4507 16.4521)" fill="url(#paint8_linear_14455_13072)"/>
<g filter="url(#filter3_f_14455_13072)">
<circle cx="28.3863" cy="12.0048" r="7.88626" stroke="url(#paint9_linear_14455_13072)" stroke-width="1.25"/>
<circle cx="28.3863" cy="12.0048" r="7.88626" stroke="url(#paint10_linear_14455_13072)" stroke-width="1.25"/>
</g>
<defs>
<filter id="filter0_i_14455_13072" x="8.14716" y="26.61" width="10.7935" height="10.9023" filterUnits="userSpaceOnUse" color-interpolation-filters="sRGB">
<feFlood flood-opacity="0" result="BackgroundImageFix"/>
<feBlend mode="normal" in="SourceGraphic" in2="BackgroundImageFix" result="shape"/>
<feColorMatrix in="SourceAlpha" type="matrix" values="0 0 0 0 0 0 0 0 0 0 0 0 0 0 0 0 0 0 127 0" result="hardAlpha"/>
<feOffset dy="-0.15"/>
<feGaussianBlur stdDeviation="0.25"/>
<feComposite in2="hardAlpha" operator="arithmetic" k2="-1" k3="1"/>
<feColorMatrix type="matrix" values="0 0 0 0 0.839216 0 0 0 0 0.592157 0 0 0 0 0.34902 0 0 0 1 0"/>
<feBlend mode="normal" in2="shape" result="effect1_innerShadow_14455_13072"/>
</filter>
<filter id="filter1_i_14455_13072" x="3.94287" y="14.7148" width="21.3115" height="21.8115" filterUnits="userSpaceOnUse" color-interpolation-filters="sRGB">
<feFlood flood-opacity="0" result="BackgroundImageFix"/>
<feBlend mode="normal" in="SourceGraphic" in2="BackgroundImageFix" result="shape"/>
<feColorMatrix in="SourceAlpha" type="matrix" values="0 0 0 0 0 0 0 0 0 0 0 0 0 0 0 0 0 0 127 0" result="hardAlpha"/>
<feOffset dy="-0.5"/>
<feGaussianBlur stdDeviation="0.75"/>
<feComposite in2="hardAlpha" operator="arithmetic" k2="-1" k3="1"/>
<feColorMatrix type="matrix" values="0 0 0 0 0.85098 0 0 0 0 0.541176 0 0 0 0 0.34902 0 0 0 1 0"/>
<feBlend mode="normal" in2="shape" result="effect1_innerShadow_14455_13072"/>
</filter>
<filter id="filter2_i_14455_13072" x="17.8911" y="2.17812" width="19.9219" height="20.3219" filterUnits="userSpaceOnUse" color-interpolation-filters="sRGB">
<feFlood flood-opacity="0" result="BackgroundImageFix"/>
<feBlend mode="normal" in="SourceGraphic" in2="BackgroundImageFix" result="shape"/>
<feColorMatrix in="SourceAlpha" type="matrix" values="0 0 0 0 0 0 0 0 0 0 0 0 0 0 0 0 0 0 127 0" result="hardAlpha"/>
<feOffset dy="-0.4"/>
<feGaussianBlur stdDeviation="0.5"/>
<feComposite in2="hardAlpha" operator="arithmetic" k2="-1" k3="1"/>
<feColorMatrix type="matrix" values="0 0 0 0 0.815686 0 0 0 0 0.505882 0 0 0 0 0.337255 0 0 0 1 0"/>
<feBlend mode="normal" in2="shape" result="effect1_innerShadow_14455_13072"/>
</filter>
<filter id="filter3_f_14455_13072" x="18.625" y="2.24359" width="19.5225" height="19.5225" filterUnits="userSpaceOnUse" color-interpolation-filters="sRGB">
<feFlood flood-opacity="0" result="BackgroundImageFix"/>
<feBlend mode="normal" in="SourceGraphic" in2="BackgroundImageFix" result="shape"/>
<feGaussianBlur stdDeviation="0.625" result="effect1_foregroundBlur_14455_13072"/>
</filter>
<linearGradient id="paint0_linear_14455_13072" x1="15.0395" y1="34.8438" x2="12.5395" y2="32.1362" gradientUnits="userSpaceOnUse">
<stop stop-color="#F4B954"/>
<stop offset="0.907715" stop-color="#ECA84F"/>
</linearGradient>
<linearGradient id="paint1_linear_14455_13072" x1="10.5473" y1="26.2891" x2="14.5986" y2="30.2344" gradientUnits="userSpaceOnUse">
<stop stop-color="#F7C250"/>
<stop offset="1" stop-color="#F8AB54"/>
</linearGradient>
<linearGradient id="paint2_linear_14455_13072" x1="27.852" y1="3.51563" x2="27.852" y2="22.5" gradientUnits="userSpaceOnUse">
<stop stop-color="#F8CF4D"/>
<stop offset="1" stop-color="#ED9953"/>
</linearGradient>
<linearGradient id="paint3_linear_14455_13072" x1="18.1082" y1="18.8842" x2="23.4115" y2="18.9394" gradientUnits="userSpaceOnUse">
<stop stop-color="#F6BF4E"/>
<stop offset="1" stop-color="#EA994D"/>
</linearGradient>
<radialGradient id="paint4_radial_14455_13072" cx="0" cy="0" r="1" gradientUnits="userSpaceOnUse" gradientTransform="translate(21.4286 18.2824) rotate(92.756) scale(0.408941 2.36878)">
<stop stop-color="#FCBC66"/>
<stop offset="1" stop-color="#FCBC66" stop-opacity="0"/>
</radialGradient>
<linearGradient id="paint5_linear_14455_13072" x1="21.3537" y1="19.9752" x2="21.3479" y2="19.1524" gradientUnits="userSpaceOnUse">
<stop offset="0.186419" stop-color="#E29226"/>
<stop offset="1" stop-color="#EC9B4F" stop-opacity="0"/>
</linearGradient>
<linearGradient id="paint6_linear_14455_13072" x1="19.4589" y1="17.5335" x2="24.7622" y2="17.5888" gradientUnits="userSpaceOnUse">
<stop stop-color="#F6BF4E"/>
<stop offset="1" stop-color="#EA994D"/>
</linearGradient>
<radialGradient id="paint7_radial_14455_13072" cx="0" cy="0" r="1" gradientUnits="userSpaceOnUse" gradientTransform="translate(22.7793 16.9317) rotate(92.756) scale(0.408941 2.36878)">
<stop stop-color="#FBB865"/>
<stop offset="1" stop-color="#FBB865" stop-opacity="0"/>
</radialGradient>
<linearGradient id="paint8_linear_14455_13072" x1="22.7044" y1="18.6246" x2="22.6985" y2="17.8018" gradientUnits="userSpaceOnUse">
<stop offset="0.186419" stop-color="#E29226"/>
<stop offset="1" stop-color="#E29226" stop-opacity="0"/>
</linearGradient>
<linearGradient id="paint9_linear_14455_13072" x1="34.65" y1="5.37262" x2="27.3348" y2="11.5731" gradientUnits="userSpaceOnUse">
<stop stop-color="#FFDD67"/>
<stop offset="1" stop-color="#FFDD67" stop-opacity="0"/>
</linearGradient>
<linearGradient id="paint10_linear_14455_13072" x1="22.5395" y1="17.5" x2="24.2582" y2="14.7656" gradientUnits="userSpaceOnUse">
<stop stop-color="#FEB765"/>
<stop offset="1" stop-color="#FEB765" stop-opacity="0"/>
</linearGradient>
</defs>
</svg>
