<svg width="25" height="24" viewBox="0 0 25 24" fill="none" xmlns="http://www.w3.org/2000/svg">
<path d="M22.495 22L22.5 21.9992V14.6642C22.5 11.0758 21.7275 8.31167 17.5325 8.31167C15.5158 8.31167 14.1625 9.41833 13.61 10.4675H13.5517V8.64667H9.57417V21.9992H13.7158V15.3875C13.7158 13.6467 14.0458 11.9633 16.2017 11.9633C18.3258 11.9633 18.3575 13.95 18.3575 15.4992V22H22.495ZM2.83 8.6475H6.97667V22H2.83V8.6475ZM4.90167 2C3.57583 2 2.5 3.07583 2.5 4.40167C2.5 5.7275 3.57583 6.82583 4.90167 6.82583C6.2275 6.82583 7.30333 5.7275 7.30333 4.40167C7.30289 3.76484 7.04972 3.15422 6.59941 2.70392C6.14911 2.25362 5.53849 2.00044 4.90167 2Z" fill="#0077B5"/>
</svg>
