<svg width="16" height="16" viewBox="0 0 16 16" fill="none" xmlns="http://www.w3.org/2000/svg">
<path d="M4.91901 6.79351L3.43004 8.28248C2.87395 8.83856 2.55416 9.59521 2.56 10.3904C2.56585 11.1856 2.87864 11.9469 3.46111 12.5114C4.02557 13.0939 4.78699 13.4066 5.58207 13.4125C6.39529 13.4185 7.13402 13.1167 7.69014 12.5606L9.17911 11.0716M11.081 9.20612L12.57 7.71715C13.126 7.16106 13.4458 6.40442 13.44 5.60921C13.4341 4.814 13.1214 4.05274 12.5389 3.48825C11.9746 2.92393 11.2133 2.61112 10.4181 2.60528C9.62285 2.59944 8.86611 2.90107 8.30999 3.45718L6.82102 4.94614M5.74207 10.2179L10.209 5.75101" stroke="#646464" stroke-linecap="round" stroke-linejoin="round"/>
</svg>
