<svg width="24" height="24" viewBox="0 0 24 24" fill="none" xmlns="http://www.w3.org/2000/svg">
<path d="M6.5998 8.80039V7.8861C6.5998 4.84719 9.00838 2.40039 11.9998 2.40039C13.8632 2.40039 15.5005 3.34982 16.4703 4.80039M6.5998 8.80039C5.6098 8.80039 4.7998 9.62325 4.7998 10.629V19.7718C4.7998 20.7775 5.6098 21.6004 6.5998 21.6004H17.3998C18.3898 21.6004 19.1998 20.7775 19.1998 19.7718V10.629C19.1998 9.62325 18.3898 8.80039 17.3998 8.80039H6.5998ZM11.9998 13.3718C12.9898 13.3718 13.7998 14.1947 13.7998 15.2004C13.7998 16.2061 12.9898 17.029 11.9998 17.029C11.0098 17.029 10.1998 16.2061 10.1998 15.2004C10.1998 14.1947 11.0098 13.3718 11.9998 13.3718Z" stroke="#111111" stroke-width="1.5" stroke-linecap="round"/>
</svg>
