<svg width="24" height="24" viewBox="0 0 24 24" fill="none" xmlns="http://www.w3.org/2000/svg">
<path d="M14.25 7.5V19.0969C14.2489 19.2215 14.2792 19.3444 14.3382 19.4542C14.3972 19.564 14.483 19.6572 14.5875 19.725L15.6188 20.4094C15.7187 20.4761 15.8331 20.5178 15.9525 20.531C16.0719 20.5443 16.1928 20.5287 16.3049 20.4855C16.4169 20.4423 16.517 20.3728 16.5967 20.2829C16.6763 20.193 16.7332 20.0852 16.7625 19.9688L18 15" stroke="#111111" stroke-width="1.5" stroke-linecap="round" stroke-linejoin="round"/>
<path d="M18 14.9997C18.9946 14.9997 19.9484 14.6046 20.6517 13.9014C21.3549 13.1981 21.75 12.2443 21.75 11.2497C21.75 10.2552 21.3549 9.30133 20.6517 8.59807C19.9484 7.89481 18.9946 7.49972 18 7.49972H14.25C14.25 7.49972 9.14062 7.49972 4.22812 3.3841C4.11886 3.29368 3.9862 3.23609 3.84553 3.21803C3.70486 3.19996 3.56195 3.22214 3.43338 3.28201C3.30481 3.34188 3.19585 3.43698 3.11914 3.55627C3.04244 3.67556 3.00112 3.81415 3 3.95597V18.5435C3.00112 18.6853 3.04244 18.8239 3.11914 18.9432C3.19585 19.0625 3.30481 19.1576 3.43338 19.2174C3.56195 19.2773 3.70486 19.2995 3.84553 19.2814C3.9862 19.2633 4.11886 19.2058 4.22812 19.1153C9.14062 14.9997 14.25 14.9997 14.25 14.9997H18Z" stroke="#111111" stroke-width="1.5" stroke-linecap="round" stroke-linejoin="round"/>
</svg>
