<svg width="24" height="24" viewBox="0 0 24 24" fill="none" xmlns="http://www.w3.org/2000/svg">
<path d="M11.6869 17.1911V16.4411C11.488 16.4411 11.2973 16.5201 11.1566 16.6608L11.6869 17.1911ZM6.67825 22.1998H5.92825C5.92825 22.5032 6.11099 22.7766 6.39124 22.8927C6.6715 23.0088 6.99409 22.9446 7.20858 22.7301L6.67825 22.1998ZM6.67825 17.1911H7.42825C7.42825 16.7769 7.09247 16.4411 6.67825 16.4411V17.1911ZM10.8 3.7498C11.2142 3.7498 11.55 3.41402 11.55 2.9998C11.55 2.58559 11.2142 2.2498 10.8 2.2498V3.7498ZM22.35 11.9998C22.35 11.5856 22.0142 11.2498 21.6 11.2498C21.1858 11.2498 20.85 11.5856 20.85 11.9998H22.35ZM11.1566 16.6608L6.14792 21.6695L7.20858 22.7301L12.2173 17.7214L11.1566 16.6608ZM7.42825 22.1998V17.1911H5.92825V22.1998H7.42825ZM6.67825 16.4411H4.79999V17.9411H6.67825V16.4411ZM3.14999 14.7911V5.39981H1.64999V14.7911H3.14999ZM19.2 16.4411H11.6869V17.9411H19.2V16.4411ZM4.79999 3.7498H10.8V2.2498H4.79999V3.7498ZM20.85 11.9998V14.7911H22.35V11.9998H20.85ZM19.2 17.9411C20.9397 17.9411 22.35 16.5308 22.35 14.7911H20.85C20.85 15.7024 20.1113 16.4411 19.2 16.4411V17.9411ZM3.14999 5.39981C3.14999 4.48854 3.88872 3.7498 4.79999 3.7498V2.2498C3.0603 2.2498 1.64999 3.66011 1.64999 5.39981H3.14999ZM4.79999 16.4411C3.88872 16.4411 3.14999 15.7024 3.14999 14.7911H1.64999C1.64999 16.5308 3.0603 17.9411 4.79999 17.9411V16.4411ZM20.85 5.3998C20.85 6.97382 19.574 8.2498 18 8.2498V9.7498C20.4024 9.7498 22.35 7.80224 22.35 5.3998H20.85ZM18 8.2498C16.426 8.2498 15.15 6.97382 15.15 5.3998H13.65C13.65 7.80224 15.5976 9.7498 18 9.7498V8.2498ZM15.15 5.3998C15.15 3.82579 16.426 2.5498 18 2.5498V1.0498C15.5976 1.0498 13.65 2.99737 13.65 5.3998H15.15ZM18 2.5498C19.574 2.5498 20.85 3.82579 20.85 5.3998H22.35C22.35 2.99737 20.4024 1.0498 18 1.0498V2.5498Z" fill="#DF1D32"/>
</svg>
