<svg width="31" height="30" viewBox="0 0 31 30" fill="none" xmlns="http://www.w3.org/2000/svg">
<path d="M27.6875 7.5H3.3125C2.79473 7.5 2.375 7.91973 2.375 8.4375V21.5625C2.375 22.0803 2.79473 22.5 3.3125 22.5H27.6875C28.2053 22.5 28.625 22.0803 28.625 21.5625V8.4375C28.625 7.91973 28.2053 7.5 27.6875 7.5Z" stroke="#DF1D32" stroke-width="1.5" stroke-linecap="round" stroke-linejoin="round"/>
<path d="M15.5 18.75C17.5711 18.75 19.25 17.0711 19.25 15C19.25 12.9289 17.5711 11.25 15.5 11.25C13.4289 11.25 11.75 12.9289 11.75 15C11.75 17.0711 13.4289 18.75 15.5 18.75Z" stroke="#DF1D32" stroke-width="1.5" stroke-linecap="round" stroke-linejoin="round"/>
<path d="M21.125 7.5L28.625 14.0625" stroke="#DF1D32" stroke-width="1.5" stroke-linecap="round" stroke-linejoin="round"/>
<path d="M21.125 22.5L28.625 15.9375" stroke="#DF1D32" stroke-width="1.5" stroke-linecap="round" stroke-linejoin="round"/>
<path d="M9.875 7.5L2.375 14.0625" stroke="#DF1D32" stroke-width="1.5" stroke-linecap="round" stroke-linejoin="round"/>
<path d="M9.875 22.5L2.375 15.9375" stroke="#DF1D32" stroke-width="1.5" stroke-linecap="round" stroke-linejoin="round"/>
</svg>
