<svg width="24" height="25" viewBox="0 0 24 25" fill="none" xmlns="http://www.w3.org/2000/svg">
<path d="M8.67753 17.7504C8.48805 17.7497 8.30585 17.6774 8.16753 17.5479C7.48263 16.8977 6.93723 16.1148 6.56454 15.2471C6.19184 14.3793 5.99964 13.4448 5.99964 12.5004C5.99964 11.556 6.19184 10.6215 6.56454 9.75372C6.93723 8.88597 7.48263 8.10314 8.16753 7.4529C8.31512 7.33322 8.50263 7.27402 8.69218 7.28727C8.88173 7.30051 9.05918 7.3852 9.1887 7.52424C9.31821 7.66328 9.39012 7.84629 9.3899 8.0363C9.38969 8.22631 9.31736 8.40916 9.18753 8.5479C8.65439 9.05892 8.23015 9.67252 7.94033 10.3518C7.65052 11.031 7.50111 11.7619 7.50111 12.5004C7.50111 13.2389 7.65052 13.9698 7.94033 14.649C8.23015 15.3283 8.65439 15.9419 9.18753 16.4529C9.29719 16.5556 9.37349 16.6888 9.40656 16.8353C9.43962 16.9819 9.42792 17.135 9.37296 17.2748C9.31801 17.4146 9.22234 17.5347 9.09834 17.6195C8.97435 17.7043 8.82775 17.7499 8.67753 17.7504ZM5.67753 19.7604C5.81722 19.6199 5.89562 19.4298 5.89562 19.2316C5.89562 19.0335 5.81722 18.8434 5.67753 18.7029C4.83846 17.9024 4.17053 16.9399 3.71418 15.8738C3.25782 14.8077 3.02252 13.6601 3.02252 12.5004C3.02252 11.3407 3.25782 10.1931 3.71418 9.12697C4.17053 8.06085 4.83846 7.09841 5.67753 6.2979C5.82273 6.15766 5.90629 5.96549 5.9098 5.76366C5.91332 5.56182 5.83651 5.36685 5.69628 5.22165C5.55604 5.07644 5.36387 4.99289 5.16204 4.98937C4.9602 4.98586 4.76523 5.06266 4.62003 5.2029C3.63207 6.1443 2.84556 7.27651 2.30815 8.5309C1.77075 9.78529 1.49365 11.1357 1.49365 12.5004C1.49365 13.8651 1.77075 15.2155 2.30815 16.4699C2.84556 17.7243 3.63207 18.8565 4.62003 19.7979C4.6922 19.8658 4.7771 19.9187 4.86984 19.9536C4.96258 19.9885 5.06132 20.0047 5.16035 20.0012C5.25937 19.9977 5.35673 19.9746 5.44678 19.9333C5.53684 19.892 5.61781 19.8332 5.68503 19.7604H5.67753ZM15.825 17.5479C16.5099 16.8977 17.0553 16.1148 17.428 15.2471C17.8007 14.3793 17.9929 13.4448 17.9929 12.5004C17.9929 11.556 17.8007 10.6215 17.428 9.75372C17.0553 8.88597 16.5099 8.10314 15.825 7.4529C15.7531 7.38543 15.6686 7.33279 15.5764 7.29797C15.4842 7.26315 15.386 7.24685 15.2874 7.24998C15.1889 7.25311 15.0919 7.27563 15.0021 7.31623C14.9122 7.35684 14.8312 7.41475 14.7638 7.48665C14.6963 7.55855 14.6437 7.64303 14.6089 7.73527C14.574 7.82752 14.5577 7.92572 14.5609 8.02426C14.564 8.12281 14.5865 8.21977 14.6271 8.30962C14.6677 8.39946 14.7256 8.48043 14.7975 8.5479C15.3335 9.05726 15.7603 9.67031 16.052 10.3498C16.3436 11.0293 16.494 11.761 16.494 12.5004C16.494 13.2398 16.3436 13.9715 16.052 14.651C15.7603 15.3305 15.3335 15.9435 14.7975 16.4529C14.6527 16.5884 14.5675 16.7757 14.5605 16.9739C14.5535 17.1721 14.6252 17.365 14.76 17.5104C14.8308 17.5867 14.9167 17.6475 15.0123 17.6888C15.1078 17.7301 15.2109 17.7511 15.315 17.7504C15.5045 17.7497 15.6867 17.6774 15.825 17.5479ZM19.365 19.7979C20.3559 18.8582 21.145 17.7265 21.6842 16.4719C22.2235 15.2173 22.5016 13.866 22.5016 12.5004C22.5016 11.1348 22.2235 9.78351 21.6842 8.52889C21.145 7.27428 20.3559 6.14262 19.365 5.2029C19.2174 5.08322 19.0299 5.02402 18.8404 5.03727C18.6508 5.05051 18.4734 5.1352 18.3439 5.27424C18.2143 5.41328 18.1424 5.59629 18.1427 5.7863C18.1429 5.97631 18.2152 6.15916 18.345 6.2979C19.1841 7.09841 19.852 8.06085 20.3084 9.12697C20.7647 10.1931 21 11.3407 21 12.5004C21 13.6601 20.7647 14.8077 20.3084 15.8738C19.852 16.9399 19.1841 17.9024 18.345 18.7029C18.2002 18.8384 18.115 19.0257 18.108 19.2239C18.101 19.4221 18.1727 19.615 18.3075 19.7604C18.3775 19.8358 18.4621 19.896 18.5563 19.9373C18.6505 19.9786 18.7522 20.0001 18.855 20.0004C19.0445 19.9997 19.2267 19.9274 19.365 19.7979ZM13.5 12.5004C13.5 12.2037 13.4121 11.9137 13.2472 11.667C13.0824 11.4204 12.8481 11.2281 12.5741 11.1146C12.3 11.001 11.9984 10.9713 11.7074 11.0292C11.4164 11.0871 11.1491 11.23 10.9394 11.4397C10.7296 11.6495 10.5867 11.9168 10.5289 12.2078C10.471 12.4987 10.5007 12.8003 10.6142 13.0744C10.7277 13.3485 10.92 13.5828 11.1667 13.7476C11.4133 13.9124 11.7034 14.0004 12 14.0004C12.3979 14.0004 12.7794 13.8424 13.0607 13.5611C13.342 13.2798 13.5 12.8982 13.5 12.5004Z" fill="#DF1D32"/>
</svg>
