<svg width="40" height="40" viewBox="0 0 40 40" fill="none" xmlns="http://www.w3.org/2000/svg">
<g clip-path="url(#clip0_14497_16949)">
<path fill-rule="evenodd" clip-rule="evenodd" d="M10.2499 0H23.6232L34.9575 11.8141V34.7926C34.9575 37.6712 32.6287 40 29.7601 40H10.2499C7.37131 40 5.04248 37.6712 5.04248 34.7926V5.20738C5.04243 2.32883 7.37126 0 10.2499 0Z" fill="#DF1D32"/>
<path fill-rule="evenodd" clip-rule="evenodd" d="M23.6133 0V11.7241H34.9576L23.6133 0Z" fill="#9D1726"/>
<path d="M10.8296 29.8449V22.5386H13.938C14.7077 22.5386 15.3174 22.7485 15.7771 23.1783C16.2369 23.598 16.4668 24.1678 16.4668 24.8774C16.4668 25.587 16.2369 26.1568 15.7771 26.5766C15.3174 27.0064 14.7077 27.2162 13.938 27.2162H12.6987V29.8449H10.8296ZM12.6987 25.6271H13.7282C14.008 25.6271 14.2279 25.5671 14.3778 25.4272C14.5277 25.2972 14.6077 25.1173 14.6077 24.8775C14.6077 24.6376 14.5278 24.4577 14.3778 24.3277C14.2279 24.1878 14.008 24.1279 13.7282 24.1279H12.6987V25.6271ZM17.2364 29.8449V22.5386H19.8251C20.3348 22.5386 20.8146 22.6085 21.2644 22.7585C21.7141 22.9084 22.1239 23.1183 22.4837 23.4082C22.8436 23.688 23.1334 24.0678 23.3433 24.5476C23.5432 25.0274 23.6532 25.5771 23.6532 26.1968C23.6532 26.8065 23.5433 27.3562 23.3433 27.8359C23.1334 28.3157 22.8436 28.6955 22.4837 28.9753C22.1239 29.2652 21.7141 29.4751 21.2644 29.625C20.8146 29.7749 20.3348 29.8449 19.8251 29.8449H17.2364ZM19.0655 28.2557H19.6052C19.895 28.2557 20.1649 28.2258 20.4148 28.1558C20.6546 28.0858 20.8846 27.9759 21.1045 27.826C21.3143 27.6761 21.4843 27.4661 21.6042 27.1863C21.7241 26.9064 21.7841 26.5766 21.7841 26.1968C21.7841 25.8069 21.7241 25.4771 21.6042 25.1973C21.4843 24.9174 21.3143 24.7075 21.1045 24.5576C20.8846 24.4077 20.6547 24.2977 20.4148 24.2278C20.1649 24.1578 19.895 24.1278 19.6052 24.1278H19.0655V28.2557ZM24.5927 29.8449V22.5386H29.7901V24.1278H26.4618V25.2972H29.1204V26.8764H26.4618V29.8449H24.5927Z" fill="#FFE1E4"/>
</g>
<defs>
<clipPath id="clip0_14497_16949">
<rect width="40" height="40" fill="white"/>
</clipPath>
</defs>
</svg>
