<svg width="25" height="24" viewBox="0 0 25 24" fill="none" xmlns="http://www.w3.org/2000/svg">
<path d="M11.6001 21C16.8468 21 21.1001 16.7467 21.1001 11.5C21.1001 6.25329 16.8468 2 11.6001 2C6.35339 2 2.1001 6.25329 2.1001 11.5C2.1001 16.7467 6.35339 21 11.6001 21Z" fill="#DF1D32"/>
<path d="M21.4002 22.0001C21.2202 22.0001 21.0402 21.9301 20.9102 21.8001L19.0502 19.9401C18.7802 19.6701 18.7802 19.2301 19.0502 18.9501C19.3202 18.6801 19.7602 18.6801 20.0402 18.9501L21.9002 20.8101C22.1702 21.0801 22.1702 21.5201 21.9002 21.8001C21.7602 21.9301 21.5802 22.0001 21.4002 22.0001Z" fill="#DF1D32"/>
</svg>
