<svg width="41" height="40" viewBox="0 0 41 40" fill="none" xmlns="http://www.w3.org/2000/svg">
<rect x="3.11719" y="12.5034" width="34.7656" height="24.9219" rx="1.75" fill="url(#paint0_linear_14455_14092)"/>
<rect x="3.11719" y="12.5034" width="34.7656" height="24.9219" rx="1.75" fill="url(#paint1_linear_14455_14092)"/>
<path d="M20.5 12.5034V37.4253H5.30469C4.09657 37.4253 3.11719 36.4459 3.11719 35.2378V14.6909C3.11719 13.4828 4.09657 12.5034 5.30469 12.5034H20.5Z" fill="url(#paint2_linear_14455_14092)"/>
<path d="M20.5 12.5034V37.4253H5.30469C4.09657 37.4253 3.11719 36.4459 3.11719 35.2378V14.6909C3.11719 13.4828 4.09657 12.5034 5.30469 12.5034H20.5Z" fill="url(#paint3_radial_14455_14092)"/>
<path d="M20.5 12.5034V37.4253H35.6953C36.9034 37.4253 37.8828 36.4459 37.8828 35.2378V14.6909C37.8828 13.4828 36.9034 12.5034 35.6953 12.5034H20.5Z" fill="url(#paint4_linear_14455_14092)"/>
<path d="M20.5 12.5034V37.4253H35.6953C36.9034 37.4253 37.8828 36.4459 37.8828 35.2378V14.6909C37.8828 13.4828 36.9034 12.5034 35.6953 12.5034H20.5Z" fill="url(#paint5_linear_14455_14092)"/>
<path d="M20.5 12.5034V37.4253H35.6953C36.9034 37.4253 37.8828 36.4459 37.8828 35.2378V14.6909C37.8828 13.4828 36.9034 12.5034 35.6953 12.5034H20.5Z" fill="url(#paint6_linear_14455_14092)"/>
<path d="M20.5 12.5034V37.4253H35.6953C36.9034 37.4253 37.8828 36.4459 37.8828 35.2378V14.6909C37.8828 13.4828 36.9034 12.5034 35.6953 12.5034H20.5Z" fill="url(#paint7_linear_14455_14092)"/>
<g filter="url(#filter0_i_14455_14092)">
<path d="M3.11719 35.2378C3.11719 34.9097 3.28619 34.6048 3.56439 34.4309L20.2249 24.0169C20.3872 23.9155 20.5932 23.9156 20.7554 24.0173L37.4714 34.4944C37.7274 34.6548 37.8828 34.9357 37.8828 35.2378C37.8828 36.4459 36.9034 37.4253 35.6953 37.4253H5.30469C4.09657 37.4253 3.11719 36.4459 3.11719 35.2378Z" fill="url(#paint8_linear_14455_14092)"/>
</g>
<path d="M3.11719 35.2378C3.11719 34.9097 3.28619 34.6048 3.56439 34.4309L20.2249 24.0169C20.3872 23.9155 20.5932 23.9156 20.7554 24.0173L37.4714 34.4944C37.7274 34.6548 37.8828 34.9357 37.8828 35.2378C37.8828 36.4459 36.9034 37.4253 35.6953 37.4253H5.30469C4.09657 37.4253 3.11719 36.4459 3.11719 35.2378Z" fill="url(#paint9_linear_14455_14092)"/>
<path d="M3.11719 35.2378C3.11719 34.9097 3.28619 34.6048 3.56439 34.4309L20.2249 24.0169C20.3872 23.9155 20.5932 23.9156 20.7554 24.0173L37.4714 34.4944C37.7274 34.6548 37.8828 34.9357 37.8828 35.2378C37.8828 36.4459 36.9034 37.4253 35.6953 37.4253H5.30469C4.09657 37.4253 3.11719 36.4459 3.11719 35.2378Z" fill="url(#paint10_linear_14455_14092)"/>
<g filter="url(#filter1_ii_14455_14092)">
<path d="M3.11719 14.6909C3.11719 15.019 3.28619 15.3239 3.56439 15.4978L20.2249 25.9118C20.3872 26.0132 20.5932 26.0131 20.7554 25.9114L37.4714 15.4343C37.7274 15.2739 37.8828 14.993 37.8828 14.6909C37.8828 13.4828 36.9034 12.5034 35.6953 12.5034H5.30469C4.09657 12.5034 3.11719 13.4828 3.11719 14.6909Z" fill="url(#paint11_linear_14455_14092)"/>
<path d="M3.11719 14.6909C3.11719 15.019 3.28619 15.3239 3.56439 15.4978L20.2249 25.9118C20.3872 26.0132 20.5932 26.0131 20.7554 25.9114L37.4714 15.4343C37.7274 15.2739 37.8828 14.993 37.8828 14.6909C37.8828 13.4828 36.9034 12.5034 35.6953 12.5034H5.30469C4.09657 12.5034 3.11719 13.4828 3.11719 14.6909Z" fill="url(#paint12_linear_14455_14092)"/>
<path d="M3.11719 14.6909C3.11719 15.019 3.28619 15.3239 3.56439 15.4978L20.2249 25.9118C20.3872 26.0132 20.5932 26.0131 20.7554 25.9114L37.4714 15.4343C37.7274 15.2739 37.8828 14.993 37.8828 14.6909C37.8828 13.4828 36.9034 12.5034 35.6953 12.5034H5.30469C4.09657 12.5034 3.11719 13.4828 3.11719 14.6909Z" fill="url(#paint13_linear_14455_14092)"/>
<path d="M3.11719 14.6909C3.11719 15.019 3.28619 15.3239 3.56439 15.4978L20.2249 25.9118C20.3872 26.0132 20.5932 26.0131 20.7554 25.9114L37.4714 15.4343C37.7274 15.2739 37.8828 14.993 37.8828 14.6909C37.8828 13.4828 36.9034 12.5034 35.6953 12.5034H5.30469C4.09657 12.5034 3.11719 13.4828 3.11719 14.6909Z" fill="url(#paint14_radial_14455_14092)"/>
</g>
<g filter="url(#filter2_ii_14455_14092)">
<path d="M17.8319 3.75305C17.3832 3.75305 17.0194 4.11682 17.0194 4.56554V13.6791H15.4628C14.6544 13.6791 14.225 14.6338 14.7613 15.2386L19.8061 20.9274C20.1796 21.3485 20.8372 21.348 21.2099 20.9264L26.2394 15.2376C26.7744 14.6324 26.3447 13.6791 25.537 13.6791H23.9329V4.56554C23.9329 4.11682 23.5692 3.75305 23.1204 3.75305H17.8319Z" fill="url(#paint15_linear_14455_14092)"/>
</g>
<defs>
<filter id="filter0_i_14455_14092" x="3.11719" y="23.1909" width="34.7656" height="14.2344" filterUnits="userSpaceOnUse" color-interpolation-filters="sRGB">
<feFlood flood-opacity="0" result="BackgroundImageFix"/>
<feBlend mode="normal" in="SourceGraphic" in2="BackgroundImageFix" result="shape"/>
<feColorMatrix in="SourceAlpha" type="matrix" values="0 0 0 0 0 0 0 0 0 0 0 0 0 0 0 0 0 0 127 0" result="hardAlpha"/>
<feOffset dy="-0.75"/>
<feGaussianBlur stdDeviation="0.75"/>
<feComposite in2="hardAlpha" operator="arithmetic" k2="-1" k3="1"/>
<feColorMatrix type="matrix" values="0 0 0 0 0.819608 0 0 0 0 0.654902 0 0 0 0 0.933333 0 0 0 1 0"/>
<feBlend mode="normal" in2="shape" result="effect1_innerShadow_14455_14092"/>
</filter>
<filter id="filter1_ii_14455_14092" x="3.11719" y="12.3534" width="34.7656" height="13.8844" filterUnits="userSpaceOnUse" color-interpolation-filters="sRGB">
<feFlood flood-opacity="0" result="BackgroundImageFix"/>
<feBlend mode="normal" in="SourceGraphic" in2="BackgroundImageFix" result="shape"/>
<feColorMatrix in="SourceAlpha" type="matrix" values="0 0 0 0 0 0 0 0 0 0 0 0 0 0 0 0 0 0 127 0" result="hardAlpha"/>
<feOffset dy="-0.15"/>
<feGaussianBlur stdDeviation="0.225"/>
<feComposite in2="hardAlpha" operator="arithmetic" k2="-1" k3="1"/>
<feColorMatrix type="matrix" values="0 0 0 0 0.827451 0 0 0 0 0.686275 0 0 0 0 0.913725 0 0 0 1 0"/>
<feBlend mode="normal" in2="shape" result="effect1_innerShadow_14455_14092"/>
<feColorMatrix in="SourceAlpha" type="matrix" values="0 0 0 0 0 0 0 0 0 0 0 0 0 0 0 0 0 0 127 0" result="hardAlpha"/>
<feOffset dy="0.25"/>
<feGaussianBlur stdDeviation="0.3"/>
<feComposite in2="hardAlpha" operator="arithmetic" k2="-1" k3="1"/>
<feColorMatrix type="matrix" values="0 0 0 0 0.870588 0 0 0 0 0.858824 0 0 0 0 0.854902 0 0 0 1 0"/>
<feBlend mode="normal" in2="effect1_innerShadow_14455_14092" result="effect2_innerShadow_14455_14092"/>
</filter>
<filter id="filter2_ii_14455_14092" x="14.3234" y="3.55305" width="12.3531" height="17.8899" filterUnits="userSpaceOnUse" color-interpolation-filters="sRGB">
<feFlood flood-opacity="0" result="BackgroundImageFix"/>
<feBlend mode="normal" in="SourceGraphic" in2="BackgroundImageFix" result="shape"/>
<feColorMatrix in="SourceAlpha" type="matrix" values="0 0 0 0 0 0 0 0 0 0 0 0 0 0 0 0 0 0 127 0" result="hardAlpha"/>
<feOffset dx="-0.2" dy="0.2"/>
<feGaussianBlur stdDeviation="0.2"/>
<feComposite in2="hardAlpha" operator="arithmetic" k2="-1" k3="1"/>
<feColorMatrix type="matrix" values="0 0 0 0 0.898039 0 0 0 0 0.333333 0 0 0 0 0.54902 0 0 0 1 0"/>
<feBlend mode="normal" in2="shape" result="effect1_innerShadow_14455_14092"/>
<feColorMatrix in="SourceAlpha" type="matrix" values="0 0 0 0 0 0 0 0 0 0 0 0 0 0 0 0 0 0 127 0" result="hardAlpha"/>
<feOffset dx="0.2" dy="-0.2"/>
<feGaussianBlur stdDeviation="0.2"/>
<feComposite in2="hardAlpha" operator="arithmetic" k2="-1" k3="1"/>
<feColorMatrix type="matrix" values="0 0 0 0 0.815686 0 0 0 0 0.105882 0 0 0 0 0.341176 0 0 0 1 0"/>
<feBlend mode="normal" in2="effect1_innerShadow_14455_14092" result="effect2_innerShadow_14455_14092"/>
</filter>
<linearGradient id="paint0_linear_14455_14092" x1="5.61719" y1="26.4097" x2="37.8828" y2="26.1753" gradientUnits="userSpaceOnUse">
<stop stop-color="#DFD0E6"/>
<stop offset="1" stop-color="#EEE5F8"/>
</linearGradient>
<linearGradient id="paint1_linear_14455_14092" x1="3.11719" y1="26.3331" x2="6.91494" y2="26.3331" gradientUnits="userSpaceOnUse">
<stop stop-color="#D6BABD"/>
<stop offset="1" stop-color="#DCC9DD" stop-opacity="0"/>
</linearGradient>
<linearGradient id="paint2_linear_14455_14092" x1="14.0467" y1="28.6808" x2="13.0943" y2="27.1969" gradientUnits="userSpaceOnUse">
<stop offset="0.113759" stop-color="#DAC3DF"/>
<stop offset="1" stop-color="#DAC3DF" stop-opacity="0"/>
</linearGradient>
<radialGradient id="paint3_radial_14455_14092" cx="0" cy="0" r="1" gradientUnits="userSpaceOnUse" gradientTransform="translate(15.6545 21.6902) rotate(123.69) scale(3.40653 23.9243)">
<stop offset="0.342267" stop-color="#C8A6D7"/>
<stop offset="1" stop-color="#D1BBDD" stop-opacity="0"/>
</radialGradient>
<linearGradient id="paint4_linear_14455_14092" x1="26.8672" y1="29.0659" x2="27.9057" y2="27.1969" gradientUnits="userSpaceOnUse">
<stop offset="0.113759" stop-color="#F6EFFE"/>
<stop offset="1" stop-color="#F3EAFD" stop-opacity="0"/>
</linearGradient>
<linearGradient id="paint5_linear_14455_14092" x1="25.6953" y1="22.3862" x2="27.0234" y2="24.1831" gradientUnits="userSpaceOnUse">
<stop stop-color="#E3CDF7"/>
<stop offset="1" stop-color="#E9D9F8" stop-opacity="0"/>
</linearGradient>
<linearGradient id="paint6_linear_14455_14092" x1="38.1172" y1="29.4175" x2="33.4687" y2="29.4175" gradientUnits="userSpaceOnUse">
<stop stop-color="#F7F3FB"/>
<stop offset="1" stop-color="#F0E9F8" stop-opacity="0"/>
</linearGradient>
<linearGradient id="paint7_linear_14455_14092" x1="38.1172" y1="29.4175" x2="36.5856" y2="29.4175" gradientUnits="userSpaceOnUse">
<stop offset="0.199295" stop-color="#EBE9ED"/>
<stop offset="1" stop-color="#EBE9ED" stop-opacity="0"/>
</linearGradient>
<linearGradient id="paint8_linear_14455_14092" x1="20.5" y1="39.6128" x2="20.5" y2="26.0972" gradientUnits="userSpaceOnUse">
<stop stop-color="#DDC5F1"/>
<stop offset="1" stop-color="#E6DAF1"/>
</linearGradient>
<linearGradient id="paint9_linear_14455_14092" x1="9.85762" y1="30.0974" x2="10.428" y2="30.953" gradientUnits="userSpaceOnUse">
<stop offset="0.0734082" stop-color="#DDC2C8"/>
<stop offset="1" stop-color="#DFCDDA" stop-opacity="0"/>
</linearGradient>
<linearGradient id="paint10_linear_14455_14092" x1="28.726" y1="28.9126" x2="28.3675" y2="29.4719" gradientUnits="userSpaceOnUse">
<stop offset="0.139796" stop-color="#F8F3FD"/>
<stop offset="1" stop-color="#F1EAF9" stop-opacity="0"/>
</linearGradient>
<linearGradient id="paint11_linear_14455_14092" x1="20.5" y1="12.5034" x2="20.5" y2="25.9878" gradientUnits="userSpaceOnUse">
<stop stop-color="#E9E4E9"/>
<stop offset="1" stop-color="#E7DCF0"/>
</linearGradient>
<linearGradient id="paint12_linear_14455_14092" x1="12.7621" y1="21.0618" x2="17.2804" y2="12.9555" gradientUnits="userSpaceOnUse">
<stop stop-color="#E1D5E7"/>
<stop offset="1" stop-color="#E1D5E7" stop-opacity="0"/>
</linearGradient>
<linearGradient id="paint13_linear_14455_14092" x1="3.11719" y1="14.5502" x2="6.78205" y2="14.5502" gradientUnits="userSpaceOnUse">
<stop stop-color="#E1C1BC"/>
<stop offset="1" stop-color="#E1C1BC" stop-opacity="0"/>
<stop offset="1" stop-color="#E9D1CD" stop-opacity="0"/>
</linearGradient>
<radialGradient id="paint14_radial_14455_14092" cx="0" cy="0" r="1" gradientUnits="userSpaceOnUse" gradientTransform="translate(34.8219 17.6066) rotate(-138.233) scale(7.66132 33.9474)">
<stop stop-color="#FBF9FE"/>
<stop offset="1" stop-color="#F0ECF1" stop-opacity="0"/>
</radialGradient>
<linearGradient id="paint15_linear_14455_14092" x1="17.2633" y1="11.5118" x2="23.7651" y2="11.5118" gradientUnits="userSpaceOnUse">
<stop stop-color="#E72744"/>
<stop offset="1" stop-color="#D02E7F"/>
</linearGradient>
</defs>
</svg>
