<svg width="20" height="21" viewBox="0 0 20 21" fill="none" xmlns="http://www.w3.org/2000/svg">
<path d="M9.579 2.76159C9.75114 2.4128 10.2485 2.4128 10.4206 2.76159L12.649 7.27669C12.7173 7.4152 12.8495 7.5112 13.0023 7.53341L17.985 8.25744C18.3699 8.31337 18.5236 8.78639 18.2451 9.05788L14.6396 12.5724C14.529 12.6802 14.4785 12.8355 14.5046 12.9878L15.3558 17.9504C15.4215 18.3337 15.0191 18.626 14.6749 18.4451L10.2182 16.102C10.0815 16.0302 9.91815 16.0302 9.78144 16.102L5.32477 18.4451C4.98049 18.626 4.57812 18.3337 4.64387 17.9504L5.49502 12.9878C5.52113 12.8355 5.47066 12.6802 5.36006 12.5724L1.75453 9.05788C1.47601 8.78639 1.6297 8.31337 2.01461 8.25744L6.99733 7.53341C7.15017 7.5112 7.28231 7.4152 7.35066 7.27669L9.579 2.76159Z" stroke="#111111" stroke-width="1.25" stroke-linejoin="round"/>
</svg>
