<svg width="40" height="40" viewBox="0 0 40 40" fill="none" xmlns="http://www.w3.org/2000/svg">
<g filter="url(#filter0_i_14455_14116)">
<path d="M7.95422 3.60091H5.89551C4.25595 3.60091 2.92676 4.93006 2.92676 6.56966V13.8281L5.73926 15.7813V6.56966C5.73926 6.48337 5.80914 6.41341 5.89551 6.41341H7.95422V3.60091Z" fill="url(#paint0_linear_14455_14116)"/>
<path d="M7.95422 3.60091H5.89551C4.25595 3.60091 2.92676 4.93006 2.92676 6.56966V13.8281L5.73926 15.7813V6.56966C5.73926 6.48337 5.80914 6.41341 5.89551 6.41341H7.95422V3.60091Z" fill="url(#paint1_radial_14455_14116)"/>
</g>
<g filter="url(#filter1_i_14455_14116)">
<path d="M15.8839 6.36341C15.8839 6.39102 15.9063 6.41341 15.9339 6.41341H18.4349C18.5212 6.41341 18.5911 6.48337 18.5911 6.56966V14.4922H21.4036V6.56966C21.4036 4.93006 20.0746 3.60091 18.4349 3.60091H15.9339C15.9063 3.60091 15.8839 3.62329 15.8839 3.65091V6.36341Z" fill="url(#paint2_linear_14455_14116)"/>
</g>
<g filter="url(#filter2_i_14455_14116)">
<path d="M2.92676 13.3398V14.2015C2.92676 18.7479 6.21079 22.5272 10.5361 23.2968C10.6265 23.3378 10.7521 23.4442 10.7521 23.6475H11.714V23.4291C11.8635 23.4363 12.0139 23.44 12.1652 23.44C12.3119 23.44 12.4578 23.4366 12.6028 23.4298V23.6475H13.5647C13.5647 23.4503 13.6829 23.3443 13.7725 23.3006C18.1086 22.54 21.4037 18.7555 21.4037 14.2015V13.3398H18.5912V14.2015C18.5912 17.7505 15.7142 20.6275 12.1652 20.6275C8.61626 20.6275 5.73926 17.7505 5.73926 14.2015V13.3398H2.92676Z" fill="url(#paint3_linear_14455_14116)"/>
</g>
<g filter="url(#filter3_i_14455_14116)">
<path d="M25.972 25.024C25.972 23.1148 27.5197 21.567 29.429 21.567C31.3382 21.567 32.8859 23.1148 32.8859 25.024H35.6984C35.6984 21.5615 32.8915 18.7545 29.429 18.7545C25.9664 18.7545 23.1595 21.5615 23.1595 25.024L23.1595 29.3445C23.1595 31.9943 21.0115 34.1423 18.3617 34.1423C15.7119 34.1423 13.5638 31.9943 13.5638 29.3445V23.2405C13.5638 23.0615 13.4871 22.8911 13.353 22.7724L12.5718 22.081C12.3353 21.8718 11.9799 21.8718 11.7434 22.081L10.9621 22.7724C10.8281 22.8911 10.7513 23.0615 10.7513 23.2405V29.3445C10.7513 33.5476 14.1586 36.9548 18.3617 36.9548C22.5648 36.9548 25.972 33.5476 25.972 29.3445L25.972 25.024Z" fill="#5E209E"/>
</g>
<g filter="url(#filter4_f_14455_14116)">
<path d="M12.6417 22.9297V30.2734C12.6417 33.0349 14.8803 35.2734 17.6417 35.2734H20.4477C22.8525 35.2734 24.802 33.3239 24.802 30.9191V24.4472C24.802 22.25 26.5832 20.4688 28.7805 20.4688V20.4688H32.7589" stroke="url(#paint4_radial_14455_14116)" stroke-width="0.75"/>
<path d="M12.6417 22.9297V30.2734C12.6417 33.0349 14.8803 35.2734 17.6417 35.2734H20.4477C22.8525 35.2734 24.802 33.3239 24.802 30.9191V24.4472C24.802 22.25 26.5832 20.4688 28.7805 20.4688V20.4688H32.7589" stroke="url(#paint5_radial_14455_14116)" stroke-width="0.75"/>
</g>
<g filter="url(#filter5_f_14455_14116)">
<path d="M31.3917 20C32.5376 20.3906 34.8292 21.8359 34.8292 24.4922" stroke="url(#paint6_linear_14455_14116)" stroke-width="0.75"/>
</g>
<g filter="url(#filter6_iii_14455_14116)">
<circle cx="34.1006" cy="27.3066" r="4.03849" fill="url(#paint7_linear_14455_14116)"/>
<circle cx="34.1006" cy="27.3066" r="4.03849" fill="url(#paint8_radial_14455_14116)"/>
</g>
<g filter="url(#filter7_diii_14455_14116)">
<circle cx="34.1006" cy="27.3066" r="1.75593" fill="url(#paint9_linear_14455_14116)"/>
</g>
<g filter="url(#filter8_f_14455_14116)">
<path d="M4.61487 13.7109V14.1006C4.61487 18.457 8.14641 21.9886 12.5028 21.9886V21.9886C16.8592 21.9886 20.3907 18.457 20.3907 14.1006V13.7109" stroke="url(#paint10_radial_14455_14116)" stroke-width="0.65"/>
<path d="M4.61487 13.7109V14.1006C4.61487 18.457 8.14641 21.9886 12.5028 21.9886V21.9886C16.8592 21.9886 20.3907 18.457 20.3907 14.1006V13.7109" stroke="url(#paint11_radial_14455_14116)" stroke-width="0.65"/>
</g>
<path d="M6.95086 6.41341L6.95086 3.60091L8.22314 3.60091C8.99979 3.60091 9.62939 4.23051 9.62939 5.00716C9.62939 5.78381 8.99979 6.41341 8.22314 6.41341L6.95086 6.41341Z" fill="#53208D"/>
<path d="M6.95086 6.41341L6.95086 3.60091L8.22314 3.60091C8.99979 3.60091 9.62939 4.23051 9.62939 5.00716C9.62939 5.78381 8.99979 6.41341 8.22314 6.41341L6.95086 6.41341Z" fill="url(#paint12_linear_14455_14116)"/>
<path d="M6.95086 6.41341L6.95086 3.60091L8.22314 3.60091C8.99979 3.60091 9.62939 4.23051 9.62939 5.00716C9.62939 5.78381 8.99979 6.41341 8.22314 6.41341L6.95086 6.41341Z" fill="url(#paint13_radial_14455_14116)"/>
<g filter="url(#filter9_f_14455_14116)">
<path d="M18.5011 4.47266C19.1782 4.49219 20.5323 4.9375 20.5323 6.5625C20.5323 8.1875 20.5323 11.0938 20.5323 12.3438" stroke="url(#paint14_radial_14455_14116)" stroke-width="0.75"/>
</g>
<path d="M17.3552 3.60091V6.41341H16.0829C15.3062 6.41341 14.6766 5.78381 14.6766 5.00716C14.6766 4.23051 15.3062 3.60091 16.0829 3.60091H17.3552Z" fill="#541B8D"/>
<path d="M17.3552 3.60091V6.41341H16.0829C15.3062 6.41341 14.6766 5.78381 14.6766 5.00716C14.6766 4.23051 15.3062 3.60091 16.0829 3.60091H17.3552Z" fill="url(#paint15_radial_14455_14116)"/>
<path d="M17.3552 3.60091V6.41341H16.0829C15.3062 6.41341 14.6766 5.78381 14.6766 5.00716C14.6766 4.23051 15.3062 3.60091 16.0829 3.60091H17.3552Z" fill="url(#paint16_radial_14455_14116)"/>
<g filter="url(#filter10_f_14455_14116)">
<path d="M5.25891 5.15625C5.02454 5.29948 4.55579 5.76563 4.55579 6.48438C4.55579 7.20312 4.55579 10.9766 4.55579 12.7734" stroke="url(#paint17_linear_14455_14116)" stroke-width="0.75"/>
</g>
<defs>
<filter id="filter0_i_14455_14116" x="2.92676" y="3.10091" width="5.52747" height="12.6803" filterUnits="userSpaceOnUse" color-interpolation-filters="sRGB">
<feFlood flood-opacity="0" result="BackgroundImageFix"/>
<feBlend mode="normal" in="SourceGraphic" in2="BackgroundImageFix" result="shape"/>
<feColorMatrix in="SourceAlpha" type="matrix" values="0 0 0 0 0 0 0 0 0 0 0 0 0 0 0 0 0 0 127 0" result="hardAlpha"/>
<feOffset dx="0.5" dy="-0.5"/>
<feGaussianBlur stdDeviation="0.5"/>
<feComposite in2="hardAlpha" operator="arithmetic" k2="-1" k3="1"/>
<feColorMatrix type="matrix" values="0 0 0 0 0.227451 0 0 0 0 0.490196 0 0 0 0 0.823529 0 0 0 1 0"/>
<feBlend mode="normal" in2="shape" result="effect1_innerShadow_14455_14116"/>
</filter>
<filter id="filter1_i_14455_14116" x="15.8839" y="3.10091" width="6.26965" height="11.3913" filterUnits="userSpaceOnUse" color-interpolation-filters="sRGB">
<feFlood flood-opacity="0" result="BackgroundImageFix"/>
<feBlend mode="normal" in="SourceGraphic" in2="BackgroundImageFix" result="shape"/>
<feColorMatrix in="SourceAlpha" type="matrix" values="0 0 0 0 0 0 0 0 0 0 0 0 0 0 0 0 0 0 127 0" result="hardAlpha"/>
<feOffset dx="0.75" dy="-0.5"/>
<feGaussianBlur stdDeviation="0.375"/>
<feComposite in2="hardAlpha" operator="arithmetic" k2="-1" k3="1"/>
<feColorMatrix type="matrix" values="0 0 0 0 0.192157 0 0 0 0 0.494118 0 0 0 0 0.980392 0 0 0 1 0"/>
<feBlend mode="normal" in2="shape" result="effect1_innerShadow_14455_14116"/>
</filter>
<filter id="filter2_i_14455_14116" x="2.92676" y="13.3398" width="19.2269" height="10.3076" filterUnits="userSpaceOnUse" color-interpolation-filters="sRGB">
<feFlood flood-opacity="0" result="BackgroundImageFix"/>
<feBlend mode="normal" in="SourceGraphic" in2="BackgroundImageFix" result="shape"/>
<feColorMatrix in="SourceAlpha" type="matrix" values="0 0 0 0 0 0 0 0 0 0 0 0 0 0 0 0 0 0 127 0" result="hardAlpha"/>
<feOffset dx="0.75"/>
<feGaussianBlur stdDeviation="0.375"/>
<feComposite in2="hardAlpha" operator="arithmetic" k2="-1" k3="1"/>
<feColorMatrix type="matrix" values="0 0 0 0 0.266667 0 0 0 0 0.172549 0 0 0 0 0.415686 0 0 0 1 0"/>
<feBlend mode="normal" in2="shape" result="effect1_innerShadow_14455_14116"/>
</filter>
<filter id="filter3_i_14455_14116" x="10.7513" y="18.7545" width="25.6971" height="18.6003" filterUnits="userSpaceOnUse" color-interpolation-filters="sRGB">
<feFlood flood-opacity="0" result="BackgroundImageFix"/>
<feBlend mode="normal" in="SourceGraphic" in2="BackgroundImageFix" result="shape"/>
<feColorMatrix in="SourceAlpha" type="matrix" values="0 0 0 0 0 0 0 0 0 0 0 0 0 0 0 0 0 0 127 0" result="hardAlpha"/>
<feOffset dx="0.75" dy="0.4"/>
<feGaussianBlur stdDeviation="0.375"/>
<feComposite in2="hardAlpha" operator="arithmetic" k2="-1" k3="1"/>
<feColorMatrix type="matrix" values="0 0 0 0 0.27451 0 0 0 0 0.168627 0 0 0 0 0.443137 0 0 0 1 0"/>
<feBlend mode="normal" in2="shape" result="effect1_innerShadow_14455_14116"/>
</filter>
<filter id="filter4_f_14455_14116" x="11.7667" y="19.5938" width="21.4922" height="16.5547" filterUnits="userSpaceOnUse" color-interpolation-filters="sRGB">
<feFlood flood-opacity="0" result="BackgroundImageFix"/>
<feBlend mode="normal" in="SourceGraphic" in2="BackgroundImageFix" result="shape"/>
<feGaussianBlur stdDeviation="0.25" result="effect1_foregroundBlur_14455_14116"/>
</filter>
<filter id="filter5_f_14455_14116" x="30.7707" y="19.1451" width="4.93353" height="5.84712" filterUnits="userSpaceOnUse" color-interpolation-filters="sRGB">
<feFlood flood-opacity="0" result="BackgroundImageFix"/>
<feBlend mode="normal" in="SourceGraphic" in2="BackgroundImageFix" result="shape"/>
<feGaussianBlur stdDeviation="0.25" result="effect1_foregroundBlur_14455_14116"/>
</filter>
<filter id="filter6_iii_14455_14116" x="29.9621" y="23.1681" width="8.27697" height="8.27698" filterUnits="userSpaceOnUse" color-interpolation-filters="sRGB">
<feFlood flood-opacity="0" result="BackgroundImageFix"/>
<feBlend mode="normal" in="SourceGraphic" in2="BackgroundImageFix" result="shape"/>
<feColorMatrix in="SourceAlpha" type="matrix" values="0 0 0 0 0 0 0 0 0 0 0 0 0 0 0 0 0 0 127 0" result="hardAlpha"/>
<feOffset dx="-0.1" dy="0.1"/>
<feGaussianBlur stdDeviation="0.05"/>
<feComposite in2="hardAlpha" operator="arithmetic" k2="-1" k3="1"/>
<feColorMatrix type="matrix" values="0 0 0 0 0.32549 0 0 0 0 0.74902 0 0 0 0 1 0 0 0 1 0"/>
<feBlend mode="normal" in2="shape" result="effect1_innerShadow_14455_14116"/>
<feColorMatrix in="SourceAlpha" type="matrix" values="0 0 0 0 0 0 0 0 0 0 0 0 0 0 0 0 0 0 127 0" result="hardAlpha"/>
<feOffset dx="0.1"/>
<feGaussianBlur stdDeviation="0.05"/>
<feComposite in2="hardAlpha" operator="arithmetic" k2="-1" k3="1"/>
<feColorMatrix type="matrix" values="0 0 0 0 0.25098 0 0 0 0 0.384314 0 0 0 0 1 0 0 0 1 0"/>
<feBlend mode="normal" in2="effect1_innerShadow_14455_14116" result="effect2_innerShadow_14455_14116"/>
<feColorMatrix in="SourceAlpha" type="matrix" values="0 0 0 0 0 0 0 0 0 0 0 0 0 0 0 0 0 0 127 0" result="hardAlpha"/>
<feOffset dy="-0.1"/>
<feGaussianBlur stdDeviation="0.05"/>
<feComposite in2="hardAlpha" operator="arithmetic" k2="-1" k3="1"/>
<feColorMatrix type="matrix" values="0 0 0 0 0.301961 0 0 0 0 0.427451 0 0 0 0 0.807843 0 0 0 1 0"/>
<feBlend mode="normal" in2="effect2_innerShadow_14455_14116" result="effect3_innerShadow_14455_14116"/>
</filter>
<filter id="filter7_diii_14455_14116" x="32.0947" y="25.4007" width="3.91184" height="3.91186" filterUnits="userSpaceOnUse" color-interpolation-filters="sRGB">
<feFlood flood-opacity="0" result="BackgroundImageFix"/>
<feColorMatrix in="SourceAlpha" type="matrix" values="0 0 0 0 0 0 0 0 0 0 0 0 0 0 0 0 0 0 127 0" result="hardAlpha"/>
<feOffset dx="-0.05" dy="0.05"/>
<feGaussianBlur stdDeviation="0.1"/>
<feComposite in2="hardAlpha" operator="out"/>
<feColorMatrix type="matrix" values="0 0 0 0 0.180392 0 0 0 0 0.392157 0 0 0 0 1 0 0 0 1 0"/>
<feBlend mode="normal" in2="BackgroundImageFix" result="effect1_dropShadow_14455_14116"/>
<feBlend mode="normal" in="SourceGraphic" in2="effect1_dropShadow_14455_14116" result="shape"/>
<feColorMatrix in="SourceAlpha" type="matrix" values="0 0 0 0 0 0 0 0 0 0 0 0 0 0 0 0 0 0 127 0" result="hardAlpha"/>
<feOffset dx="-0.05" dy="0.05"/>
<feGaussianBlur stdDeviation="0.05"/>
<feComposite in2="hardAlpha" operator="arithmetic" k2="-1" k3="1"/>
<feColorMatrix type="matrix" values="0 0 0 0 0.329412 0 0 0 0 0.592157 0 0 0 0 0.960784 0 0 0 1 0"/>
<feBlend mode="normal" in2="shape" result="effect2_innerShadow_14455_14116"/>
<feColorMatrix in="SourceAlpha" type="matrix" values="0 0 0 0 0 0 0 0 0 0 0 0 0 0 0 0 0 0 127 0" result="hardAlpha"/>
<feOffset dx="0.05" dy="-0.05"/>
<feGaussianBlur stdDeviation="0.05"/>
<feComposite in2="hardAlpha" operator="arithmetic" k2="-1" k3="1"/>
<feColorMatrix type="matrix" values="0 0 0 0 0.117647 0 0 0 0 0.290196 0 0 0 0 0.941176 0 0 0 1 0"/>
<feBlend mode="normal" in2="effect2_innerShadow_14455_14116" result="effect3_innerShadow_14455_14116"/>
<feColorMatrix in="SourceAlpha" type="matrix" values="0 0 0 0 0 0 0 0 0 0 0 0 0 0 0 0 0 0 127 0" result="hardAlpha"/>
<feOffset dx="0.05"/>
<feGaussianBlur stdDeviation="0.05"/>
<feComposite in2="hardAlpha" operator="arithmetic" k2="-1" k3="1"/>
<feColorMatrix type="matrix" values="0 0 0 0 0.117647 0 0 0 0 0.290196 0 0 0 0 0.941176 0 0 0 1 0"/>
<feBlend mode="normal" in2="effect3_innerShadow_14455_14116" result="effect4_innerShadow_14455_14116"/>
</filter>
<filter id="filter8_f_14455_14116" x="3.78992" y="13.2109" width="17.4258" height="9.60262" filterUnits="userSpaceOnUse" color-interpolation-filters="sRGB">
<feFlood flood-opacity="0" result="BackgroundImageFix"/>
<feBlend mode="normal" in="SourceGraphic" in2="BackgroundImageFix" result="shape"/>
<feGaussianBlur stdDeviation="0.25" result="effect1_foregroundBlur_14455_14116"/>
</filter>
<filter id="filter9_f_14455_14116" x="17.9902" y="3.59781" width="3.41711" height="9.24594" filterUnits="userSpaceOnUse" color-interpolation-filters="sRGB">
<feFlood flood-opacity="0" result="BackgroundImageFix"/>
<feBlend mode="normal" in="SourceGraphic" in2="BackgroundImageFix" result="shape"/>
<feGaussianBlur stdDeviation="0.25" result="effect1_foregroundBlur_14455_14116"/>
</filter>
<filter id="filter10_f_14455_14116" x="3.68079" y="4.33627" width="2.27368" height="8.93716" filterUnits="userSpaceOnUse" color-interpolation-filters="sRGB">
<feFlood flood-opacity="0" result="BackgroundImageFix"/>
<feBlend mode="normal" in="SourceGraphic" in2="BackgroundImageFix" result="shape"/>
<feGaussianBlur stdDeviation="0.25" result="effect1_foregroundBlur_14455_14116"/>
</filter>
<linearGradient id="paint0_linear_14455_14116" x1="5.47508" y1="7.08746" x2="5.47508" y2="12.3094" gradientUnits="userSpaceOnUse">
<stop stop-color="#42C5FF"/>
<stop offset="1" stop-color="#58B3FF"/>
</linearGradient>
<radialGradient id="paint1_radial_14455_14116" cx="0" cy="0" r="1" gradientUnits="userSpaceOnUse" gradientTransform="translate(6.9386 6.60157) rotate(-143.807) scale(1.98451 1.17179)">
<stop stop-color="#4984FF"/>
<stop offset="1" stop-color="#4984FF" stop-opacity="0"/>
</radialGradient>
<linearGradient id="paint2_linear_14455_14116" x1="19.3794" y1="7.5" x2="19.3794" y2="13.3398" gradientUnits="userSpaceOnUse">
<stop stop-color="#4BDCFF"/>
<stop offset="1" stop-color="#54A4FF"/>
</linearGradient>
<linearGradient id="paint3_linear_14455_14116" x1="8.10142" y1="19.0198" x2="21.4036" y2="18.8817" gradientUnits="userSpaceOnUse">
<stop stop-color="#5728A8"/>
<stop offset="1" stop-color="#592793"/>
</linearGradient>
<radialGradient id="paint4_radial_14455_14116" cx="0" cy="0" r="1" gradientUnits="userSpaceOnUse" gradientTransform="translate(10.6101 24.2578) rotate(50.3792) scale(13.7429 13.327)">
<stop offset="0.72927" stop-color="#6F52A9"/>
<stop offset="1" stop-color="#6F52A9" stop-opacity="0"/>
</radialGradient>
<radialGradient id="paint5_radial_14455_14116" cx="0" cy="0" r="1" gradientUnits="userSpaceOnUse" gradientTransform="translate(25.3494 24.5312) rotate(114.627) scale(8.50826 8.32583)">
<stop offset="0.195586" stop-color="#6F52A9"/>
<stop offset="1" stop-color="#6F52A9" stop-opacity="0"/>
</radialGradient>
<linearGradient id="paint6_linear_14455_14116" x1="35.1808" y1="23.9453" x2="28.8917" y2="19.4531" gradientUnits="userSpaceOnUse">
<stop offset="0.306694" stop-color="#7A62A0"/>
<stop offset="1" stop-color="#7A62A0" stop-opacity="0"/>
</linearGradient>
<linearGradient id="paint7_linear_14455_14116" x1="38.1391" y1="24.8047" x2="31.0793" y2="30.6641" gradientUnits="userSpaceOnUse">
<stop stop-color="#3595FF"/>
<stop offset="1" stop-color="#3690FF"/>
</linearGradient>
<radialGradient id="paint8_radial_14455_14116" cx="0" cy="0" r="1" gradientUnits="userSpaceOnUse" gradientTransform="translate(35.1223 26.8359) rotate(135) scale(4.86136)">
<stop offset="0.8125" stop-color="#3386FF" stop-opacity="0"/>
<stop offset="0.995789" stop-color="#3386FF"/>
</radialGradient>
<linearGradient id="paint9_linear_14455_14116" x1="36.0793" y1="27.3066" x2="32.3447" y2="27.3066" gradientUnits="userSpaceOnUse">
<stop stop-color="#3677EF"/>
<stop offset="0.89953" stop-color="#3571E6"/>
</linearGradient>
<radialGradient id="paint10_radial_14455_14116" cx="0" cy="0" r="1" gradientUnits="userSpaceOnUse" gradientTransform="translate(4.61486 13.0133) rotate(46.4737) scale(14.2355 8.48037)">
<stop offset="0.49896" stop-color="#7567B7"/>
<stop offset="1" stop-color="#7567B7" stop-opacity="0"/>
</radialGradient>
<radialGradient id="paint11_radial_14455_14116" cx="0" cy="0" r="1" gradientUnits="userSpaceOnUse" gradientTransform="translate(20.8424 13.2894) rotate(113.604) scale(9.71944 6.07771)">
<stop stop-color="#6D4D9B"/>
<stop offset="1" stop-color="#6D4D9B" stop-opacity="0"/>
</radialGradient>
<linearGradient id="paint12_linear_14455_14116" x1="7.75897" y1="3.45704" x2="7.75897" y2="5.56641" gradientUnits="userSpaceOnUse">
<stop stop-color="#483264"/>
<stop offset="1" stop-color="#483264" stop-opacity="0"/>
</linearGradient>
<radialGradient id="paint13_radial_14455_14116" cx="0" cy="0" r="1" gradientUnits="userSpaceOnUse" gradientTransform="translate(9.06757 4.76563) rotate(165.579) scale(1.41166 1.00065)">
<stop stop-color="#705D91"/>
<stop offset="1" stop-color="#705D91" stop-opacity="0"/>
</radialGradient>
<radialGradient id="paint14_radial_14455_14116" cx="0" cy="0" r="1" gradientUnits="userSpaceOnUse" gradientTransform="translate(20.7667 4.80469) rotate(90.3559) scale(6.28918 3.92841)">
<stop stop-color="#65E8FF"/>
<stop offset="1" stop-color="#65E8FF" stop-opacity="0"/>
</radialGradient>
<radialGradient id="paint15_radial_14455_14116" cx="0" cy="0" r="1" gradientUnits="userSpaceOnUse" gradientTransform="translate(17.0077 6.41341) rotate(-134.071) scale(2.72966 3.34134)">
<stop offset="0.335476" stop-color="#3C2B5C" stop-opacity="0"/>
<stop offset="0.967777" stop-color="#3C2B5C"/>
</radialGradient>
<radialGradient id="paint16_radial_14455_14116" cx="0" cy="0" r="1" gradientUnits="userSpaceOnUse" gradientTransform="translate(17.3552 4.62482) rotate(179.45) scale(1.79743 1.02396)">
<stop stop-color="#4F3276"/>
<stop offset="1" stop-color="#4F3276" stop-opacity="0"/>
</radialGradient>
<linearGradient id="paint17_linear_14455_14116" x1="5.25891" y1="0.742188" x2="8.15086" y2="1.55854" gradientUnits="userSpaceOnUse">
<stop stop-color="#65E8FF"/>
<stop offset="1" stop-color="#65E8FF" stop-opacity="0"/>
</linearGradient>
</defs>
</svg>
