<svg width="34" height="34" viewBox="0 0 34 34" fill="none" xmlns="http://www.w3.org/2000/svg">
<g clip-path="url(#clip0_14913_14164)">
<path d="M14.6176 34C11.8196 34 9.5433 31.7237 9.5433 28.9257V20.1706C9.5433 19.5877 10.0159 19.1151 10.5989 19.1151C11.1819 19.1151 11.6545 19.5877 11.6545 20.1706V28.9257C11.6545 30.5596 12.9837 31.8888 14.6175 31.8888C16.2513 31.8888 17.5806 30.5595 17.5806 28.9257V26.8141C17.5806 23.7359 20.0848 21.2317 23.163 21.2317H28.2384C28.8214 21.2317 29.294 21.7043 29.294 22.2873C29.294 22.8703 28.8214 23.3429 28.2384 23.3429H23.163C21.249 23.3429 19.6918 24.9 19.6918 26.8141V28.9257C19.6919 31.7237 17.4156 34 14.6176 34Z" fill="#BE1729"/>
<path d="M28.3007 21.2348C28.327 21.3274 28.3404 21.4231 28.3406 21.5193C28.3406 22.1023 27.868 22.5749 27.285 22.5749H22.2097C20.2957 22.5749 18.7385 24.132 18.7385 26.0461V28.1577C18.7385 30.9557 16.4622 33.232 13.6642 33.232C12.6819 33.232 11.7645 32.9506 10.9867 32.4654C11.9089 33.4112 13.1954 34 14.6176 34C17.4156 34 19.6919 31.7237 19.6919 28.9257V26.8141C19.6919 24.9 21.249 23.3429 23.1631 23.3429H28.2384C28.8214 23.3429 29.294 22.8703 29.294 22.2873C29.294 21.7253 28.8546 21.2672 28.3007 21.2348Z" fill="#DF1D32"/>
<path d="M29.3143 26.5633C31.6369 26.5633 33.5197 24.6804 33.5197 22.3578C33.5197 20.0352 31.6369 18.1524 29.3143 18.1524C26.9917 18.1524 25.1089 20.0352 25.1089 22.3578C25.1089 24.6804 26.9917 26.5633 29.3143 26.5633Z" fill="#AB9FAA"/>
<path d="M31.5534 18.7987C31.7254 19.265 31.8132 19.7581 31.8127 20.2551C31.8127 22.5777 29.9299 24.4605 27.6072 24.4605C26.8147 24.4615 26.0383 24.2374 25.3682 23.8143C25.9606 25.419 27.5037 26.5633 29.3143 26.5633C31.6369 26.5633 33.5197 24.6805 33.5197 22.3579C33.5197 20.8585 32.7345 19.5433 31.5534 18.7987Z" fill="#928392"/>
<path d="M29.3143 24.4606C30.4756 24.4606 31.4171 23.5192 31.4171 22.3579C31.4171 21.1965 30.4756 20.2551 29.3143 20.2551C28.153 20.2551 27.2115 21.1965 27.2115 22.3579C27.2115 23.5192 28.153 24.4606 29.3143 24.4606Z" fill="#D8D1D7"/>
<path d="M30.1452 20.426C30.2746 20.7036 30.3415 21.0062 30.3412 21.3126C30.3412 22.4739 29.3997 23.4153 28.2384 23.4153C27.9433 23.4153 27.6625 23.3543 27.4076 23.2444C27.7421 23.9626 28.4698 24.4606 29.3143 24.4606C30.4756 24.4606 31.417 23.5192 31.417 22.3579C31.417 21.4917 30.8932 20.7481 30.1452 20.426Z" fill="#CAC0C9"/>
<path d="M10.5989 20.5662C7.19577 20.5662 4.19925 18.2716 3.31206 14.986L0.588809 4.9015C0.336133 3.96577 0.529176 2.9878 1.11847 2.21835C1.70775 1.4489 2.60152 1.00757 3.57078 1.00757H6.05145C6.33361 1.00757 6.56225 1.23627 6.56225 1.51837C6.56225 1.80046 6.33361 2.02916 6.05145 2.02916H3.57072C2.92206 2.02916 2.32381 2.32454 1.92948 2.83952C1.5351 3.3545 1.40587 4.00906 1.57494 4.63528L4.29826 14.7198C5.06545 17.5606 7.65629 19.5447 10.5989 19.5447C13.5415 19.5447 16.1325 17.5606 16.8996 14.7198L19.6228 4.63528C19.7919 4.00906 19.6627 3.3545 19.2684 2.83952C18.874 2.32454 18.2758 2.02916 17.6271 2.02916H15.1465C14.8643 2.02916 14.6357 1.80046 14.6357 1.51837C14.6357 1.23627 14.8643 1.00757 15.1465 1.00757H17.6271C18.5963 1.00757 19.4902 1.4489 20.0794 2.21842C20.6687 2.98794 20.8618 3.9659 20.609 4.90156L17.8858 14.9861C16.9986 18.2715 14.0021 20.5662 10.5989 20.5662Z" fill="#928392"/>
<path d="M10.5989 21.111C6.95006 21.111 3.73732 18.6507 2.78605 15.1281L2.4426 13.8562C2.29059 13.2933 2.62362 12.7139 3.18648 12.5619C3.74947 12.41 4.3288 12.743 4.4808 13.3058L4.82426 14.5776C5.52737 17.1814 7.90199 18.9998 10.5989 18.9998C13.2958 18.9998 15.6705 17.1814 16.3736 14.5776L16.717 13.3058C16.869 12.743 17.4484 12.4097 18.0113 12.5619C18.5741 12.7138 18.9072 13.2933 18.7552 13.8562L18.4118 15.1281C17.4606 18.6508 14.2478 21.111 10.5989 21.111Z" fill="#BE1729"/>
<path d="M18.1728 12.6212C18.1858 12.7484 18.1755 12.8769 18.1424 13.0004L17.7989 14.2722C16.8477 17.7949 13.6349 20.2552 9.98603 20.2552C7.50263 20.2552 5.22204 19.1148 3.71814 17.2762C5.16646 19.6109 7.74973 21.1111 10.599 21.1111C14.2478 21.1111 17.4606 18.6508 18.4118 15.1282L18.7553 13.8563C18.892 13.3498 18.6354 12.831 18.1728 12.6212Z" fill="#DF1D32"/>
<path d="M6.09203 3.04154C6.93193 3.04154 7.6128 2.36067 7.6128 1.52077C7.6128 0.680872 6.93193 0 6.09203 0C5.25213 0 4.57126 0.680872 4.57126 1.52077C4.57126 2.36067 5.25213 3.04154 6.09203 3.04154Z" fill="#BBB0BA"/>
<path d="M6.54246 0.0678711C6.70793 0.316724 6.79602 0.609 6.7956 0.907844C6.7956 1.74775 6.11474 2.42861 5.27484 2.42861C5.11805 2.42861 4.96678 2.40484 4.8244 2.36075C5.0968 2.771 5.56271 3.04154 6.09203 3.04154C6.93194 3.04154 7.6128 2.36068 7.6128 1.52077C7.6128 0.837719 7.16243 0.259852 6.54246 0.0678711Z" fill="#AB9FAA"/>
<path d="M14.9456 3.04154C15.7855 3.04154 16.4664 2.36067 16.4664 1.52077C16.4664 0.680872 15.7855 0 14.9456 0C14.1057 0 13.4249 0.680872 13.4249 1.52077C13.4249 2.36067 14.1057 3.04154 14.9456 3.04154Z" fill="#BBB0BA"/>
<path d="M15.396 0.0678711C15.5615 0.316724 15.6496 0.609 15.6492 0.907844C15.6492 1.74775 14.9683 2.42861 14.1284 2.42861C13.9716 2.42861 13.8203 2.40484 13.6779 2.36075C13.9503 2.771 14.4163 3.04154 14.9456 3.04154C15.7855 3.04154 16.4663 2.36068 16.4663 1.52077C16.4664 0.837719 16.016 0.259852 15.396 0.0678711Z" fill="#AB9FAA"/>
</g>
<defs>
<clipPath id="clip0_14913_14164">
<rect width="34" height="34" fill="white"/>
</clipPath>
</defs>
</svg>
