<svg width="41" height="40" viewBox="0 0 41 40" fill="none" xmlns="http://www.w3.org/2000/svg">
<g filter="url(#filter0_i_14455_13059)">
<path d="M3.68848 8.30286C3.68848 6.07629 4.792 4.04504 5.6709 3.35168L16.5889 14.0548C16.1201 14.6798 15.0947 15.3439 13.874 15.9103C13.2002 16.3204 12.5166 17.1115 13.0342 18.4396C16.0029 23.5665 21.0225 27.1017 22.3115 27.3751C23.2404 27.5721 24.04 27.1993 24.5772 25.8712C25.1729 24.6798 25.8662 23.84 26.2764 23.4689L37.3115 34.4161C36.6605 35.2755 34.8896 36.8185 31.6084 36.6329C25.1045 36.4962 17.2139 34.2697 10.8662 27.3751C4.14746 19.797 3.68847 11.1154 3.68848 8.30286Z" fill="url(#paint0_linear_14455_13059)"/>
<path d="M3.68848 8.30286C3.68848 6.07629 4.792 4.04504 5.6709 3.35168L16.5889 14.0548C16.1201 14.6798 15.0947 15.3439 13.874 15.9103C13.2002 16.3204 12.5166 17.1115 13.0342 18.4396C16.0029 23.5665 21.0225 27.1017 22.3115 27.3751C23.2404 27.5721 24.04 27.1993 24.5772 25.8712C25.1729 24.6798 25.8662 23.84 26.2764 23.4689L37.3115 34.4161C36.6605 35.2755 34.8896 36.8185 31.6084 36.6329C25.1045 36.4962 17.2139 34.2697 10.8662 27.3751C4.14746 19.797 3.68847 11.1154 3.68848 8.30286Z" fill="url(#paint1_radial_14455_13059)"/>
</g>
<g filter="url(#filter1_f_14455_13059)">
<path d="M6.09649 3.98269C6.13007 3.95265 6.1634 3.92456 6.19637 3.89856L16.1787 13.6811C15.0645 14.3878 13.7429 14.797 12.3257 14.797C8.34833 14.797 5.12402 11.5738 5.12402 7.59779C5.12402 6.28012 5.47817 5.04511 6.09649 3.98269Z" fill="url(#paint2_radial_14455_13059)"/>
</g>
<g filter="url(#filter2_f_14455_13059)">
<path d="M26.5107 24.6407C26.678 24.4399 26.8296 24.281 26.9538 24.1677L36.999 34.2376C36.9675 34.2796 36.9332 34.3232 36.8961 34.3682C35.621 35.3829 34.0106 35.9884 32.2598 35.9884C28.1247 35.9884 24.7725 32.6103 24.7725 28.4432C24.7725 26.8766 25.6996 25.8468 26.5107 24.6407Z" fill="url(#paint3_radial_14455_13059)"/>
<path d="M26.5107 24.6407C26.678 24.4399 26.8296 24.281 26.9538 24.1677L36.999 34.2376C36.9675 34.2796 36.9332 34.3232 36.8961 34.3682C35.621 35.3829 34.0106 35.9884 32.2598 35.9884C28.1247 35.9884 24.7725 32.6103 24.7725 28.4432C24.7725 26.8766 25.6996 25.8468 26.5107 24.6407Z" fill="url(#paint4_radial_14455_13059)"/>
<path d="M26.5107 24.6407C26.678 24.4399 26.8296 24.281 26.9538 24.1677L36.999 34.2376C36.9675 34.2796 36.9332 34.3232 36.8961 34.3682C35.621 35.3829 34.0106 35.9884 32.2598 35.9884C28.1247 35.9884 24.7725 32.6103 24.7725 28.4432C24.7725 26.8766 25.6996 25.8468 26.5107 24.6407Z" fill="url(#paint5_radial_14455_13059)"/>
</g>
<g filter="url(#filter3_i_14455_13059)">
<path d="M6.16504 2.52547C7.01932 1.6712 8.40436 1.6712 9.25863 2.52547L17.3369 10.6038C18.1912 11.458 18.1912 12.8431 17.3369 13.6973L16.7373 14.297C16.542 14.4923 16.2254 14.4923 16.0302 14.297L5.56539 3.83223C5.37013 3.63696 5.37013 3.32038 5.56539 3.12512L6.16504 2.52547Z" fill="url(#paint6_radial_14455_13059)"/>
<path d="M6.16504 2.52547C7.01932 1.6712 8.40436 1.6712 9.25863 2.52547L17.3369 10.6038C18.1912 11.458 18.1912 12.8431 17.3369 13.6973L16.7373 14.297C16.542 14.4923 16.2254 14.4923 16.0302 14.297L5.56539 3.83223C5.37013 3.63696 5.37013 3.32038 5.56539 3.12512L6.16504 2.52547Z" fill="url(#paint7_radial_14455_13059)"/>
<path d="M6.16504 2.52547C7.01932 1.6712 8.40436 1.6712 9.25863 2.52547L17.3369 10.6038C18.1912 11.458 18.1912 12.8431 17.3369 13.6973L16.7373 14.297C16.542 14.4923 16.2254 14.4923 16.0302 14.297L5.56539 3.83223C5.37013 3.63696 5.37013 3.32038 5.56539 3.12512L6.16504 2.52547Z" fill="url(#paint8_radial_14455_13059)"/>
</g>
<g filter="url(#filter4_i_14455_13059)">
<path d="M26.552 22.9612C27.4063 22.1069 28.6951 22.1509 29.6456 22.9612C30.837 23.9768 37.0479 30.1877 37.835 31.1503C38.6221 32.113 38.6893 33.3897 37.835 34.2439L37.2354 34.8436C37.0401 35.0388 36.7235 35.0388 36.5283 34.8436L25.9524 24.2679C25.7571 24.0727 25.7571 23.7561 25.9524 23.5608L26.552 22.9612Z" fill="url(#paint9_radial_14455_13059)"/>
<path d="M26.552 22.9612C27.4063 22.1069 28.6951 22.1509 29.6456 22.9612C30.837 23.9768 37.0479 30.1877 37.835 31.1503C38.6221 32.113 38.6893 33.3897 37.835 34.2439L37.2354 34.8436C37.0401 35.0388 36.7235 35.0388 36.5283 34.8436L25.9524 24.2679C25.7571 24.0727 25.7571 23.7561 25.9524 23.5608L26.552 22.9612Z" fill="url(#paint10_radial_14455_13059)"/>
</g>
<g filter="url(#filter5_f_14455_13059)">
<path d="M13.9131 25.4122C9.927 21.6571 9.08236 18.0945 8.60059 16.4279H11.2178C11.1917 16.9487 12.1398 20.2805 14.5381 22.795C19.5771 28.0782 23.4834 29.9663 25.2021 30.5782C23.3271 30.422 19.8115 30.9689 13.9131 25.4122Z" fill="url(#paint11_linear_14455_13059)"/>
</g>
<defs>
<filter id="filter0_i_14455_13059" x="3.68848" y="3.35168" width="34.623" height="33.2966" filterUnits="userSpaceOnUse" color-interpolation-filters="sRGB">
<feFlood flood-opacity="0" result="BackgroundImageFix"/>
<feBlend mode="normal" in="SourceGraphic" in2="BackgroundImageFix" result="shape"/>
<feColorMatrix in="SourceAlpha" type="matrix" values="0 0 0 0 0 0 0 0 0 0 0 0 0 0 0 0 0 0 127 0" result="hardAlpha"/>
<feOffset dx="1"/>
<feGaussianBlur stdDeviation="1"/>
<feComposite in2="hardAlpha" operator="arithmetic" k2="-1" k3="1"/>
<feColorMatrix type="matrix" values="0 0 0 0 0.827451 0 0 0 0 0.317647 0 0 0 0 0.313726 0 0 0 1 0"/>
<feBlend mode="normal" in2="shape" result="effect1_innerShadow_14455_13059"/>
</filter>
<filter id="filter1_f_14455_13059" x="4.12402" y="2.89856" width="13.0547" height="12.8984" filterUnits="userSpaceOnUse" color-interpolation-filters="sRGB">
<feFlood flood-opacity="0" result="BackgroundImageFix"/>
<feBlend mode="normal" in="SourceGraphic" in2="BackgroundImageFix" result="shape"/>
<feGaussianBlur stdDeviation="0.5" result="effect1_foregroundBlur_14455_13059"/>
</filter>
<filter id="filter2_f_14455_13059" x="23.7725" y="23.1677" width="14.2266" height="13.8207" filterUnits="userSpaceOnUse" color-interpolation-filters="sRGB">
<feFlood flood-opacity="0" result="BackgroundImageFix"/>
<feBlend mode="normal" in="SourceGraphic" in2="BackgroundImageFix" result="shape"/>
<feGaussianBlur stdDeviation="0.5" result="effect1_foregroundBlur_14455_13059"/>
</filter>
<filter id="filter3_i_14455_13059" x="5.41895" y="1.73477" width="12.7086" height="12.7087" filterUnits="userSpaceOnUse" color-interpolation-filters="sRGB">
<feFlood flood-opacity="0" result="BackgroundImageFix"/>
<feBlend mode="normal" in="SourceGraphic" in2="BackgroundImageFix" result="shape"/>
<feColorMatrix in="SourceAlpha" type="matrix" values="0 0 0 0 0 0 0 0 0 0 0 0 0 0 0 0 0 0 127 0" result="hardAlpha"/>
<feOffset dx="0.15" dy="-0.15"/>
<feGaussianBlur stdDeviation="0.4"/>
<feComposite in2="hardAlpha" operator="arithmetic" k2="-1" k3="1"/>
<feColorMatrix type="matrix" values="0 0 0 0 0.623529 0 0 0 0 0.321569 0 0 0 0 0.47451 0 0 0 1 0"/>
<feBlend mode="normal" in2="shape" result="effect1_innerShadow_14455_13059"/>
</filter>
<filter id="filter4_i_14455_13059" x="25.8059" y="22.1869" width="12.7948" height="12.8032" filterUnits="userSpaceOnUse" color-interpolation-filters="sRGB">
<feFlood flood-opacity="0" result="BackgroundImageFix"/>
<feBlend mode="normal" in="SourceGraphic" in2="BackgroundImageFix" result="shape"/>
<feColorMatrix in="SourceAlpha" type="matrix" values="0 0 0 0 0 0 0 0 0 0 0 0 0 0 0 0 0 0 127 0" result="hardAlpha"/>
<feOffset dx="0.15" dy="-0.15"/>
<feGaussianBlur stdDeviation="0.4"/>
<feComposite in2="hardAlpha" operator="arithmetic" k2="-1" k3="1"/>
<feColorMatrix type="matrix" values="0 0 0 0 0.623529 0 0 0 0 0.321569 0 0 0 0 0.47451 0 0 0 1 0"/>
<feBlend mode="normal" in2="shape" result="effect1_innerShadow_14455_13059"/>
</filter>
<filter id="filter5_f_14455_13059" x="6.85059" y="14.6779" width="20.1016" height="17.6504" filterUnits="userSpaceOnUse" color-interpolation-filters="sRGB">
<feFlood flood-opacity="0" result="BackgroundImageFix"/>
<feBlend mode="normal" in="SourceGraphic" in2="BackgroundImageFix" result="shape"/>
<feGaussianBlur stdDeviation="0.875" result="effect1_foregroundBlur_14455_13059"/>
</filter>
<linearGradient id="paint0_linear_14455_13059" x1="-0.305665" y1="8.03918" x2="29.0693" y2="35.6954" gradientUnits="userSpaceOnUse">
<stop stop-color="#E12D3E"/>
<stop offset="1" stop-color="#E821A1"/>
</linearGradient>
<radialGradient id="paint1_radial_14455_13059" cx="0" cy="0" r="1" gradientUnits="userSpaceOnUse" gradientTransform="translate(27.9756 12.1017) rotate(92.8535) scale(25.1093 45.4704)">
<stop offset="0.792433" stop-color="#D43EB0" stop-opacity="0"/>
<stop offset="1" stop-color="#D43EB0"/>
</radialGradient>
<radialGradient id="paint2_radial_14455_13059" cx="0" cy="0" r="1" gradientUnits="userSpaceOnUse" gradientTransform="translate(13.4526 10.9021) rotate(131.057) scale(4.26487 7.10553)">
<stop offset="0.200051" stop-color="#F52958"/>
<stop offset="1" stop-color="#DB2148"/>
</radialGradient>
<radialGradient id="paint3_radial_14455_13059" cx="0" cy="0" r="1" gradientUnits="userSpaceOnUse" gradientTransform="translate(33.2456 30.0713) rotate(132.154) scale(5.75886 8.86974)">
<stop offset="0.292708" stop-color="#FB29AB"/>
<stop offset="1" stop-color="#FB29AB" stop-opacity="0"/>
</radialGradient>
<radialGradient id="paint4_radial_14455_13059" cx="0" cy="0" r="1" gradientUnits="userSpaceOnUse" gradientTransform="translate(31.2016 27.7494) rotate(111.493) scale(7.95209 10.9369)">
<stop offset="0.580924" stop-color="#D82BA8" stop-opacity="0"/>
<stop offset="0.944551" stop-color="#D531AA"/>
</radialGradient>
<radialGradient id="paint5_radial_14455_13059" cx="0" cy="0" r="1" gradientUnits="userSpaceOnUse" gradientTransform="translate(26.482 24.2666) rotate(114.776) scale(5.32078 3.45896)">
<stop stop-color="#CE4B6E"/>
<stop offset="1" stop-color="#CE4B6E" stop-opacity="0"/>
</radialGradient>
<radialGradient id="paint6_radial_14455_13059" cx="0" cy="0" r="1" gradientUnits="userSpaceOnUse" gradientTransform="translate(13.2382 6.22634) rotate(132.416) scale(4.83148 9.52156)">
<stop stop-color="#C8439B"/>
<stop offset="1" stop-color="#B73098"/>
</radialGradient>
<radialGradient id="paint7_radial_14455_13059" cx="0" cy="0" r="1" gradientUnits="userSpaceOnUse" gradientTransform="translate(13.7568 8.1641) rotate(137.661) scale(1.90248 8.23122)">
<stop offset="0.144" stop-color="#DD6CB6"/>
<stop offset="1" stop-color="#DB69B6" stop-opacity="0"/>
</radialGradient>
<radialGradient id="paint8_radial_14455_13059" cx="0" cy="0" r="1" gradientUnits="userSpaceOnUse" gradientTransform="translate(14.0302 6.00796) rotate(-171.232) scale(8.71307 14.6244)">
<stop offset="0.577636" stop-color="#A35479" stop-opacity="0"/>
<stop offset="0.962193" stop-color="#A35479"/>
</radialGradient>
<radialGradient id="paint9_radial_14455_13059" cx="0" cy="0" r="1" gradientUnits="userSpaceOnUse" gradientTransform="translate(33.6788 26.7111) rotate(132.397) scale(4.86638 9.58978)">
<stop stop-color="#BD3995"/>
<stop offset="1" stop-color="#AC3BA4"/>
</radialGradient>
<radialGradient id="paint10_radial_14455_13059" cx="0" cy="0" r="1" gradientUnits="userSpaceOnUse" gradientTransform="translate(33.5225 28.6634) rotate(137.226) scale(1.89934 6.40769)">
<stop stop-color="#DB69B6"/>
<stop offset="1" stop-color="#DB69B6" stop-opacity="0"/>
</radialGradient>
<linearGradient id="paint11_linear_14455_13059" x1="9.92871" y1="16.3107" x2="19.46" y2="27.756" gradientUnits="userSpaceOnUse">
<stop stop-color="#FF6670"/>
<stop offset="1" stop-color="#FF5693"/>
</linearGradient>
</defs>
</svg>
