<svg width="41" height="40" viewBox="0 0 41 40" fill="none" xmlns="http://www.w3.org/2000/svg">
<g filter="url(#filter0_i_14455_12750)">
<path d="M24.8066 17.588V10.6349C24.8066 7.17232 27.5655 4.36536 30.9687 4.36536C34.372 4.36536 37.1309 7.17232 37.1309 10.6349V11.9922" stroke="#C2C2C6" stroke-width="2.75" stroke-linecap="round"/>
</g>
<path d="M24.8066 17.588V10.6349C24.8066 7.17232 27.5655 4.36536 30.9687 4.36536C34.372 4.36536 37.1309 7.17232 37.1309 10.6349V11.9922" stroke="url(#paint0_radial_14455_12750)" stroke-width="2.75" stroke-linecap="round"/>
<path d="M24.8066 17.588V10.6349C24.8066 7.17232 27.5655 4.36536 30.9687 4.36536C34.372 4.36536 37.1309 7.17232 37.1309 10.6349V11.9922" stroke="url(#paint1_radial_14455_12750)" stroke-width="2.75" stroke-linecap="round"/>
<g filter="url(#filter1_f_14455_12750)">
<path d="M25.3535 17.1974V10.2443C25.3535 6.7817 28.1124 3.97473 31.5156 3.97473C34.9189 3.97473 37.6777 6.7817 37.6777 10.2443V11.6016" stroke="url(#paint2_radial_14455_12750)" stroke-linecap="round"/>
<path d="M25.3535 17.1974V10.2443C25.3535 6.7817 28.1124 3.97473 31.5156 3.97473C34.9189 3.97473 37.6777 6.7817 37.6777 10.2443V11.6016" stroke="url(#paint3_radial_14455_12750)" stroke-linecap="round"/>
</g>
<g filter="url(#filter2_iiii_14455_12750)">
<rect x="3.54688" y="13.8185" width="27.4219" height="23.5547" rx="3" fill="url(#paint4_linear_14455_12750)"/>
</g>
<rect x="3.54688" y="13.8185" width="27.4219" height="23.5547" rx="3" fill="url(#paint5_radial_14455_12750)"/>
<rect x="3.54688" y="13.8185" width="27.4219" height="23.5547" rx="3" fill="url(#paint6_linear_14455_12750)"/>
<rect x="3.54688" y="13.8185" width="27.4219" height="23.5547" rx="3" fill="url(#paint7_radial_14455_12750)"/>
<g filter="url(#filter3_f_14455_12750)">
<path d="M19.0059 25.4894C19.9048 24.9092 20.5 23.8986 20.5 22.749C20.5 20.949 19.0408 19.4897 17.2407 19.4897C15.4406 19.4897 13.9814 20.949 13.9814 22.749C13.9814 23.9131 14.5917 24.9347 15.5098 25.5112V29.6289C15.5098 30.5944 16.2924 31.377 17.2578 31.377C18.2232 31.377 19.0059 30.5944 19.0059 29.6289V25.4894Z" stroke="url(#paint8_linear_14455_12750)" stroke-width="1.75"/>
<path d="M19.0059 25.4894C19.9048 24.9092 20.5 23.8986 20.5 22.749C20.5 20.949 19.0408 19.4897 17.2407 19.4897C15.4406 19.4897 13.9814 20.949 13.9814 22.749C13.9814 23.9131 14.5917 24.9347 15.5098 25.5112V29.6289C15.5098 30.5944 16.2924 31.377 17.2578 31.377C18.2232 31.377 19.0059 30.5944 19.0059 29.6289V25.4894Z" stroke="url(#paint9_linear_14455_12750)" stroke-width="1.75"/>
</g>
<path d="M19.0059 25.4894C19.9048 24.9092 20.5 23.8986 20.5 22.749C20.5 20.949 19.0408 19.4897 17.2407 19.4897C15.4406 19.4897 13.9814 20.949 13.9814 22.749C13.9814 23.9131 14.5917 24.9347 15.5098 25.5112V29.6289C15.5098 30.5944 16.2924 31.377 17.2578 31.377C18.2232 31.377 19.0059 30.5944 19.0059 29.6289V25.4894Z" fill="url(#paint10_radial_14455_12750)"/>
<defs>
<filter id="filter0_i_14455_12750" x="23.4316" y="2.99036" width="16.0742" height="15.9727" filterUnits="userSpaceOnUse" color-interpolation-filters="sRGB">
<feFlood flood-opacity="0" result="BackgroundImageFix"/>
<feBlend mode="normal" in="SourceGraphic" in2="BackgroundImageFix" result="shape"/>
<feColorMatrix in="SourceAlpha" type="matrix" values="0 0 0 0 0 0 0 0 0 0 0 0 0 0 0 0 0 0 127 0" result="hardAlpha"/>
<feOffset dx="1"/>
<feGaussianBlur stdDeviation="0.5"/>
<feComposite in2="hardAlpha" operator="arithmetic" k2="-1" k3="1"/>
<feColorMatrix type="matrix" values="0 0 0 0 0.560784 0 0 0 0 0.556863 0 0 0 0 0.576471 0 0 0 1 0"/>
<feBlend mode="normal" in2="shape" result="effect1_innerShadow_14455_12750"/>
</filter>
<filter id="filter1_f_14455_12750" x="24.1035" y="2.72473" width="14.8242" height="15.7227" filterUnits="userSpaceOnUse" color-interpolation-filters="sRGB">
<feFlood flood-opacity="0" result="BackgroundImageFix"/>
<feBlend mode="normal" in="SourceGraphic" in2="BackgroundImageFix" result="shape"/>
<feGaussianBlur stdDeviation="0.375" result="effect1_foregroundBlur_14455_12750"/>
</filter>
<filter id="filter2_iiii_14455_12750" x="2.79688" y="13.0685" width="28.9219" height="25.0547" filterUnits="userSpaceOnUse" color-interpolation-filters="sRGB">
<feFlood flood-opacity="0" result="BackgroundImageFix"/>
<feBlend mode="normal" in="SourceGraphic" in2="BackgroundImageFix" result="shape"/>
<feColorMatrix in="SourceAlpha" type="matrix" values="0 0 0 0 0 0 0 0 0 0 0 0 0 0 0 0 0 0 127 0" result="hardAlpha"/>
<feOffset dy="-0.75"/>
<feGaussianBlur stdDeviation="0.375"/>
<feComposite in2="hardAlpha" operator="arithmetic" k2="-1" k3="1"/>
<feColorMatrix type="matrix" values="0 0 0 0 0.898039 0 0 0 0 0.364706 0 0 0 0 0.423529 0 0 0 1 0"/>
<feBlend mode="normal" in2="shape" result="effect1_innerShadow_14455_12750"/>
<feColorMatrix in="SourceAlpha" type="matrix" values="0 0 0 0 0 0 0 0 0 0 0 0 0 0 0 0 0 0 127 0" result="hardAlpha"/>
<feOffset dx="-1"/>
<feGaussianBlur stdDeviation="0.375"/>
<feComposite in2="hardAlpha" operator="arithmetic" k2="-1" k3="1"/>
<feColorMatrix type="matrix" values="0 0 0 0 1 0 0 0 0 0.772549 0 0 0 0 0.364706 0 0 0 1 0"/>
<feBlend mode="normal" in2="effect1_innerShadow_14455_12750" result="effect2_innerShadow_14455_12750"/>
<feColorMatrix in="SourceAlpha" type="matrix" values="0 0 0 0 0 0 0 0 0 0 0 0 0 0 0 0 0 0 127 0" result="hardAlpha"/>
<feOffset dy="1"/>
<feGaussianBlur stdDeviation="0.375"/>
<feComposite in2="hardAlpha" operator="arithmetic" k2="-1" k3="1"/>
<feColorMatrix type="matrix" values="0 0 0 0 1 0 0 0 0 0.843137 0 0 0 0 0.266667 0 0 0 1 0"/>
<feBlend mode="normal" in2="effect2_innerShadow_14455_12750" result="effect3_innerShadow_14455_12750"/>
<feColorMatrix in="SourceAlpha" type="matrix" values="0 0 0 0 0 0 0 0 0 0 0 0 0 0 0 0 0 0 127 0" result="hardAlpha"/>
<feOffset dx="0.75"/>
<feGaussianBlur stdDeviation="0.375"/>
<feComposite in2="hardAlpha" operator="arithmetic" k2="-1" k3="1"/>
<feColorMatrix type="matrix" values="0 0 0 0 0.729412 0 0 0 0 0.478431 0 0 0 0 0.207843 0 0 0 1 0"/>
<feBlend mode="normal" in2="effect3_innerShadow_14455_12750" result="effect4_innerShadow_14455_12750"/>
</filter>
<filter id="filter3_f_14455_12750" x="12.6064" y="18.1147" width="9.26855" height="14.6372" filterUnits="userSpaceOnUse" color-interpolation-filters="sRGB">
<feFlood flood-opacity="0" result="BackgroundImageFix"/>
<feBlend mode="normal" in="SourceGraphic" in2="BackgroundImageFix" result="shape"/>
<feGaussianBlur stdDeviation="0.25" result="effect1_foregroundBlur_14455_12750"/>
</filter>
<radialGradient id="paint0_radial_14455_12750" cx="0" cy="0" r="1" gradientUnits="userSpaceOnUse" gradientTransform="translate(31.1641 10.1954) rotate(-91.6531) scale(6.77032 7.26543)">
<stop offset="0.556487" stop-color="#AB83C0"/>
<stop offset="1" stop-color="#CBBBDC" stop-opacity="0"/>
</radialGradient>
<radialGradient id="paint1_radial_14455_12750" cx="0" cy="0" r="1" gradientUnits="userSpaceOnUse" gradientTransform="translate(37.1309 14.2579) rotate(-90) scale(2.77344 11.0155)">
<stop offset="0.110772" stop-color="#B57FD6"/>
<stop offset="1" stop-color="#B57FD6" stop-opacity="0"/>
</radialGradient>
<radialGradient id="paint2_radial_14455_12750" cx="0" cy="0" r="1" gradientUnits="userSpaceOnUse" gradientTransform="translate(38.0451 5.67236) rotate(136.625) scale(6.31709 8.67944)">
<stop offset="0.215771" stop-color="#EDECF3"/>
<stop offset="1" stop-color="#EDECF3" stop-opacity="0"/>
</radialGradient>
<radialGradient id="paint3_radial_14455_12750" cx="0" cy="0" r="1" gradientUnits="userSpaceOnUse" gradientTransform="translate(23.8984 21.0157) rotate(-80.1017) scale(11.8165 8.5286)">
<stop stop-color="#EDECF3"/>
<stop offset="1" stop-color="#EDECF3" stop-opacity="0"/>
</radialGradient>
<linearGradient id="paint4_linear_14455_12750" x1="9.95312" y1="17.6466" x2="18.625" y2="37.3732" gradientUnits="userSpaceOnUse">
<stop stop-color="#FFC74E"/>
<stop offset="1" stop-color="#F7864E"/>
</linearGradient>
<radialGradient id="paint5_radial_14455_12750" cx="0" cy="0" r="1" gradientUnits="userSpaceOnUse" gradientTransform="translate(30.2656 37.3732) rotate(-132.274) scale(4.06494 9.46997)">
<stop stop-color="#FF8650"/>
<stop offset="1" stop-color="#FF8650" stop-opacity="0"/>
</radialGradient>
<linearGradient id="paint6_linear_14455_12750" x1="17.2578" y1="13.4279" x2="17.2578" y2="15.3029" gradientUnits="userSpaceOnUse">
<stop stop-color="#F3D04E"/>
<stop offset="1" stop-color="#F3D04E" stop-opacity="0"/>
</linearGradient>
<radialGradient id="paint7_radial_14455_12750" cx="0" cy="0" r="1" gradientUnits="userSpaceOnUse" gradientTransform="translate(30.5781 13.8185) rotate(126.254) scale(2.90642 6.56464)">
<stop stop-color="#FFF760"/>
<stop offset="1" stop-color="#FFF760" stop-opacity="0"/>
</radialGradient>
<linearGradient id="paint8_linear_14455_12750" x1="21.1641" y1="27.0996" x2="16.3203" y2="27.0996" gradientUnits="userSpaceOnUse">
<stop offset="0.330645" stop-color="#D98A40"/>
<stop offset="1" stop-color="#D98A40" stop-opacity="0"/>
</linearGradient>
<linearGradient id="paint9_linear_14455_12750" x1="13.3516" y1="25.9278" x2="16.75" y2="25.9278" gradientUnits="userSpaceOnUse">
<stop stop-color="#FFCD63"/>
<stop offset="1" stop-color="#FFCD63" stop-opacity="0"/>
</linearGradient>
<radialGradient id="paint10_radial_14455_12750" cx="0" cy="0" r="1" gradientUnits="userSpaceOnUse" gradientTransform="translate(13.9814 23.2715) rotate(34.0609) scale(7.11402 9.78398)">
<stop offset="0.21669" stop-color="#564F80"/>
<stop offset="1" stop-color="#473154"/>
</radialGradient>
</defs>
</svg>
