<svg width="16" height="16" viewBox="0 0 16 16" fill="none" xmlns="http://www.w3.org/2000/svg">
<path d="M3.6001 12.8001C3.90754 12.4558 5.34746 10.8712 5.76943 10.8712H10.231C10.8425 10.8712 12.0907 12.1847 12.4001 12.6477M14.4001 8.0001C14.4001 11.5347 11.5347 14.4001 8.0001 14.4001C4.46548 14.4001 1.6001 11.5347 1.6001 8.0001C1.6001 4.46548 4.46548 1.6001 8.0001 1.6001C11.5347 1.6001 14.4001 4.46548 14.4001 8.0001ZM10.2927 5.81874C10.2927 4.59773 9.2619 3.6001 8.00029 3.6001C6.73871 3.6001 5.70792 4.59773 5.70792 5.81874C5.70792 7.03974 6.73871 8.03737 8.00029 8.03737C9.26187 8.03737 10.2927 7.03974 10.2927 5.81874Z" stroke="#646464"/>
</svg>
