<svg width="49" height="61" viewBox="0 0 49 61" fill="none" xmlns="http://www.w3.org/2000/svg">
<path d="M44.2594 23.3232H41.2594V16.9728C41.2594 15.2593 39.8703 13.8701 38.1568 13.8701H5.54195C2.9316 13.8701 0.81543 15.9863 0.81543 18.5966C0.81543 18.6782 0.81543 18.6782 0.81543 18.5966V55.7738C0.81543 58.3841 2.9316 60.5003 5.54195 60.5003H44.2594C45.9729 60.5003 47.3621 59.1112 47.3621 57.3977V26.4258C47.3622 24.7123 45.973 23.3232 44.2594 23.3232Z" fill="url(#paint0_linear_14455_18127)"/>
<path d="M4.79801 26.0892H2.77945C2.64059 26.0892 2.50741 26.034 2.40922 25.9358C2.31102 25.8376 2.25586 25.7045 2.25586 25.5656C2.25586 25.4267 2.31102 25.2935 2.40922 25.1953C2.50741 25.0972 2.64059 25.042 2.77945 25.042H4.79789C4.93676 25.042 5.06994 25.0971 5.16814 25.1953C5.26635 25.2935 5.32153 25.4267 5.32154 25.5655C5.32156 25.7044 5.26641 25.8376 5.16823 25.9358C5.07005 26.034 4.93687 26.0892 4.79801 26.0892Z" fill="url(#paint1_linear_14455_18127)"/>
<path d="M9.30912 26.0892H7.29068C7.15182 26.0892 7.01864 26.034 6.92045 25.9358C6.82225 25.8376 6.76709 25.7045 6.76709 25.5656C6.76709 25.4267 6.82225 25.2935 6.92045 25.1953C7.01864 25.0972 7.15182 25.042 7.29068 25.042H9.30912C9.44799 25.042 9.58117 25.0972 9.67936 25.1953C9.77755 25.2935 9.83271 25.4267 9.83271 25.5656C9.83271 25.7045 9.77755 25.8376 9.67936 25.9358C9.58117 26.034 9.44799 26.0892 9.30912 26.0892Z" fill="url(#paint2_linear_14455_18127)"/>
<path d="M13.82 26.0892H11.8014C11.6626 26.0892 11.5294 26.034 11.4312 25.9358C11.333 25.8376 11.2778 25.7045 11.2778 25.5656C11.2778 25.4267 11.333 25.2935 11.4312 25.1953C11.5294 25.0972 11.6626 25.042 11.8014 25.042H13.8199C13.8886 25.042 13.9567 25.0555 14.0202 25.0818C14.0838 25.1081 14.1415 25.1467 14.1901 25.1953C14.2387 25.2439 14.2773 25.3016 14.3036 25.3652C14.33 25.4287 14.3435 25.4968 14.3435 25.5655C14.3435 25.6343 14.33 25.7024 14.3037 25.7659C14.2774 25.8294 14.2388 25.8872 14.1902 25.9358C14.1416 25.9844 14.0839 26.023 14.0203 26.0493C13.9568 26.0756 13.8887 26.0892 13.82 26.0892Z" fill="url(#paint3_linear_14455_18127)"/>
<path d="M18.3311 26.0892H16.3127C16.1738 26.0892 16.0406 26.034 15.9424 25.9358C15.8442 25.8376 15.7891 25.7045 15.7891 25.5656C15.7891 25.4267 15.8442 25.2935 15.9424 25.1953C16.0406 25.0972 16.1738 25.042 16.3127 25.042H18.3311C18.47 25.042 18.6031 25.0972 18.7013 25.1953C18.7995 25.2935 18.8547 25.4267 18.8547 25.5656C18.8547 25.7045 18.7995 25.8376 18.7013 25.9358C18.6031 26.034 18.47 26.0892 18.3311 26.0892Z" fill="url(#paint4_linear_14455_18127)"/>
<path d="M22.8423 26.0892H20.8239C20.685 26.0892 20.5518 26.034 20.4537 25.9358C20.3555 25.8376 20.3003 25.7045 20.3003 25.5656C20.3003 25.4267 20.3555 25.2935 20.4537 25.1953C20.5518 25.0972 20.685 25.042 20.8239 25.042H22.8423C22.9812 25.042 23.1144 25.0972 23.2126 25.1953C23.3108 25.2935 23.3659 25.4267 23.3659 25.5656C23.3659 25.7045 23.3108 25.8376 23.2126 25.9358C23.1144 26.034 22.9812 26.0892 22.8423 26.0892Z" fill="url(#paint5_linear_14455_18127)"/>
<path d="M27.3536 26.0892H25.3351C25.1963 26.0892 25.0631 26.034 24.9649 25.9358C24.8667 25.8376 24.8115 25.7045 24.8115 25.5656C24.8115 25.4267 24.8667 25.2935 24.9649 25.1953C25.0631 25.0972 25.1963 25.042 25.3351 25.042H27.3536C27.6427 25.042 27.877 25.2764 27.877 25.5656C27.8771 25.6343 27.8635 25.7024 27.8373 25.766C27.811 25.8295 27.7724 25.8872 27.7238 25.9358C27.6752 25.9845 27.6175 26.023 27.5539 26.0494C27.4904 26.0757 27.4223 26.0892 27.3536 26.0892Z" fill="url(#paint6_linear_14455_18127)"/>
<path d="M31.8648 26.0892H29.8463C29.7075 26.0892 29.5743 26.034 29.4761 25.9358C29.3779 25.8376 29.3228 25.7045 29.3228 25.5656C29.3228 25.4267 29.3779 25.2935 29.4761 25.1953C29.5743 25.0972 29.7075 25.042 29.8463 25.042H31.8648C32.0036 25.042 32.1368 25.0972 32.235 25.1953C32.3332 25.2935 32.3884 25.4267 32.3884 25.5656C32.3884 25.7045 32.3332 25.8376 32.235 25.9358C32.1368 26.034 32.0036 26.0892 31.8648 26.0892Z" fill="url(#paint7_linear_14455_18127)"/>
<path d="M36.376 26.0892H34.3576C34.2187 26.0892 34.0855 26.034 33.9873 25.9358C33.8891 25.8376 33.834 25.7045 33.834 25.5656C33.834 25.4267 33.8891 25.2935 33.9873 25.1953C34.0855 25.0972 34.2187 25.042 34.3576 25.042H36.376C36.5149 25.042 36.6481 25.0972 36.7463 25.1953C36.8444 25.2935 36.8996 25.4267 36.8996 25.5656C36.8996 25.7045 36.8444 25.8376 36.7463 25.9358C36.6481 26.034 36.5149 26.0892 36.376 26.0892Z" fill="url(#paint8_linear_14455_18127)"/>
<path d="M40.8872 26.0892H38.8688C38.7299 26.0892 38.5968 26.034 38.4986 25.9358C38.4004 25.8376 38.3452 25.7045 38.3452 25.5656C38.3452 25.4267 38.4004 25.2935 38.4986 25.1953C38.5968 25.0972 38.7299 25.042 38.8688 25.042H40.8872C41.0261 25.042 41.1593 25.0972 41.2575 25.1953C41.3557 25.2935 41.4108 25.4267 41.4108 25.5656C41.4108 25.7045 41.3557 25.8376 41.2575 25.9358C41.1593 26.034 41.0261 26.0892 40.8872 26.0892Z" fill="url(#paint9_linear_14455_18127)"/>
<path d="M45.3985 26.0892H43.38C43.2412 26.0892 43.108 26.034 43.0098 25.9358C42.9116 25.8376 42.8564 25.7045 42.8564 25.5656C42.8564 25.4267 42.9116 25.2935 43.0098 25.1953C43.108 25.0972 43.2412 25.042 43.38 25.042H45.3985C45.6876 25.042 45.922 25.2764 45.922 25.5656C45.922 25.8548 45.6876 26.0892 45.3985 26.0892Z" fill="url(#paint10_linear_14455_18127)"/>
<path d="M4.79799 58.2053H2.77943C2.64194 58.2032 2.51077 58.1472 2.41427 58.0492C2.31777 57.9512 2.26367 57.8192 2.26367 57.6817C2.26367 57.5442 2.31777 57.4122 2.41427 57.3143C2.51077 57.2163 2.64194 57.1603 2.77943 57.1582H4.79787C4.93536 57.1602 5.06654 57.2163 5.16305 57.3142C5.25956 57.4122 5.31367 57.5442 5.31369 57.6817C5.3137 57.8192 5.25963 57.9512 5.16313 58.0492C5.06664 58.1471 4.93548 58.2032 4.79799 58.2053Z" fill="url(#paint11_linear_14455_18127)"/>
<path d="M9.3091 58.2053H7.29066C7.15317 58.2033 7.022 58.1472 6.9255 58.0493C6.829 57.9513 6.7749 57.8193 6.7749 57.6818C6.7749 57.5443 6.829 57.4123 6.9255 57.3143C7.022 57.2164 7.15317 57.1603 7.29066 57.1583H9.3091C9.37851 57.1572 9.44744 57.17 9.51186 57.1958C9.57629 57.2217 9.63494 57.2601 9.68439 57.3088C9.73384 57.3575 9.77311 57.4156 9.79992 57.4796C9.82672 57.5437 9.84053 57.6124 9.84053 57.6818C9.84053 57.7512 9.82672 57.8199 9.79992 57.884C9.77311 57.948 9.73384 58.0061 9.68439 58.0548C9.63494 58.1035 9.57629 58.1419 9.51186 58.1678C9.44744 58.1936 9.37851 58.2064 9.3091 58.2053Z" fill="url(#paint12_linear_14455_18127)"/>
<path d="M13.82 58.2053H11.8014C11.6639 58.2032 11.5327 58.1472 11.4362 58.0492C11.3397 57.9512 11.2856 57.8192 11.2856 57.6817C11.2856 57.5442 11.3397 57.4122 11.4362 57.3143C11.5327 57.2163 11.6639 57.1603 11.8014 57.1582H13.8198C13.9573 57.1602 14.0885 57.2163 14.185 57.3142C14.2815 57.4122 14.3356 57.5442 14.3357 57.6817C14.3357 57.8192 14.2816 57.9512 14.1851 58.0492C14.0886 58.1471 13.9575 58.2032 13.82 58.2053Z" fill="url(#paint13_linear_14455_18127)"/>
<path d="M18.3316 58.2053H16.3131C16.1756 58.2033 16.0445 58.1472 15.948 58.0493C15.8515 57.9513 15.7974 57.8193 15.7974 57.6818C15.7974 57.5443 15.8515 57.4123 15.948 57.3143C16.0445 57.2164 16.1756 57.1603 16.3131 57.1583H18.3316C18.401 57.1572 18.4699 57.17 18.5343 57.1958C18.5988 57.2217 18.6574 57.2601 18.7069 57.3088C18.7563 57.3575 18.7956 57.4156 18.8224 57.4796C18.8492 57.5437 18.863 57.6124 18.863 57.6818C18.863 57.7512 18.8492 57.8199 18.8224 57.884C18.7956 57.948 18.7563 58.0061 18.7069 58.0548C18.6574 58.1035 18.5988 58.1419 18.5343 58.1678C18.4699 58.1936 18.401 58.2064 18.3316 58.2053Z" fill="url(#paint14_linear_14455_18127)"/>
<path d="M22.8423 58.2053H20.8239C20.6864 58.2033 20.5552 58.1472 20.4587 58.0493C20.3622 57.9513 20.3081 57.8193 20.3081 57.6818C20.3081 57.5443 20.3622 57.4123 20.4587 57.3143C20.5552 57.2164 20.6864 57.1603 20.8239 57.1583H22.8423C22.9117 57.1572 22.9806 57.17 23.0451 57.1958C23.1095 57.2217 23.1681 57.2601 23.2176 57.3088C23.267 57.3575 23.3063 57.4156 23.3331 57.4796C23.3599 57.5437 23.3737 57.6124 23.3737 57.6818C23.3737 57.7512 23.3599 57.8199 23.3331 57.884C23.3063 57.948 23.267 58.0061 23.2176 58.0548C23.1681 58.1035 23.1095 58.1419 23.0451 58.1678C22.9806 58.1936 22.9117 58.2064 22.8423 58.2053Z" fill="url(#paint15_linear_14455_18127)"/>
<path d="M27.3535 58.2053H25.3351C25.1976 58.2032 25.0664 58.1472 24.9699 58.0492C24.8734 57.9512 24.8193 57.8192 24.8193 57.6817C24.8193 57.5442 24.8734 57.4122 24.9699 57.3143C25.0664 57.2163 25.1976 57.1603 25.3351 57.1582H27.3535C27.4924 57.1582 27.6255 57.2134 27.7237 57.3115C27.8219 57.4097 27.8771 57.5429 27.8771 57.6817C27.8771 57.8206 27.8219 57.9538 27.7237 58.0519C27.6255 58.1501 27.4924 58.2053 27.3535 58.2053Z" fill="url(#paint16_linear_14455_18127)"/>
<path d="M31.8648 58.2053H29.8463C29.7088 58.2033 29.5777 58.1472 29.4812 58.0493C29.3847 57.9513 29.3306 57.8193 29.3306 57.6818C29.3306 57.5443 29.3847 57.4123 29.4812 57.3143C29.5777 57.2164 29.7088 57.1603 29.8463 57.1583H31.8648C31.9342 57.1572 32.0031 57.17 32.0675 57.1958C32.132 57.2217 32.1906 57.2601 32.2401 57.3088C32.2895 57.3575 32.3288 57.4156 32.3556 57.4796C32.3824 57.5437 32.3962 57.6124 32.3962 57.6818C32.3962 57.7512 32.3824 57.8199 32.3556 57.884C32.3288 57.948 32.2895 58.0061 32.2401 58.0548C32.1906 58.1035 32.132 58.1419 32.0675 58.1678C32.0031 58.1936 31.9342 58.2064 31.8648 58.2053Z" fill="url(#paint17_linear_14455_18127)"/>
<path d="M36.376 58.2053H34.3575C34.2187 58.2053 34.0855 58.1502 33.9873 58.052C33.8891 57.9538 33.834 57.8206 33.834 57.6818C33.834 57.5429 33.8891 57.4098 33.9873 57.3116C34.0855 57.2134 34.2187 57.1583 34.3575 57.1583H36.376C36.4454 57.1572 36.5143 57.17 36.5787 57.1958C36.6431 57.2217 36.7018 57.2601 36.7512 57.3088C36.8007 57.3575 36.84 57.4156 36.8668 57.4796C36.8936 57.5437 36.9074 57.6124 36.9074 57.6818C36.9074 57.7512 36.8936 57.8199 36.8668 57.884C36.84 57.948 36.8007 58.0061 36.7512 58.0548C36.7018 58.1035 36.6431 58.1419 36.5787 58.1678C36.5143 58.1936 36.4454 58.2064 36.376 58.2053Z" fill="url(#paint18_linear_14455_18127)"/>
<path d="M40.8872 58.2053H38.8687C38.7299 58.2053 38.5967 58.1502 38.4986 58.052C38.4004 57.9538 38.3452 57.8206 38.3452 57.6818C38.3452 57.5429 38.4004 57.4098 38.4986 57.3116C38.5967 57.2134 38.7299 57.1583 38.8687 57.1583H40.8872C40.9566 57.1572 41.0255 57.17 41.09 57.1958C41.1544 57.2217 41.213 57.2601 41.2625 57.3088C41.3119 57.3575 41.3512 57.4156 41.378 57.4796C41.4048 57.5437 41.4186 57.6124 41.4186 57.6818C41.4186 57.7512 41.4048 57.8199 41.378 57.884C41.3512 57.948 41.3119 58.0061 41.2625 58.0548C41.213 58.1035 41.1544 58.1419 41.09 58.1678C41.0255 58.1936 40.9566 58.2064 40.8872 58.2053Z" fill="url(#paint19_linear_14455_18127)"/>
<path d="M45.3984 58.2053H43.38C43.2411 58.2053 43.108 58.1501 43.0098 58.0519C42.9116 57.9538 42.8564 57.8206 42.8564 57.6817C42.8564 57.5429 42.9116 57.4097 43.0098 57.3115C43.108 57.2134 43.2411 57.1582 43.38 57.1582H45.3984C45.5373 57.1582 45.6704 57.2134 45.7686 57.3115C45.8668 57.4097 45.922 57.5429 45.922 57.6817C45.922 57.8206 45.8668 57.9538 45.7686 58.0519C45.6704 58.1501 45.5373 58.2053 45.3984 58.2053Z" fill="url(#paint20_linear_14455_18127)"/>
<path d="M44.2592 23.3232H41.2592V16.9728C41.2592 15.2593 39.8701 13.8701 38.1566 13.8701H17.8618V60.5003H44.2592C45.9728 60.5003 47.3619 59.1112 47.3619 57.3977V26.4258C47.362 24.7123 45.9729 23.3232 44.2592 23.3232Z" fill="url(#paint21_linear_14455_18127)"/>
<path d="M41.2594 23.3232H5.54195C2.9316 23.3232 0.81543 21.207 0.81543 18.5966C0.81543 15.9863 2.9316 13.8701 5.54195 13.8701H38.1566C39.8703 13.8701 41.2593 15.2593 41.2593 16.9728V23.3232H41.2594Z" fill="url(#paint22_linear_14455_18127)"/>
<path d="M41.2592 16.9729V23.3223H29.6709V13.8701H38.1564C39.8704 13.8701 41.2592 15.2589 41.2592 16.9729Z" fill="url(#paint23_linear_14455_18127)"/>
<path d="M41.2592 16.9729V23.3223H29.6709V13.8701H38.1564C39.8704 13.8701 41.2592 15.2589 41.2592 16.9729Z" fill="url(#paint24_linear_14455_18127)"/>
<path d="M0.81543 44.3125V55.773C0.81543 58.3833 2.9316 60.4995 5.54195 60.4995H44.2594C45.9729 60.4995 47.3621 59.1104 47.3621 57.3968V44.3125H0.81543Z" fill="url(#paint25_linear_14455_18127)"/>
<path d="M4.0459 19.9042C4.0459 21.7907 5.57519 23.3201 7.46168 23.3202L41.2596 23.3224V16.972C41.2596 16.807 41.243 16.6463 41.2181 16.4883H7.46191C5.57531 16.4882 4.0459 18.0176 4.0459 19.9042Z" fill="url(#paint26_linear_14455_18127)"/>
<path d="M32.6777 44.9727L46.8343 59.1293C47.1793 58.6177 47.3632 58.0146 47.3623 57.3976V44.9727H32.6777Z" fill="url(#paint27_linear_14455_18127)"/>
<path d="M46.9264 46.4857H36.5373C33.4004 46.4857 30.8574 43.9427 30.8574 40.8058C30.8574 37.6689 33.4004 35.126 36.5373 35.126H46.9264C47.6213 35.126 48.1847 35.6893 48.1847 36.3842V45.2277C48.1847 45.9223 47.6213 46.4857 46.9264 46.4857Z" fill="url(#paint28_linear_14455_18127)"/>
<path d="M31.1495 39.0079C30.9559 39.5874 30.8573 40.1944 30.8574 40.8054C30.8574 43.9422 33.4004 46.4852 36.5373 46.4852H46.9264C47.6213 46.4852 48.1847 45.9219 48.1847 45.227V39.0078H31.1495V39.0079Z" fill="url(#paint29_linear_14455_18127)"/>
<path d="M46.9267 35.126H38.6226V46.4858H46.9267C47.6216 46.4858 48.1849 45.9225 48.1849 45.2275V36.3841C48.1849 35.6893 47.6216 35.126 46.9267 35.126Z" fill="url(#paint30_linear_14455_18127)"/>
<path d="M37.4729 46.4854H45.9216L38.1295 38.6934L33.9053 42.9176L37.4729 46.4854Z" fill="url(#paint31_linear_14455_18127)"/>
<path d="M36.0173 43.7933C37.6669 43.7933 39.0043 42.456 39.0043 40.8063C39.0043 39.1567 37.6669 37.8193 36.0173 37.8193C34.3676 37.8193 33.0303 39.1567 33.0303 40.8063C33.0303 42.456 34.3676 43.7933 36.0173 43.7933Z" fill="url(#paint32_linear_14455_18127)"/>
<path d="M33.0303 40.8055C33.0303 42.4552 34.3676 43.7925 36.0173 43.7925C37.6669 43.7925 39.0043 42.4552 39.0043 40.8055C39.0043 40.4482 38.9413 40.1057 38.8263 39.7881H33.2082C33.0902 40.1143 33.03 40.4586 33.0303 40.8055Z" fill="url(#paint33_linear_14455_18127)"/>
<path d="M33.9052 42.9184C35.0717 44.0849 36.963 44.0849 38.1295 42.9184C39.2959 41.7519 39.2959 39.8606 38.1295 38.6941C37.8844 38.4486 37.5983 38.2477 37.2842 38.1006L33.3115 42.0732C33.4588 42.3873 33.6597 42.6733 33.9052 42.9184Z" fill="url(#paint34_linear_14455_18127)"/>
<path d="M37.179 23.3229H15.1191V2.65062C15.1191 1.46281 16.082 0.5 17.2698 0.5H35.0284C36.2161 0.5 37.179 1.46281 37.179 2.65062V23.3229Z" fill="url(#paint35_linear_14455_18127)"/>
<path d="M18.795 5.80293C19.7629 5.80293 20.5476 5.01829 20.5476 4.05039C20.5476 3.08249 19.7629 2.29785 18.795 2.29785C17.8271 2.29785 17.0425 3.08249 17.0425 4.05039C17.0425 5.01829 17.8271 5.80293 18.795 5.80293Z" fill="url(#paint36_linear_14455_18127)"/>
<path d="M33.7569 5.80293C34.7248 5.80293 35.5095 5.01829 35.5095 4.05039C35.5095 3.08249 34.7248 2.29785 33.7569 2.29785C32.789 2.29785 32.0044 3.08249 32.0044 4.05039C32.0044 5.01829 32.789 5.80293 33.7569 5.80293Z" fill="url(#paint37_linear_14455_18127)"/>
<path d="M34.0648 8.10578V23.322H18.2344V8.10566C18.2344 7.60164 18.6001 7.18387 19.0946 7.08613C19.7397 6.95891 20.332 6.64192 20.7956 6.17582C21.2602 5.71274 21.5766 5.12202 21.7048 4.47871C21.8 4.00117 22.2278 3.66309 22.7147 3.66309H29.5834C30.0707 3.66309 30.4984 4.00164 30.5936 4.47953C30.7214 5.12259 31.0376 5.71309 31.502 6.17594C31.9664 6.64191 32.5591 6.95885 33.2045 7.08625C33.699 7.18387 34.0648 7.60164 34.0648 8.10578Z" fill="url(#paint38_linear_14455_18127)"/>
<path d="M35.0283 0.5H25.7778V23.3229H37.1789V2.65062C37.1789 1.46281 36.2161 0.5 35.0283 0.5Z" fill="url(#paint39_linear_14455_18127)"/>
<path d="M15.1191 7.78711H37.179V23.3229H15.1191V7.78711Z" fill="url(#paint40_linear_14455_18127)"/>
<path d="M28.7324 23.3227H37.1791V15.766L28.7324 7.31934V23.3227Z" fill="url(#paint41_linear_14455_18127)"/>
<path d="M29.263 23.3232H7.20312V8.73363C7.20312 7.54594 8.16594 6.58301 9.35375 6.58301H27.1125C28.3002 6.58301 29.2631 7.54582 29.2631 8.73363L29.263 23.3232Z" fill="url(#paint42_linear_14455_18127)"/>
<path d="M10.879 11.885C11.8469 11.885 12.6315 11.1003 12.6315 10.1324C12.6315 9.16452 11.8469 8.37988 10.879 8.37988C9.9111 8.37988 9.12646 9.16452 9.12646 10.1324C9.12646 11.1003 9.9111 11.885 10.879 11.885Z" fill="url(#paint43_linear_14455_18127)"/>
<path d="M25.8414 11.885C26.8093 11.885 27.5939 11.1003 27.5939 10.1324C27.5939 9.16452 26.8093 8.37988 25.8414 8.37988C24.8735 8.37988 24.0889 9.16452 24.0889 10.1324C24.0889 11.1003 24.8735 11.885 25.8414 11.885Z" fill="url(#paint44_linear_14455_18127)"/>
<path d="M26.1488 14.1887V23.3221H10.3184V14.1887C10.3184 13.6846 10.6841 13.2669 11.1786 13.1691C11.8236 13.0419 12.416 12.7249 12.8796 12.2588C13.3442 11.7957 13.6606 11.205 13.7888 10.5617C13.884 10.0842 14.3118 9.74609 14.7987 9.74609H21.6674C22.1546 9.74609 22.5824 10.0846 22.6774 10.5625C22.8053 11.2056 23.1215 11.7961 23.5859 12.2589C24.0502 12.7249 24.643 13.0419 25.2884 13.1693C25.783 13.2669 26.1488 13.6846 26.1488 14.1887Z" fill="url(#paint45_linear_14455_18127)"/>
<path d="M27.1122 6.58301H17.8618V23.3231H29.2629V8.73352C29.2629 7.54582 28.2999 6.58301 27.1122 6.58301Z" fill="url(#paint46_linear_14455_18127)"/>
<path d="M7.20312 13.8701H29.263V23.3233H7.20312V13.8701Z" fill="url(#paint47_linear_14455_18127)"/>
<defs>
<linearGradient id="paint0_linear_14455_18127" x1="1.1998" y1="37.1852" x2="42.1932" y2="37.1852" gradientUnits="userSpaceOnUse">
<stop stop-color="#F89580"/>
<stop offset="1" stop-color="#C4573A"/>
</linearGradient>
<linearGradient id="paint1_linear_14455_18127" x1="3.78867" y1="25.9845" x2="3.78867" y2="24.9375" gradientUnits="userSpaceOnUse">
<stop stop-color="#F89580"/>
<stop offset="1" stop-color="#C4573A"/>
</linearGradient>
<linearGradient id="paint2_linear_14455_18127" x1="8.2999" y1="25.9845" x2="8.2999" y2="24.9375" gradientUnits="userSpaceOnUse">
<stop stop-color="#F89580"/>
<stop offset="1" stop-color="#C4573A"/>
</linearGradient>
<linearGradient id="paint3_linear_14455_18127" x1="12.8108" y1="25.9845" x2="12.8108" y2="24.9375" gradientUnits="userSpaceOnUse">
<stop stop-color="#F89580"/>
<stop offset="1" stop-color="#C4573A"/>
</linearGradient>
<linearGradient id="paint4_linear_14455_18127" x1="17.3219" y1="25.9845" x2="17.3219" y2="24.9375" gradientUnits="userSpaceOnUse">
<stop stop-color="#F89580"/>
<stop offset="1" stop-color="#C4573A"/>
</linearGradient>
<linearGradient id="paint5_linear_14455_18127" x1="21.8331" y1="25.9845" x2="21.8331" y2="24.9375" gradientUnits="userSpaceOnUse">
<stop stop-color="#F89580"/>
<stop offset="1" stop-color="#C4573A"/>
</linearGradient>
<linearGradient id="paint6_linear_14455_18127" x1="26.3443" y1="25.9845" x2="26.3443" y2="24.9375" gradientUnits="userSpaceOnUse">
<stop stop-color="#F89580"/>
<stop offset="1" stop-color="#C4573A"/>
</linearGradient>
<linearGradient id="paint7_linear_14455_18127" x1="30.8556" y1="25.9845" x2="30.8556" y2="24.9375" gradientUnits="userSpaceOnUse">
<stop stop-color="#F89580"/>
<stop offset="1" stop-color="#C4573A"/>
</linearGradient>
<linearGradient id="paint8_linear_14455_18127" x1="35.3668" y1="25.9845" x2="35.3668" y2="24.9375" gradientUnits="userSpaceOnUse">
<stop stop-color="#F89580"/>
<stop offset="1" stop-color="#C4573A"/>
</linearGradient>
<linearGradient id="paint9_linear_14455_18127" x1="39.8779" y1="25.9845" x2="39.8779" y2="24.9375" gradientUnits="userSpaceOnUse">
<stop stop-color="#F89580"/>
<stop offset="1" stop-color="#C4573A"/>
</linearGradient>
<linearGradient id="paint10_linear_14455_18127" x1="44.3891" y1="25.9845" x2="44.3891" y2="24.9375" gradientUnits="userSpaceOnUse">
<stop stop-color="#F89580"/>
<stop offset="1" stop-color="#C4573A"/>
</linearGradient>
<linearGradient id="paint11_linear_14455_18127" x1="3.78865" y1="58.1006" x2="3.78865" y2="57.0536" gradientUnits="userSpaceOnUse">
<stop stop-color="#F89580"/>
<stop offset="1" stop-color="#C4573A"/>
</linearGradient>
<linearGradient id="paint12_linear_14455_18127" x1="8.29988" y1="58.1007" x2="8.29988" y2="57.0536" gradientUnits="userSpaceOnUse">
<stop stop-color="#F89580"/>
<stop offset="1" stop-color="#C4573A"/>
</linearGradient>
<linearGradient id="paint13_linear_14455_18127" x1="12.8107" y1="58.1006" x2="12.8107" y2="57.0536" gradientUnits="userSpaceOnUse">
<stop stop-color="#F89580"/>
<stop offset="1" stop-color="#C4573A"/>
</linearGradient>
<linearGradient id="paint14_linear_14455_18127" x1="17.3223" y1="58.1007" x2="17.3223" y2="57.0536" gradientUnits="userSpaceOnUse">
<stop stop-color="#F89580"/>
<stop offset="1" stop-color="#C4573A"/>
</linearGradient>
<linearGradient id="paint15_linear_14455_18127" x1="21.8331" y1="58.1007" x2="21.8331" y2="57.0536" gradientUnits="userSpaceOnUse">
<stop stop-color="#F89580"/>
<stop offset="1" stop-color="#C4573A"/>
</linearGradient>
<linearGradient id="paint16_linear_14455_18127" x1="26.3443" y1="58.1006" x2="26.3443" y2="57.0536" gradientUnits="userSpaceOnUse">
<stop stop-color="#F89580"/>
<stop offset="1" stop-color="#C4573A"/>
</linearGradient>
<linearGradient id="paint17_linear_14455_18127" x1="30.8555" y1="58.1007" x2="30.8555" y2="57.0536" gradientUnits="userSpaceOnUse">
<stop stop-color="#F89580"/>
<stop offset="1" stop-color="#C4573A"/>
</linearGradient>
<linearGradient id="paint18_linear_14455_18127" x1="35.3667" y1="58.1007" x2="35.3667" y2="57.0536" gradientUnits="userSpaceOnUse">
<stop stop-color="#F89580"/>
<stop offset="1" stop-color="#C4573A"/>
</linearGradient>
<linearGradient id="paint19_linear_14455_18127" x1="39.8779" y1="58.1007" x2="39.8779" y2="57.0536" gradientUnits="userSpaceOnUse">
<stop stop-color="#F89580"/>
<stop offset="1" stop-color="#C4573A"/>
</linearGradient>
<linearGradient id="paint20_linear_14455_18127" x1="44.3891" y1="58.1006" x2="44.3891" y2="57.0536" gradientUnits="userSpaceOnUse">
<stop stop-color="#F89580"/>
<stop offset="1" stop-color="#C4573A"/>
</linearGradient>
<linearGradient id="paint21_linear_14455_18127" x1="38.8379" y1="37.1852" x2="47.0007" y2="37.1852" gradientUnits="userSpaceOnUse">
<stop stop-color="#C4573A" stop-opacity="0"/>
<stop offset="0.235" stop-color="#BE5539" stop-opacity="0.235"/>
<stop offset="0.539" stop-color="#AE4E35" stop-opacity="0.539"/>
<stop offset="0.879" stop-color="#934330" stop-opacity="0.879"/>
<stop offset="1" stop-color="#883F2E"/>
</linearGradient>
<linearGradient id="paint22_linear_14455_18127" x1="15.9358" y1="6.28164" x2="25.4802" y2="28.1205" gradientUnits="userSpaceOnUse">
<stop stop-color="#C4573A" stop-opacity="0"/>
<stop offset="0.235" stop-color="#BE5539" stop-opacity="0.235"/>
<stop offset="0.539" stop-color="#AE4E35" stop-opacity="0.539"/>
<stop offset="0.879" stop-color="#934330" stop-opacity="0.879"/>
<stop offset="1" stop-color="#883F2E"/>
</linearGradient>
<linearGradient id="paint23_linear_14455_18127" x1="33.985" y1="18.5962" x2="40.2634" y2="18.5962" gradientUnits="userSpaceOnUse">
<stop stop-color="#C4573A" stop-opacity="0"/>
<stop offset="0.235" stop-color="#BE5539" stop-opacity="0.235"/>
<stop offset="0.539" stop-color="#AE4E35" stop-opacity="0.539"/>
<stop offset="0.879" stop-color="#934330" stop-opacity="0.879"/>
<stop offset="1" stop-color="#883F2E"/>
</linearGradient>
<linearGradient id="paint24_linear_14455_18127" x1="40.5636" y1="18.5962" x2="37.0583" y2="18.5962" gradientUnits="userSpaceOnUse">
<stop stop-color="#C4573A" stop-opacity="0"/>
<stop offset="0.235" stop-color="#BE5539" stop-opacity="0.235"/>
<stop offset="0.539" stop-color="#AE4E35" stop-opacity="0.539"/>
<stop offset="0.879" stop-color="#934330" stop-opacity="0.879"/>
<stop offset="1" stop-color="#883F2E"/>
</linearGradient>
<linearGradient id="paint25_linear_14455_18127" x1="24.0887" y1="50.9789" x2="24.0887" y2="60.3672" gradientUnits="userSpaceOnUse">
<stop stop-color="#C4573A" stop-opacity="0"/>
<stop offset="0.235" stop-color="#BE5539" stop-opacity="0.235"/>
<stop offset="0.539" stop-color="#AE4E35" stop-opacity="0.539"/>
<stop offset="0.879" stop-color="#934330" stop-opacity="0.879"/>
<stop offset="1" stop-color="#883F2E"/>
</linearGradient>
<linearGradient id="paint26_linear_14455_18127" x1="22.6528" y1="17.5826" x2="22.6528" y2="23.0699" gradientUnits="userSpaceOnUse">
<stop stop-color="#C4573A" stop-opacity="0"/>
<stop offset="0.235" stop-color="#BE5539" stop-opacity="0.235"/>
<stop offset="0.539" stop-color="#AE4E35" stop-opacity="0.539"/>
<stop offset="0.879" stop-color="#934330" stop-opacity="0.879"/>
<stop offset="1" stop-color="#883F2E"/>
</linearGradient>
<linearGradient id="paint27_linear_14455_18127" x1="41.9825" y1="59.8993" x2="40.203" y2="46.3646" gradientUnits="userSpaceOnUse">
<stop stop-color="#C4573A" stop-opacity="0"/>
<stop offset="0.235" stop-color="#BE5539" stop-opacity="0.235"/>
<stop offset="0.539" stop-color="#AE4E35" stop-opacity="0.539"/>
<stop offset="0.879" stop-color="#934330" stop-opacity="0.879"/>
<stop offset="1" stop-color="#883F2E"/>
</linearGradient>
<linearGradient id="paint28_linear_14455_18127" x1="39.1441" y1="35.4087" x2="40.5102" y2="47.4157" gradientUnits="userSpaceOnUse">
<stop stop-color="#F89580"/>
<stop offset="1" stop-color="#C4573A"/>
</linearGradient>
<linearGradient id="paint29_linear_14455_18127" x1="39.521" y1="42.3153" x2="39.521" y2="46.3576" gradientUnits="userSpaceOnUse">
<stop stop-color="#C4573A" stop-opacity="0"/>
<stop offset="0.235" stop-color="#BE5539" stop-opacity="0.235"/>
<stop offset="0.539" stop-color="#AE4E35" stop-opacity="0.539"/>
<stop offset="0.879" stop-color="#934330" stop-opacity="0.879"/>
<stop offset="1" stop-color="#883F2E"/>
</linearGradient>
<linearGradient id="paint30_linear_14455_18127" x1="43.1521" y1="40.8059" x2="48.5564" y2="40.8059" gradientUnits="userSpaceOnUse">
<stop stop-color="#C4573A" stop-opacity="0"/>
<stop offset="0.235" stop-color="#BE5539" stop-opacity="0.235"/>
<stop offset="0.539" stop-color="#AE4E35" stop-opacity="0.539"/>
<stop offset="0.879" stop-color="#934330" stop-opacity="0.879"/>
<stop offset="1" stop-color="#883F2E"/>
</linearGradient>
<linearGradient id="paint31_linear_14455_18127" x1="40.1477" y1="44.9092" x2="36.9843" y2="41.7817" gradientUnits="userSpaceOnUse">
<stop stop-color="#C4573A" stop-opacity="0"/>
<stop offset="0.235" stop-color="#BE5539" stop-opacity="0.235"/>
<stop offset="0.539" stop-color="#AE4E35" stop-opacity="0.539"/>
<stop offset="0.879" stop-color="#934330" stop-opacity="0.879"/>
<stop offset="1" stop-color="#883F2E"/>
</linearGradient>
<linearGradient id="paint32_linear_14455_18127" x1="34.1902" y1="38.9791" x2="37.4862" y2="42.2752" gradientUnits="userSpaceOnUse">
<stop stop-color="#5A5A5A"/>
<stop offset="1" stop-color="#444444"/>
</linearGradient>
<linearGradient id="paint33_linear_14455_18127" x1="36.0173" y1="40.8432" x2="36.0173" y2="44.3571" gradientUnits="userSpaceOnUse">
<stop stop-color="#433F43" stop-opacity="0"/>
<stop offset="1" stop-color="#1A1A1A"/>
</linearGradient>
<linearGradient id="paint34_linear_14455_18127" x1="36.0488" y1="40.859" x2="38.6642" y2="43.4745" gradientUnits="userSpaceOnUse">
<stop stop-color="#433F43" stop-opacity="0"/>
<stop offset="1" stop-color="#1A1A1A"/>
</linearGradient>
<linearGradient id="paint35_linear_14455_18127" x1="20.1479" y1="3.41481" x2="33.5466" y2="24.0748" gradientUnits="userSpaceOnUse">
<stop stop-color="#BBEC6C"/>
<stop offset="0.289" stop-color="#ABDC59"/>
<stop offset="0.866" stop-color="#82B32A"/>
<stop offset="1" stop-color="#78A91F"/>
</linearGradient>
<linearGradient id="paint36_linear_14455_18127" x1="18.5662" y1="-4.21133" x2="19.0515" y2="13.3137" gradientUnits="userSpaceOnUse">
<stop stop-color="#334C0F" stop-opacity="0"/>
<stop offset="0.32" stop-color="#344C12" stop-opacity="0.32"/>
<stop offset="0.565" stop-color="#374A1C" stop-opacity="0.565"/>
<stop offset="0.786" stop-color="#3C482C" stop-opacity="0.786"/>
<stop offset="0.991" stop-color="#444443" stop-opacity="0.991"/>
<stop offset="1" stop-color="#444444"/>
</linearGradient>
<linearGradient id="paint37_linear_14455_18127" x1="33.5167" y1="-4.62535" x2="34.002" y2="12.8997" gradientUnits="userSpaceOnUse">
<stop stop-color="#334C0F" stop-opacity="0"/>
<stop offset="0.32" stop-color="#344C12" stop-opacity="0.32"/>
<stop offset="0.565" stop-color="#374A1C" stop-opacity="0.565"/>
<stop offset="0.786" stop-color="#3C482C" stop-opacity="0.786"/>
<stop offset="0.991" stop-color="#444443" stop-opacity="0.991"/>
<stop offset="1" stop-color="#444444"/>
</linearGradient>
<linearGradient id="paint38_linear_14455_18127" x1="10.6136" y1="-2.71555" x2="33.7241" y2="24.4202" gradientUnits="userSpaceOnUse">
<stop stop-color="#334C0F" stop-opacity="0"/>
<stop offset="0.32" stop-color="#344C12" stop-opacity="0.32"/>
<stop offset="0.565" stop-color="#374A1C" stop-opacity="0.565"/>
<stop offset="0.786" stop-color="#3C482C" stop-opacity="0.786"/>
<stop offset="0.991" stop-color="#444443" stop-opacity="0.991"/>
<stop offset="1" stop-color="#444444"/>
</linearGradient>
<linearGradient id="paint39_linear_14455_18127" x1="33.2731" y1="11.9114" x2="37.8882" y2="11.9114" gradientUnits="userSpaceOnUse">
<stop stop-color="#334C0F" stop-opacity="0"/>
<stop offset="0.32" stop-color="#344C12" stop-opacity="0.32"/>
<stop offset="0.565" stop-color="#374A1C" stop-opacity="0.565"/>
<stop offset="0.786" stop-color="#3C482C" stop-opacity="0.786"/>
<stop offset="0.991" stop-color="#444443" stop-opacity="0.991"/>
<stop offset="1" stop-color="#444444"/>
</linearGradient>
<linearGradient id="paint40_linear_14455_18127" x1="26.1491" y1="17.6414" x2="26.1491" y2="23.8455" gradientUnits="userSpaceOnUse">
<stop stop-color="#334C0F" stop-opacity="0"/>
<stop offset="0.32" stop-color="#344C12" stop-opacity="0.32"/>
<stop offset="0.565" stop-color="#374A1C" stop-opacity="0.565"/>
<stop offset="0.786" stop-color="#3C482C" stop-opacity="0.786"/>
<stop offset="0.991" stop-color="#444443" stop-opacity="0.991"/>
<stop offset="1" stop-color="#444444"/>
</linearGradient>
<linearGradient id="paint41_linear_14455_18127" x1="38.5687" y1="15.321" x2="28.2694" y2="15.321" gradientUnits="userSpaceOnUse">
<stop stop-color="#334C0F" stop-opacity="0"/>
<stop offset="0.32" stop-color="#344C12" stop-opacity="0.32"/>
<stop offset="0.565" stop-color="#374A1C" stop-opacity="0.565"/>
<stop offset="0.786" stop-color="#3C482C" stop-opacity="0.786"/>
<stop offset="0.991" stop-color="#444443" stop-opacity="0.991"/>
<stop offset="1" stop-color="#444444"/>
</linearGradient>
<linearGradient id="paint42_linear_14455_18127" x1="13.2213" y1="7.98223" x2="24.3654" y2="25.1657" gradientUnits="userSpaceOnUse">
<stop stop-color="#BBEC6C"/>
<stop offset="0.289" stop-color="#ABDC59"/>
<stop offset="0.866" stop-color="#82B32A"/>
<stop offset="1" stop-color="#78A91F"/>
</linearGradient>
<linearGradient id="paint43_linear_14455_18127" x1="10.6503" y1="1.8707" x2="11.1356" y2="19.3957" gradientUnits="userSpaceOnUse">
<stop stop-color="#334C0F" stop-opacity="0"/>
<stop offset="0.32" stop-color="#344C12" stop-opacity="0.32"/>
<stop offset="0.565" stop-color="#374A1C" stop-opacity="0.565"/>
<stop offset="0.786" stop-color="#3C482C" stop-opacity="0.786"/>
<stop offset="0.991" stop-color="#444443" stop-opacity="0.991"/>
<stop offset="1" stop-color="#444444"/>
</linearGradient>
<linearGradient id="paint44_linear_14455_18127" x1="25.6012" y1="1.45668" x2="26.0864" y2="18.9817" gradientUnits="userSpaceOnUse">
<stop stop-color="#334C0F" stop-opacity="0"/>
<stop offset="0.32" stop-color="#344C12" stop-opacity="0.32"/>
<stop offset="0.565" stop-color="#374A1C" stop-opacity="0.565"/>
<stop offset="0.786" stop-color="#3C482C" stop-opacity="0.786"/>
<stop offset="0.991" stop-color="#444443" stop-opacity="0.991"/>
<stop offset="1" stop-color="#444444"/>
</linearGradient>
<linearGradient id="paint45_linear_14455_18127" x1="5.85516" y1="4.03379" x2="24.225" y2="25.603" gradientUnits="userSpaceOnUse">
<stop stop-color="#334C0F" stop-opacity="0"/>
<stop offset="0.32" stop-color="#344C12" stop-opacity="0.32"/>
<stop offset="0.565" stop-color="#374A1C" stop-opacity="0.565"/>
<stop offset="0.786" stop-color="#3C482C" stop-opacity="0.786"/>
<stop offset="0.991" stop-color="#444443" stop-opacity="0.991"/>
<stop offset="1" stop-color="#444444"/>
</linearGradient>
<linearGradient id="paint46_linear_14455_18127" x1="25.3571" y1="14.953" x2="29.9722" y2="14.953" gradientUnits="userSpaceOnUse">
<stop stop-color="#334C0F" stop-opacity="0"/>
<stop offset="0.32" stop-color="#344C12" stop-opacity="0.32"/>
<stop offset="0.565" stop-color="#374A1C" stop-opacity="0.565"/>
<stop offset="0.786" stop-color="#3C482C" stop-opacity="0.786"/>
<stop offset="0.991" stop-color="#444443" stop-opacity="0.991"/>
<stop offset="1" stop-color="#444444"/>
</linearGradient>
<linearGradient id="paint47_linear_14455_18127" x1="18.233" y1="19.8663" x2="18.233" y2="23.6412" gradientUnits="userSpaceOnUse">
<stop stop-color="#334C0F" stop-opacity="0"/>
<stop offset="0.32" stop-color="#344C12" stop-opacity="0.32"/>
<stop offset="0.565" stop-color="#374A1C" stop-opacity="0.565"/>
<stop offset="0.786" stop-color="#3C482C" stop-opacity="0.786"/>
<stop offset="0.991" stop-color="#444443" stop-opacity="0.991"/>
<stop offset="1" stop-color="#444444"/>
</linearGradient>
</defs>
</svg>
