<svg width="24" height="24" viewBox="0 0 24 24" fill="none" xmlns="http://www.w3.org/2000/svg">
<path d="M21.5999 16.5597V17.3097C22.0141 17.3097 22.3499 16.9739 22.3499 16.5597H21.5999ZM21.5999 11.2796H22.3499C22.3499 10.8654 22.0141 10.5297 21.5999 10.5297V11.2796ZM7.27433 6.32877C6.92591 6.55275 6.82503 7.01679 7.04902 7.36522C7.27301 7.71364 7.73704 7.81452 8.08547 7.59053L7.27433 6.32877ZM14.3999 2.63965L14.9919 2.17919C14.7536 1.87278 14.3209 1.79885 13.9943 2.00876L14.3999 2.63965ZM17.1679 7.4201C17.4222 7.74707 17.8934 7.80597 18.2204 7.55166C18.5473 7.29736 18.6062 6.82615 18.3519 6.49919L17.1679 7.4201ZM21.5999 15.8097H18.4799V17.3097H21.5999V15.8097ZM18.4799 12.0296H21.5999V10.5297H18.4799V12.0296ZM20.8499 11.2796V16.5597H22.3499V11.2796H20.8499ZM16.5899 13.9197C16.5899 12.8758 17.4361 12.0296 18.4799 12.0296V10.5297C16.6077 10.5297 15.0899 12.0474 15.0899 13.9197H16.5899ZM18.4799 15.8097C17.4361 15.8097 16.5899 14.9635 16.5899 13.9197H15.0899C15.0899 15.7919 16.6077 17.3097 18.4799 17.3097V15.8097ZM8.08547 7.59053L14.8055 3.27053L13.9943 2.00876L7.27433 6.32877L8.08547 7.59053ZM13.8079 3.1001L17.1679 7.4201L18.3519 6.49919L14.9919 2.17919L13.8079 3.1001ZM3.3599 7.70965H19.6799V6.20965H3.3599V7.70965ZM19.6799 20.6097H3.3599V22.1097H19.6799V20.6097ZM3.1499 20.3997V7.91965H1.6499V20.3997H3.1499ZM3.3599 20.6097C3.24392 20.6097 3.1499 20.5156 3.1499 20.3997H1.6499C1.6499 21.3441 2.41549 22.1097 3.3599 22.1097V20.6097ZM19.8899 20.3997C19.8899 20.5156 19.7959 20.6097 19.6799 20.6097V22.1097C20.6243 22.1097 21.3899 21.3441 21.3899 20.3997H19.8899ZM19.6799 7.70965C19.7959 7.70965 19.8899 7.80367 19.8899 7.91965H21.3899C21.3899 6.97524 20.6243 6.20965 19.6799 6.20965V7.70965ZM3.3599 6.20965C2.4155 6.20965 1.6499 6.97524 1.6499 7.91965H3.1499C3.1499 7.80367 3.24392 7.70965 3.3599 7.70965V6.20965ZM19.8899 17.2797V20.3997H21.3899V17.2797H19.8899ZM19.8899 7.91965V10.4396H21.3899V7.91965H19.8899Z" fill="#DF1D32"/>
</svg>
