<svg width="41" height="40" viewBox="0 0 41 40" fill="none" xmlns="http://www.w3.org/2000/svg">
<path d="M25.9382 8.84678C27.4589 12.2001 29.3252 16.3152 30.7262 17.9498C30.9997 17.3148 30.9704 16.2499 31.283 13.6511C31.5653 11.3044 33.5008 11.0817 34.3312 11.2478C36.1679 11.6307 36.7274 13.4924 36.6662 14.1787C36.5685 15.2729 36.5637 15.2357 36.3633 17.8814C36.0702 21.7502 37.565 24.6714 37.7018 27.9833C37.7018 34.2262 32.2307 37.2939 28.401 37.2939C25.3372 37.2939 22.2721 35.3334 21.1225 34.3532L15.3779 29.1069C14.6745 28.5598 12.9359 26.7546 12.1733 25.7168C10.0943 22.8874 13.1015 20.9394 14.7916 21.4278C14.6587 21.3262 13.857 20.0243 13.4728 19.386C12.4411 17.3148 13.4728 15.9351 14.2348 15.5562C15.9641 14.6965 17.2341 15.6637 17.6347 16.1913C17.4816 15.9307 17.0016 14.8782 16.2279 12.9477C15.4541 11.0172 16.7001 9.82465 17.4198 9.46968C18.9829 8.74672 20.4679 9.66507 20.8392 10.4857C21.021 10.8876 22.0016 13.0354 22.4286 13.9826C22.1068 13.1972 21.524 11.6368 21.3179 10.9156C20.9076 9.21566 21.8943 8.04983 22.5195 7.75023C23.3889 7.33365 25.2025 7.22454 25.9194 8.80536L25.9382 8.84678Z" fill="url(#paint0_radial_14455_12688)"/>
<path d="M25.9382 8.84678C27.4589 12.2001 29.3252 16.3152 30.7262 17.9498C30.9997 17.3148 30.9704 16.2499 31.283 13.6511C31.5653 11.3044 33.5008 11.0817 34.3312 11.2478C36.1679 11.6307 36.7274 13.4924 36.6662 14.1787C36.5685 15.2729 36.5637 15.2357 36.3633 17.8814C36.0702 21.7502 37.565 24.6714 37.7018 27.9833C37.7018 34.2262 32.2307 37.2939 28.401 37.2939C25.3372 37.2939 22.2721 35.3334 21.1225 34.3532L15.3779 29.1069C14.6745 28.5598 12.9359 26.7546 12.1733 25.7168C10.0943 22.8874 13.1015 20.9394 14.7916 21.4278C14.6587 21.3262 13.857 20.0243 13.4728 19.386C12.4411 17.3148 13.4728 15.9351 14.2348 15.5562C15.9641 14.6965 17.2341 15.6637 17.6347 16.1913C17.4816 15.9307 17.0016 14.8782 16.2279 12.9477C15.4541 11.0172 16.7001 9.82465 17.4198 9.46968C18.9829 8.74672 20.4679 9.66507 20.8392 10.4857C21.021 10.8876 22.0016 13.0354 22.4286 13.9826C22.1068 13.1972 21.524 11.6368 21.3179 10.9156C20.9076 9.21566 21.8943 8.04983 22.5195 7.75023C23.3889 7.33365 25.2025 7.22454 25.9194 8.80536L25.9382 8.84678Z" fill="url(#paint1_radial_14455_12688)"/>
<path d="M36.6661 14.1787C36.5684 15.2729 36.5636 15.2357 36.3632 17.8814C36.2596 19.2484 37.0029 24.283 37.0029 24.283C35.1964 24.8729 31.2829 24.0908 30.7261 17.9498C30.9996 17.3148 30.9703 16.2499 31.2829 13.6511C31.5653 11.3044 33.5007 11.0817 34.3311 11.2478C36.1678 11.6308 36.7273 13.4924 36.6661 14.1787Z" fill="url(#paint2_radial_14455_12688)"/>
<path d="M36.6661 14.1787C36.5684 15.2729 36.5636 15.2357 36.3632 17.8814C36.2596 19.2484 37.0029 24.283 37.0029 24.283C35.1964 24.8729 31.2829 24.0908 30.7261 17.9498C30.9996 17.3148 30.9703 16.2499 31.2829 13.6511C31.5653 11.3044 33.5007 11.0817 34.3311 11.2478C36.1678 11.6308 36.7273 13.4924 36.6661 14.1787Z" fill="url(#paint3_radial_14455_12688)"/>
<path d="M36.6661 14.1787C36.5684 15.2729 36.5636 15.2357 36.3632 17.8814C36.2596 19.2484 37.0029 24.283 37.0029 24.283C35.1964 24.8729 31.2829 24.0908 30.7261 17.9498C30.9996 17.3148 30.9703 16.2499 31.2829 13.6511C31.5653 11.3044 33.5007 11.0817 34.3311 11.2478C36.1678 11.6308 36.7273 13.4924 36.6661 14.1787Z" fill="url(#paint4_radial_14455_12688)"/>
<path d="M25.9379 8.8468C27.4586 12.2001 29.3249 16.3152 30.7259 17.9498C30.5066 19.8203 28.8348 20.7146 27.3944 20.3798C25.5779 19.8525 24.889 18.5634 24.889 18.5634C24.889 18.5634 24.4146 17.8292 23.9515 17.0205C23.4158 16.085 23.5135 16.106 22.617 14.4132C22.4411 14.081 21.5782 11.8274 21.3176 10.9156C20.9073 9.21566 21.894 8.04983 22.5192 7.75023C23.3887 7.33365 25.2022 7.22454 25.9191 8.80536L25.9379 8.8468Z" fill="url(#paint5_radial_14455_12688)"/>
<path d="M25.9379 8.8468C27.4586 12.2001 29.3249 16.3152 30.7259 17.9498C30.5066 19.8203 28.8348 20.7146 27.3944 20.3798C25.5779 19.8525 24.889 18.5634 24.889 18.5634C24.889 18.5634 24.4146 17.8292 23.9515 17.0205C23.4158 16.085 23.5135 16.106 22.617 14.4132C22.4411 14.081 21.5782 11.8274 21.3176 10.9156C20.9073 9.21566 21.894 8.04983 22.5192 7.75023C23.3887 7.33365 25.2022 7.22454 25.9191 8.80536L25.9379 8.8468Z" fill="url(#paint6_linear_14455_12688)"/>
<path d="M25.9379 8.8468C27.4586 12.2001 29.3249 16.3152 30.7259 17.9498C30.5066 19.8203 28.8348 20.7146 27.3944 20.3798C25.5779 19.8525 24.889 18.5634 24.889 18.5634C24.889 18.5634 24.4146 17.8292 23.9515 17.0205C23.4158 16.085 23.5135 16.106 22.617 14.4132C22.4411 14.081 21.5782 11.8274 21.3176 10.9156C20.9073 9.21566 21.894 8.04983 22.5192 7.75023C23.3887 7.33365 25.2022 7.22454 25.9191 8.80536L25.9379 8.8468Z" fill="url(#paint7_radial_14455_12688)"/>
<path d="M25.9379 8.8468C27.4586 12.2001 29.3249 16.3152 30.7259 17.9498C30.5066 19.8203 28.8348 20.7146 27.3944 20.3798C25.5779 19.8525 24.889 18.5634 24.889 18.5634C24.889 18.5634 24.4146 17.8292 23.9515 17.0205C23.4158 16.085 23.5135 16.106 22.617 14.4132C22.4411 14.081 21.5782 11.8274 21.3176 10.9156C20.9073 9.21566 21.894 8.04983 22.5192 7.75023C23.3887 7.33365 25.2022 7.22454 25.9191 8.80536L25.9379 8.8468Z" fill="url(#paint8_radial_14455_12688)"/>
<path d="M25.9379 8.8468C27.4586 12.2001 29.3249 16.3152 30.7259 17.9498C30.5066 19.8203 28.8348 20.7146 27.3944 20.3798C25.5779 19.8525 24.889 18.5634 24.889 18.5634C24.889 18.5634 24.4146 17.8292 23.9515 17.0205C23.4158 16.085 23.5135 16.106 22.617 14.4132C22.4411 14.081 21.5782 11.8274 21.3176 10.9156C20.9073 9.21566 21.894 8.04983 22.5192 7.75023C23.3887 7.33365 25.2022 7.22454 25.9191 8.80536L25.9379 8.8468Z" fill="url(#paint9_linear_14455_12688)"/>
<path d="M20.8388 10.4857C21.0833 11.0263 22.7732 14.7258 22.6169 14.4132C23.0714 15.4377 24.4787 17.9384 24.8888 18.622C25.7933 20.1294 24.7725 21.3835 24.113 21.7666C22.2175 22.8674 21.1291 21.4638 21.1291 21.4638C20.1294 19.9982 19.2931 18.7783 17.6427 16.1806C17.245 15.432 16.5197 13.7587 16.2274 12.9477C15.506 10.9456 16.6997 9.82464 17.4194 9.46967C18.9825 8.74671 20.4675 9.66506 20.8388 10.4857Z" fill="url(#paint10_radial_14455_12688)"/>
<path d="M20.8388 10.4857C21.0833 11.0263 22.7732 14.7258 22.6169 14.4132C23.0714 15.4377 24.4787 17.9384 24.8888 18.622C25.7933 20.1294 24.7725 21.3835 24.113 21.7666C22.2175 22.8674 21.1291 21.4638 21.1291 21.4638C20.1294 19.9982 19.2931 18.7783 17.6427 16.1806C17.245 15.432 16.5197 13.7587 16.2274 12.9477C15.506 10.9456 16.6997 9.82464 17.4194 9.46967C18.9825 8.74671 20.4675 9.66506 20.8388 10.4857Z" fill="url(#paint11_linear_14455_12688)"/>
<path d="M20.8388 10.4857C21.0833 11.0263 22.7732 14.7258 22.6169 14.4132C23.0714 15.4377 24.4787 17.9384 24.8888 18.622C25.7933 20.1294 24.7725 21.3835 24.113 21.7666C22.2175 22.8674 21.1291 21.4638 21.1291 21.4638C20.1294 19.9982 19.2931 18.7783 17.6427 16.1806C17.245 15.432 16.5197 13.7587 16.2274 12.9477C15.506 10.9456 16.6997 9.82464 17.4194 9.46967C18.9825 8.74671 20.4675 9.66506 20.8388 10.4857Z" fill="url(#paint12_radial_14455_12688)"/>
<path d="M20.8388 10.4857C21.0833 11.0263 22.7732 14.7258 22.6169 14.4132C23.0714 15.4377 24.4787 17.9384 24.8888 18.622C25.7933 20.1294 24.7725 21.3835 24.113 21.7666C22.2175 22.8674 21.1291 21.4638 21.1291 21.4638C20.1294 19.9982 19.2931 18.7783 17.6427 16.1806C17.245 15.432 16.5197 13.7587 16.2274 12.9477C15.506 10.9456 16.6997 9.82464 17.4194 9.46967C18.9825 8.74671 20.4675 9.66506 20.8388 10.4857Z" fill="url(#paint13_radial_14455_12688)"/>
<path d="M20.8388 10.4857C21.0833 11.0263 22.7732 14.7258 22.6169 14.4132C23.0714 15.4377 24.4787 17.9384 24.8888 18.622C25.7933 20.1294 24.7725 21.3835 24.113 21.7666C22.2175 22.8674 21.1291 21.4638 21.1291 21.4638C20.1294 19.9982 19.2931 18.7783 17.6427 16.1806C17.245 15.432 16.5197 13.7587 16.2274 12.9477C15.506 10.9456 16.6997 9.82464 17.4194 9.46967C18.9825 8.74671 20.4675 9.66506 20.8388 10.4857Z" fill="url(#paint14_radial_14455_12688)"/>
<path d="M20.8388 10.4857C21.0833 11.0263 22.7732 14.7258 22.6169 14.4132C23.0714 15.4377 24.4787 17.9384 24.8888 18.622C25.7933 20.1294 24.7725 21.3835 24.113 21.7666C22.2175 22.8674 21.1291 21.4638 21.1291 21.4638C20.1294 19.9982 19.2931 18.7783 17.6427 16.1806C17.245 15.432 16.5197 13.7587 16.2274 12.9477C15.506 10.9456 16.6997 9.82464 17.4194 9.46967C18.9825 8.74671 20.4675 9.66506 20.8388 10.4857Z" fill="url(#paint15_linear_14455_12688)"/>
<path d="M14.2346 15.5562C15.9638 14.6964 17.2339 15.6636 17.6344 16.1912C18.883 18.0751 20.3723 20.2175 21.0608 21.3563C22.8967 24.3934 19.1369 25.7118 19.1369 25.7118C15.6799 21.8153 15.0403 21.6182 14.7913 21.4278C14.6585 21.3262 13.8567 20.0242 13.4725 19.3859C12.4408 17.3147 13.4725 15.935 14.2346 15.5562Z" fill="url(#paint16_radial_14455_12688)"/>
<path d="M14.2346 15.5562C15.9638 14.6964 17.2339 15.6636 17.6344 16.1912C18.883 18.0751 20.3723 20.2175 21.0608 21.3563C22.8967 24.3934 19.1369 25.7118 19.1369 25.7118C15.6799 21.8153 15.0403 21.6182 14.7913 21.4278C14.6585 21.3262 13.8567 20.0242 13.4725 19.3859C12.4408 17.3147 13.4725 15.935 14.2346 15.5562Z" fill="url(#paint17_linear_14455_12688)"/>
<path d="M14.2346 15.5562C15.9638 14.6964 17.2339 15.6636 17.6344 16.1912C18.883 18.0751 20.3723 20.2175 21.0608 21.3563C22.8967 24.3934 19.1369 25.7118 19.1369 25.7118C15.6799 21.8153 15.0403 21.6182 14.7913 21.4278C14.6585 21.3262 13.8567 20.0242 13.4725 19.3859C12.4408 17.3147 13.4725 15.935 14.2346 15.5562Z" fill="url(#paint18_radial_14455_12688)"/>
<path d="M14.2346 15.5562C15.9638 14.6964 17.2339 15.6636 17.6344 16.1912C18.883 18.0751 20.3723 20.2175 21.0608 21.3563C22.8967 24.3934 19.1369 25.7118 19.1369 25.7118C15.6799 21.8153 15.0403 21.6182 14.7913 21.4278C14.6585 21.3262 13.8567 20.0242 13.4725 19.3859C12.4408 17.3147 13.4725 15.935 14.2346 15.5562Z" fill="url(#paint19_radial_14455_12688)"/>
<path d="M14.2346 15.5562C15.9638 14.6964 17.2339 15.6636 17.6344 16.1912C18.883 18.0751 20.3723 20.2175 21.0608 21.3563C22.8967 24.3934 19.1369 25.7118 19.1369 25.7118C15.6799 21.8153 15.0403 21.6182 14.7913 21.4278C14.6585 21.3262 13.8567 20.0242 13.4725 19.3859C12.4408 17.3147 13.4725 15.935 14.2346 15.5562Z" fill="url(#paint20_radial_14455_12688)"/>
<path d="M14.2346 15.5562C15.9638 14.6964 17.2339 15.6636 17.6344 16.1912C18.883 18.0751 20.3723 20.2175 21.0608 21.3563C22.8967 24.3934 19.1369 25.7118 19.1369 25.7118C15.6799 21.8153 15.0403 21.6182 14.7913 21.4278C14.6585 21.3262 13.8567 20.0242 13.4725 19.3859C12.4408 17.3147 13.4725 15.935 14.2346 15.5562Z" fill="url(#paint21_radial_14455_12688)"/>
<path d="M12.1733 25.7167C10.0943 22.8874 13.1015 20.9393 14.7916 21.4278C15.5924 21.9228 16.8279 23.1617 17.3556 23.7197C20.7072 26.9886 20.1486 27.997 19.2111 29.1068C18.3028 29.8605 17.1218 30.4632 15.3779 29.1068C14.6745 28.5597 12.9359 26.7546 12.1733 25.7167Z" fill="url(#paint22_radial_14455_12688)"/>
<path d="M12.1733 25.7167C10.0943 22.8874 13.1015 20.9393 14.7916 21.4278C15.5924 21.9228 16.8279 23.1617 17.3556 23.7197C20.7072 26.9886 20.1486 27.997 19.2111 29.1068C18.3028 29.8605 17.1218 30.4632 15.3779 29.1068C14.6745 28.5597 12.9359 26.7546 12.1733 25.7167Z" fill="url(#paint23_radial_14455_12688)"/>
<path d="M12.1733 25.7167C10.0943 22.8874 13.1015 20.9393 14.7916 21.4278C15.5924 21.9228 16.8279 23.1617 17.3556 23.7197C20.7072 26.9886 20.1486 27.997 19.2111 29.1068C18.3028 29.8605 17.1218 30.4632 15.3779 29.1068C14.6745 28.5597 12.9359 26.7546 12.1733 25.7167Z" fill="url(#paint24_radial_14455_12688)"/>
<path d="M12.1733 25.7167C10.0943 22.8874 13.1015 20.9393 14.7916 21.4278C15.5924 21.9228 16.8279 23.1617 17.3556 23.7197C20.7072 26.9886 20.1486 27.997 19.2111 29.1068C18.3028 29.8605 17.1218 30.4632 15.3779 29.1068C14.6745 28.5597 12.9359 26.7546 12.1733 25.7167Z" fill="url(#paint25_radial_14455_12688)"/>
<path d="M12.1733 25.7167C10.0943 22.8874 13.1015 20.9393 14.7916 21.4278C15.5924 21.9228 16.8279 23.1617 17.3556 23.7197C20.7072 26.9886 20.1486 27.997 19.2111 29.1068C18.3028 29.8605 17.1218 30.4632 15.3779 29.1068C14.6745 28.5597 12.9359 26.7546 12.1733 25.7167Z" fill="url(#paint26_linear_14455_12688)"/>
<path d="M25.9382 8.84678C27.4589 12.2001 29.3252 16.3152 30.7262 17.9498C30.9997 17.3148 30.9704 16.2499 31.283 13.6511C31.5653 11.3044 33.5008 11.0817 34.3312 11.2478C36.1679 11.6307 36.7274 13.4924 36.6662 14.1787C36.5685 15.2729 36.5637 15.2357 36.3633 17.8814C36.0702 21.7502 37.565 24.6714 37.7018 27.9833C37.7018 34.2262 32.2307 37.2939 28.401 37.2939C25.3372 37.2939 22.2721 35.3334 21.1225 34.3532L15.3779 29.1069C14.6745 28.5598 12.9359 26.7546 12.1733 25.7168C10.0943 22.8874 13.1015 20.9394 14.7916 21.4278C14.6587 21.3262 13.857 20.0243 13.4728 19.386C12.4411 17.3148 13.4728 15.9351 14.2348 15.5562C15.9641 14.6965 17.2341 15.6637 17.6347 16.1913C17.4816 15.9307 17.0016 14.8782 16.2279 12.9477C15.4541 11.0172 16.7001 9.82465 17.4198 9.46968C18.9829 8.74672 20.4679 9.66507 20.8392 10.4857C21.021 10.8876 22.0016 13.0354 22.4286 13.9826C22.1068 13.1972 21.524 11.6368 21.3179 10.9156C20.9076 9.21566 21.8943 8.04983 22.5195 7.75023C23.3889 7.33365 25.2025 7.22454 25.9194 8.80536L25.9382 8.84678Z" fill="url(#paint27_radial_14455_12688)"/>
<path d="M25.9382 8.84678C27.4589 12.2001 29.3252 16.3152 30.7262 17.9498C30.9997 17.3148 30.9704 16.2499 31.283 13.6511C31.5653 11.3044 33.5008 11.0817 34.3312 11.2478C36.1679 11.6307 36.7274 13.4924 36.6662 14.1787C36.5685 15.2729 36.5637 15.2357 36.3633 17.8814C36.0702 21.7502 37.565 24.6714 37.7018 27.9833C37.7018 34.2262 32.2307 37.2939 28.401 37.2939C25.3372 37.2939 22.2721 35.3334 21.1225 34.3532L15.3779 29.1069C14.6745 28.5598 12.9359 26.7546 12.1733 25.7168C10.0943 22.8874 13.1015 20.9394 14.7916 21.4278C14.6587 21.3262 13.857 20.0243 13.4728 19.386C12.4411 17.3148 13.4728 15.9351 14.2348 15.5562C15.9641 14.6965 17.2341 15.6637 17.6347 16.1913C17.4816 15.9307 17.0016 14.8782 16.2279 12.9477C15.4541 11.0172 16.7001 9.82465 17.4198 9.46968C18.9829 8.74672 20.4679 9.66507 20.8392 10.4857C21.021 10.8876 22.0016 13.0354 22.4286 13.9826C22.1068 13.1972 21.524 11.6368 21.3179 10.9156C20.9076 9.21566 21.8943 8.04983 22.5195 7.75023C23.3889 7.33365 25.2025 7.22454 25.9194 8.80536L25.9382 8.84678Z" fill="url(#paint28_radial_14455_12688)"/>
<path d="M25.9382 8.84678C27.4589 12.2001 29.3252 16.3152 30.7262 17.9498C30.9997 17.3148 30.9704 16.2499 31.283 13.6511C31.5653 11.3044 33.5008 11.0817 34.3312 11.2478C36.1679 11.6307 36.7274 13.4924 36.6662 14.1787C36.5685 15.2729 36.5637 15.2357 36.3633 17.8814C36.0702 21.7502 37.565 24.6714 37.7018 27.9833C37.7018 34.2262 32.2307 37.2939 28.401 37.2939C25.3372 37.2939 22.2721 35.3334 21.1225 34.3532L15.3779 29.1069C14.6745 28.5598 12.9359 26.7546 12.1733 25.7168C10.0943 22.8874 13.1015 20.9394 14.7916 21.4278C14.6587 21.3262 13.857 20.0243 13.4728 19.386C12.4411 17.3148 13.4728 15.9351 14.2348 15.5562C15.9641 14.6965 17.2341 15.6637 17.6347 16.1913C17.4816 15.9307 17.0016 14.8782 16.2279 12.9477C15.4541 11.0172 16.7001 9.82465 17.4198 9.46968C18.9829 8.74672 20.4679 9.66507 20.8392 10.4857C21.021 10.8876 22.0016 13.0354 22.4286 13.9826C22.1068 13.1972 21.524 11.6368 21.3179 10.9156C20.9076 9.21566 21.8943 8.04983 22.5195 7.75023C23.3889 7.33365 25.2025 7.22454 25.9194 8.80536L25.9382 8.84678Z" fill="url(#paint29_radial_14455_12688)"/>
<path d="M28.0579 13.3344C28.9964 15.2526 29.9339 16.971 30.7262 17.9119C30.8072 18.749 30.8804 19.2275 31.0806 19.9501C29.4986 18.3681 27.9687 14.9086 28.0579 13.3344Z" fill="url(#paint30_radial_14455_12688)"/>
<path fill-rule="evenodd" clip-rule="evenodd" d="M5.65759 21.1255C6.02967 21.1255 6.3313 21.4271 6.3313 21.7992C6.3313 22.925 6.78656 24.4318 7.76722 25.6482C8.73111 26.8438 10.1921 27.7494 12.2424 27.7494C12.6145 27.7494 12.9161 28.051 12.9161 28.4231C12.9161 28.7952 12.6145 29.0968 12.2424 29.0968C9.73999 29.0968 7.90858 27.9703 6.71825 26.4939C5.54468 25.0382 4.98389 23.2331 4.98389 21.7992C4.98389 21.4271 5.28552 21.1255 5.65759 21.1255Z" fill="url(#paint31_radial_14455_12688)"/>
<path fill-rule="evenodd" clip-rule="evenodd" d="M5.65759 21.1255C6.02967 21.1255 6.3313 21.4271 6.3313 21.7992C6.3313 22.925 6.78656 24.4318 7.76722 25.6482C8.73111 26.8438 10.1921 27.7494 12.2424 27.7494C12.6145 27.7494 12.9161 28.051 12.9161 28.4231C12.9161 28.7952 12.6145 29.0968 12.2424 29.0968C9.73999 29.0968 7.90858 27.9703 6.71825 26.4939C5.54468 25.0382 4.98389 23.2331 4.98389 21.7992C4.98389 21.4271 5.28552 21.1255 5.65759 21.1255Z" fill="url(#paint32_radial_14455_12688)"/>
<path fill-rule="evenodd" clip-rule="evenodd" d="M5.65759 21.1255C6.02967 21.1255 6.3313 21.4271 6.3313 21.7992C6.3313 22.925 6.78656 24.4318 7.76722 25.6482C8.73111 26.8438 10.1921 27.7494 12.2424 27.7494C12.6145 27.7494 12.9161 28.051 12.9161 28.4231C12.9161 28.7952 12.6145 29.0968 12.2424 29.0968C9.73999 29.0968 7.90858 27.9703 6.71825 26.4939C5.54468 25.0382 4.98389 23.2331 4.98389 21.7992C4.98389 21.4271 5.28552 21.1255 5.65759 21.1255Z" fill="url(#paint33_radial_14455_12688)"/>
<path fill-rule="evenodd" clip-rule="evenodd" d="M3.56042 23.5289C3.9325 23.5289 4.23413 23.8306 4.23413 24.2026C4.23413 26.5907 6.02299 29.7816 9.77948 29.7816C10.1516 29.7816 10.4532 30.0832 10.4532 30.4553C10.4532 30.8273 10.1516 31.129 9.77948 31.129C5.05583 31.129 2.88672 27.0903 2.88672 24.2026C2.88672 23.8306 3.18835 23.5289 3.56042 23.5289Z" fill="url(#paint34_radial_14455_12688)"/>
<path fill-rule="evenodd" clip-rule="evenodd" d="M3.56042 23.5289C3.9325 23.5289 4.23413 23.8306 4.23413 24.2026C4.23413 26.5907 6.02299 29.7816 9.77948 29.7816C10.1516 29.7816 10.4532 30.0832 10.4532 30.4553C10.4532 30.8273 10.1516 31.129 9.77948 31.129C5.05583 31.129 2.88672 27.0903 2.88672 24.2026C2.88672 23.8306 3.18835 23.5289 3.56042 23.5289Z" fill="url(#paint35_radial_14455_12688)"/>
<path fill-rule="evenodd" clip-rule="evenodd" d="M28.7955 12.3149C28.4235 12.3173 28.1199 12.0177 28.1175 11.6456C28.1101 10.5198 27.645 9.01603 26.6564 7.80609C25.6847 6.61684 24.2178 5.72078 22.1676 5.73418C21.7955 5.73662 21.4919 5.43697 21.4895 5.0649C21.4871 4.69283 21.7867 4.38923 22.1588 4.3868C24.6611 4.37045 26.4999 5.48493 27.6998 6.95357C28.8829 8.40151 29.4555 10.203 29.4648 11.6368C29.4673 12.0089 29.1676 12.3125 28.7955 12.3149Z" fill="url(#paint36_radial_14455_12688)"/>
<path fill-rule="evenodd" clip-rule="evenodd" d="M28.7955 12.3149C28.4235 12.3173 28.1199 12.0177 28.1175 11.6456C28.1101 10.5198 27.645 9.01603 26.6564 7.80609C25.6847 6.61684 24.2178 5.72078 22.1676 5.73418C21.7955 5.73662 21.4919 5.43697 21.4895 5.0649C21.4871 4.69283 21.7867 4.38923 22.1588 4.3868C24.6611 4.37045 26.4999 5.48493 27.6998 6.95357C28.8829 8.40151 29.4555 10.203 29.4648 11.6368C29.4673 12.0089 29.1676 12.3125 28.7955 12.3149Z" fill="url(#paint37_radial_14455_12688)"/>
<path fill-rule="evenodd" clip-rule="evenodd" d="M30.8751 9.8982C30.5031 9.90063 30.1995 9.60098 30.197 9.22891C30.1814 6.84093 28.3718 3.6618 24.6154 3.68635C24.2433 3.68878 23.9397 3.38913 23.9373 3.01706C23.9348 2.64499 24.2345 2.3414 24.6065 2.33897C29.3301 2.30809 31.5256 6.33254 31.5444 9.22011C31.5469 9.59218 31.2472 9.89577 30.8751 9.8982Z" fill="url(#paint38_radial_14455_12688)"/>
<path fill-rule="evenodd" clip-rule="evenodd" d="M30.8751 9.8982C30.5031 9.90063 30.1995 9.60098 30.197 9.22891C30.1814 6.84093 28.3718 3.6618 24.6154 3.68635C24.2433 3.68878 23.9397 3.38913 23.9373 3.01706C23.9348 2.64499 24.2345 2.3414 24.6065 2.33897C29.3301 2.30809 31.5256 6.33254 31.5444 9.22011C31.5469 9.59218 31.2472 9.89577 30.8751 9.8982Z" fill="url(#paint39_radial_14455_12688)"/>
<g filter="url(#filter0_f_14455_12688)">
<path d="M28.6641 18.0361C26.2422 19.0127 20.7648 22.2202 19.1541 29.3665" stroke="#FFC339" stroke-width="2" stroke-linecap="round"/>
</g>
<defs>
<filter id="filter0_f_14455_12688" x="16.1538" y="15.0359" width="15.5107" height="17.3308" filterUnits="userSpaceOnUse" color-interpolation-filters="sRGB">
<feFlood flood-opacity="0" result="BackgroundImageFix"/>
<feBlend mode="normal" in="SourceGraphic" in2="BackgroundImageFix" result="shape"/>
<feGaussianBlur stdDeviation="1" result="effect1_foregroundBlur_14455_12688"/>
</filter>
<radialGradient id="paint0_radial_14455_12688" cx="0" cy="0" r="1" gradientUnits="userSpaceOnUse" gradientTransform="translate(24.5843 17.2939) rotate(60.1006) scale(26.315 17.1912)">
<stop offset="0.00323036" stop-color="#FFC133"/>
<stop offset="0.697824" stop-color="#FFC53F"/>
<stop offset="0.797459" stop-color="#FFAD3E"/>
<stop offset="0.945275" stop-color="#EC7D58"/>
</radialGradient>
<radialGradient id="paint1_radial_14455_12688" cx="0" cy="0" r="1" gradientUnits="userSpaceOnUse" gradientTransform="translate(37.7018 23.0752) rotate(-93.0118) scale(15.6126 5.98113)">
<stop offset="0.00323036" stop-color="#FFE849"/>
<stop offset="1" stop-color="#FFE647" stop-opacity="0"/>
</radialGradient>
<radialGradient id="paint2_radial_14455_12688" cx="0" cy="0" r="1" gradientUnits="userSpaceOnUse" gradientTransform="translate(35.8267 11.9033) rotate(99.6824) scale(8.36129 3.20319)">
<stop offset="0.00323036" stop-color="#FFE849"/>
<stop offset="1" stop-color="#FFE647" stop-opacity="0"/>
</radialGradient>
<radialGradient id="paint3_radial_14455_12688" cx="0" cy="0" r="1" gradientUnits="userSpaceOnUse" gradientTransform="translate(30.7261 16.9387) scale(3.38184 13.7146)">
<stop stop-color="#EE9F2C"/>
<stop offset="1" stop-color="#EE9F2C" stop-opacity="0"/>
</radialGradient>
<radialGradient id="paint4_radial_14455_12688" cx="0" cy="0" r="1" gradientUnits="userSpaceOnUse" gradientTransform="translate(32.2101 22.2553) rotate(-94.0856) scale(5.69213 3.95364)">
<stop stop-color="#FFC93D"/>
<stop offset="1" stop-color="#FFC33A" stop-opacity="0"/>
</radialGradient>
<radialGradient id="paint5_radial_14455_12688" cx="0" cy="0" r="1" gradientUnits="userSpaceOnUse" gradientTransform="translate(29.0296 13.6141) rotate(151.024) scale(5.98335 12.0194)">
<stop offset="0.563302" stop-color="#F09D2E" stop-opacity="0"/>
<stop offset="1" stop-color="#F09D2E"/>
</radialGradient>
<linearGradient id="paint6_linear_14455_12688" x1="25.9733" y1="19.744" x2="25.9733" y2="16.5127" gradientUnits="userSpaceOnUse">
<stop stop-color="#FFC337"/>
<stop offset="1" stop-color="#FFC337" stop-opacity="0"/>
</linearGradient>
<radialGradient id="paint7_radial_14455_12688" cx="0" cy="0" r="1" gradientUnits="userSpaceOnUse" gradientTransform="translate(27.7796 8.85641) rotate(-13.4957) scale(4.01718 8.88346)">
<stop stop-color="#FFEC4C"/>
<stop offset="1" stop-color="#FFEC4C" stop-opacity="0"/>
</radialGradient>
<radialGradient id="paint8_radial_14455_12688" cx="0" cy="0" r="1" gradientUnits="userSpaceOnUse" gradientTransform="translate(21.2207 7.48413) rotate(33.3063) scale(3.92182 3.04061)">
<stop stop-color="#D99F2B"/>
<stop offset="1" stop-color="#D99F2B" stop-opacity="0"/>
</radialGradient>
<linearGradient id="paint9_linear_14455_12688" x1="21.8421" y1="15.3798" x2="23.7952" y2="14.4423" gradientUnits="userSpaceOnUse">
<stop stop-color="#A85300"/>
<stop offset="0.824742" stop-color="#A85300" stop-opacity="0"/>
</linearGradient>
<radialGradient id="paint10_radial_14455_12688" cx="0" cy="0" r="1" gradientUnits="userSpaceOnUse" gradientTransform="translate(23.3908 15.4631) rotate(149.148) scale(5.76769 12.036)">
<stop offset="0.563302" stop-color="#F09D2E" stop-opacity="0"/>
<stop offset="1" stop-color="#F09D2E"/>
</radialGradient>
<linearGradient id="paint11_linear_14455_12688" x1="20.4997" y1="21.7183" x2="20.4997" y2="18.421" gradientUnits="userSpaceOnUse">
<stop stop-color="#FFC337"/>
<stop offset="1" stop-color="#FFC337" stop-opacity="0"/>
</linearGradient>
<radialGradient id="paint12_radial_14455_12688" cx="0" cy="0" r="1" gradientUnits="userSpaceOnUse" gradientTransform="translate(22.7262 11.7861) rotate(-33.8929) scale(3.82769 11.6534)">
<stop stop-color="#FFEC4C"/>
<stop offset="1" stop-color="#FFEC4C" stop-opacity="0"/>
</radialGradient>
<radialGradient id="paint13_radial_14455_12688" cx="0" cy="0" r="1" gradientUnits="userSpaceOnUse" gradientTransform="translate(19.8107 16.5127) rotate(-24.9048) scale(4.82355 22.0248)">
<stop offset="0.597587" stop-color="#F09D2E" stop-opacity="0"/>
<stop offset="1" stop-color="#F09D2E"/>
</radialGradient>
<radialGradient id="paint14_radial_14455_12688" cx="0" cy="0" r="1" gradientUnits="userSpaceOnUse" gradientTransform="translate(15.4357 9.20795) rotate(32.6006) scale(3.98764 3.17821)">
<stop stop-color="#D99F2B"/>
<stop offset="1" stop-color="#D99F2B" stop-opacity="0"/>
</radialGradient>
<linearGradient id="paint15_linear_14455_12688" x1="17.1935" y1="17.2939" x2="18.4931" y2="16.3853" gradientUnits="userSpaceOnUse">
<stop stop-color="#A85300"/>
<stop offset="0.824742" stop-color="#A85300" stop-opacity="0"/>
</linearGradient>
<radialGradient id="paint16_radial_14455_12688" cx="0" cy="0" r="1" gradientUnits="userSpaceOnUse" gradientTransform="translate(20.044 20.4628) rotate(137.351) scale(4.77822 9.35667)">
<stop offset="0.563302" stop-color="#F09D2E" stop-opacity="0"/>
<stop offset="1" stop-color="#F09D2E"/>
</radialGradient>
<linearGradient id="paint17_linear_14455_12688" x1="17.302" y1="25.7118" x2="17.302" y2="22.9448" gradientUnits="userSpaceOnUse">
<stop stop-color="#FFC337"/>
<stop offset="1" stop-color="#FFC337" stop-opacity="0"/>
</linearGradient>
<radialGradient id="paint18_radial_14455_12688" cx="0" cy="0" r="1" gradientUnits="userSpaceOnUse" gradientTransform="translate(18.8714 16.3611) rotate(-12.2956) scale(3.63918 7.70879)">
<stop stop-color="#FFEC4C"/>
<stop offset="1" stop-color="#FFEC4C" stop-opacity="0"/>
</radialGradient>
<radialGradient id="paint19_radial_14455_12688" cx="0" cy="0" r="1" gradientUnits="userSpaceOnUse" gradientTransform="translate(16.6485 21.3435) rotate(-40.2165) scale(5.06198 25.8786)">
<stop offset="0.597587" stop-color="#F09D2E" stop-opacity="0"/>
<stop offset="1" stop-color="#F09D2E"/>
</radialGradient>
<radialGradient id="paint20_radial_14455_12688" cx="0" cy="0" r="1" gradientUnits="userSpaceOnUse" gradientTransform="translate(12.4992 15.2138) rotate(29.5034) scale(3.66082 2.75523)">
<stop stop-color="#D99F2B"/>
<stop offset="1" stop-color="#D99F2B" stop-opacity="0"/>
</radialGradient>
<radialGradient id="paint21_radial_14455_12688" cx="0" cy="0" r="1" gradientUnits="userSpaceOnUse" gradientTransform="translate(14.4202 22.411) rotate(-45.7639) scale(2.07179 9.35434)">
<stop stop-color="#A85300"/>
<stop offset="0.824742" stop-color="#A85300" stop-opacity="0"/>
</radialGradient>
<radialGradient id="paint22_radial_14455_12688" cx="0" cy="0" r="1" gradientUnits="userSpaceOnUse" gradientTransform="translate(18.9816 25.8973) rotate(143.369) scale(4.69752 8.83866)">
<stop offset="0.563302" stop-color="#F09D2E" stop-opacity="0"/>
<stop offset="1" stop-color="#F09D2E"/>
</radialGradient>
<radialGradient id="paint23_radial_14455_12688" cx="0" cy="0" r="1" gradientUnits="userSpaceOnUse" gradientTransform="translate(17.7238 22.346) rotate(-9.97765) scale(3.87256 6.7276)">
<stop stop-color="#FFEC4C"/>
<stop offset="1" stop-color="#FFEC4C" stop-opacity="0"/>
</radialGradient>
<radialGradient id="paint24_radial_14455_12688" cx="0" cy="0" r="1" gradientUnits="userSpaceOnUse" gradientTransform="translate(15.3395 26.6598) rotate(-34.3137) scale(5.01978 24.2352)">
<stop offset="0.597587" stop-color="#F09D2E" stop-opacity="0"/>
<stop offset="1" stop-color="#F09D2E"/>
</radialGradient>
<radialGradient id="paint25_radial_14455_12688" cx="0" cy="0" r="1" gradientUnits="userSpaceOnUse" gradientTransform="translate(10.8888 21.3527) rotate(24.5478) scale(3.75713 2.49315)">
<stop stop-color="#D99F2B"/>
<stop offset="1" stop-color="#D99F2B" stop-opacity="0"/>
</radialGradient>
<linearGradient id="paint26_linear_14455_12688" x1="19.1861" y1="34.4814" x2="16.0404" y2="28.0462" gradientUnits="userSpaceOnUse">
<stop stop-color="#FFC337"/>
<stop offset="1" stop-color="#FFC337" stop-opacity="0"/>
</linearGradient>
<radialGradient id="paint27_radial_14455_12688" cx="0" cy="0" r="1" gradientUnits="userSpaceOnUse" gradientTransform="translate(30.4361 15.6533) rotate(129.014) scale(21.7183 35.1232)">
<stop offset="0.872168" stop-color="#F6814F" stop-opacity="0"/>
<stop offset="1" stop-color="#F7814F"/>
</radialGradient>
<radialGradient id="paint28_radial_14455_12688" cx="0" cy="0" r="1" gradientUnits="userSpaceOnUse" gradientTransform="translate(25.9049 15.8877) rotate(76.293) scale(23.0792 25.3228)">
<stop offset="0.853453" stop-color="#F6814F" stop-opacity="0"/>
<stop offset="1" stop-color="#F7814F"/>
</radialGradient>
<radialGradient id="paint29_radial_14455_12688" cx="0" cy="0" r="1" gradientUnits="userSpaceOnUse" gradientTransform="translate(31.1393 10.0283) rotate(64.44) scale(3.98361 3.55132)">
<stop stop-color="#D99F2B"/>
<stop offset="1" stop-color="#D99F2B" stop-opacity="0"/>
</radialGradient>
<radialGradient id="paint30_radial_14455_12688" cx="0" cy="0" r="1" gradientUnits="userSpaceOnUse" gradientTransform="translate(31.0806 17.6454) rotate(149.254) scale(1.517 4.69417)">
<stop offset="0.200941" stop-color="#B4813D"/>
<stop offset="1" stop-color="#B4813D" stop-opacity="0"/>
</radialGradient>
<radialGradient id="paint31_radial_14455_12688" cx="0" cy="0" r="1" gradientUnits="userSpaceOnUse" gradientTransform="translate(6.6161 21.4866) rotate(62.071) scale(6.64021 9.84773)">
<stop stop-color="#419FFD"/>
<stop offset="1" stop-color="#4B6DCB"/>
</radialGradient>
<radialGradient id="paint32_radial_14455_12688" cx="0" cy="0" r="1" gradientUnits="userSpaceOnUse" gradientTransform="translate(4.73832 21.9814) rotate(2.38594) scale(0.938313 1.97469)">
<stop stop-color="#5486C7"/>
<stop offset="1" stop-color="#5486C7" stop-opacity="0"/>
</radialGradient>
<radialGradient id="paint33_radial_14455_12688" cx="0" cy="0" r="1" gradientUnits="userSpaceOnUse" gradientTransform="translate(11.7696 27.3329) rotate(111.801) scale(0.946611 2.78434)">
<stop stop-color="#5486C7"/>
<stop offset="1" stop-color="#5486C7" stop-opacity="0"/>
</radialGradient>
<radialGradient id="paint34_radial_14455_12688" cx="0" cy="0" r="1" gradientUnits="userSpaceOnUse" gradientTransform="translate(7.10143 24.9502) rotate(94.7123) scale(5.25213 8.83094)">
<stop stop-color="#419FFD"/>
<stop offset="1" stop-color="#4B6DCB"/>
</radialGradient>
<radialGradient id="paint35_radial_14455_12688" cx="0" cy="0" r="1" gradientUnits="userSpaceOnUse" gradientTransform="translate(2.65247 24.345) rotate(2.38479) scale(0.895047 1.88272)">
<stop stop-color="#5486C7"/>
<stop offset="1" stop-color="#5486C7" stop-opacity="0"/>
</radialGradient>
<radialGradient id="paint36_radial_14455_12688" cx="0" cy="0" r="1" gradientUnits="userSpaceOnUse" gradientTransform="translate(23.6348 2.93267) rotate(60.1958) scale(5.57899 8.27389)">
<stop stop-color="#419FFD"/>
<stop offset="1" stop-color="#4B6DCB"/>
</radialGradient>
<radialGradient id="paint37_radial_14455_12688" cx="0" cy="0" r="1" gradientUnits="userSpaceOnUse" gradientTransform="translate(21.3377 4.95291) rotate(18.8618) scale(0.80264 1.29189)">
<stop stop-color="#4D8AC1"/>
<stop offset="1" stop-color="#4D8AC1" stop-opacity="0"/>
</radialGradient>
<radialGradient id="paint38_radial_14455_12688" cx="0" cy="0" r="1" gradientUnits="userSpaceOnUse" gradientTransform="translate(25.9835 0.952758) rotate(60.69) scale(6.93078 10.2813)">
<stop stop-color="#419FFD"/>
<stop offset="1" stop-color="#4B6DCB"/>
</radialGradient>
<radialGradient id="paint39_radial_14455_12688" cx="0" cy="0" r="1" gradientUnits="userSpaceOnUse" gradientTransform="translate(23.7923 2.87891) rotate(18.8531) scale(0.76559 1.23179)">
<stop stop-color="#4D8AC1"/>
<stop offset="1" stop-color="#4D8AC1" stop-opacity="0"/>
</radialGradient>
</defs>
</svg>
