<svg width="61" height="60" viewBox="0 0 61 60" fill="none" xmlns="http://www.w3.org/2000/svg">
<path d="M44.9023 42.0297L42.5409 44.3912L36.2565 38.1067L38.6179 35.7452L44.9023 42.0297Z" fill="#BFBFBF"/>
<path d="M43.7411 43.1913L42.5413 44.3912L36.2568 38.1067L37.4567 36.9069L43.7411 43.1913Z" fill="#8C8C8C"/>
<path d="M43.7104 22.278C43.7104 26.4204 42.4821 30.4697 40.1807 33.9139C37.8794 37.3581 34.6084 40.0425 30.7814 41.6278C26.9543 43.213 22.7432 43.6277 18.6805 42.8196C14.6177 42.0115 10.8859 40.0167 7.95681 37.0877C5.02774 34.1586 3.03302 30.4267 2.22489 26.364C1.41676 22.3013 1.83152 18.0901 3.41672 14.2631C5.00192 10.4361 7.68637 7.1651 11.1306 4.86374C14.5748 2.56239 18.6241 1.33405 22.7664 1.33405C28.3211 1.33405 33.6483 3.54064 37.5761 7.4684C41.5038 11.3962 43.7104 16.7233 43.7104 22.278Z" fill="#66CCFF"/>
<path d="M24.0097 43.1843C23.5984 43.2083 23.1842 43.222 22.7667 43.222C17.212 43.222 11.8849 41.0154 7.95711 37.0877C4.02935 33.1599 1.82275 27.8327 1.82275 22.278C1.82275 16.7233 4.02935 11.3962 7.95711 7.4684C11.8849 3.54064 17.212 1.33405 22.7667 1.33405C23.1842 1.33405 23.5988 1.34776 24.0097 1.37178C18.6798 1.68865 13.6722 4.02925 10.0105 7.91513C6.34878 11.801 4.30949 16.9387 4.30949 22.278C4.30949 27.6173 6.34878 32.755 10.0105 36.6409C13.6722 40.5268 18.6798 42.8674 24.0097 43.1843Z" fill="#4DA6FF"/>
<path d="M39.2691 22.278C39.2691 25.542 38.3013 28.7326 36.4879 31.4464C34.6746 34.1603 32.0972 36.2755 29.0817 37.5245C26.0663 38.7736 22.7481 39.1004 19.5469 38.4636C16.3457 37.8269 13.4052 36.2551 11.0973 33.9472C8.78932 31.6392 7.2176 28.6987 6.58084 25.4975C5.94407 22.2963 6.27088 18.9782 7.51993 15.9627C8.76898 12.9472 10.8842 10.3699 13.598 8.55654C16.3119 6.7432 19.5025 5.77533 22.7664 5.77533C24.9336 5.77531 27.0796 6.20216 29.0818 7.03149C31.084 7.86082 32.9032 9.0764 34.4356 10.6088C35.9681 12.1412 37.1836 13.9605 38.013 15.9627C38.8423 17.9649 39.2691 20.1109 39.2691 22.278Z" fill="#F5F5F5"/>
<path d="M24.0848 38.7283C23.6499 38.7626 23.2104 38.7801 22.7664 38.7807C18.3896 38.7807 14.1921 37.042 11.0973 33.9472C8.0024 30.8523 6.26373 26.6548 6.26373 22.278C6.26373 17.9012 8.0024 13.7037 11.0973 10.6089C14.1921 7.514 18.3896 5.77533 22.7664 5.77533C23.2103 5.77533 23.6498 5.79283 24.0848 5.82783C19.9495 6.1594 16.0908 8.03626 13.277 11.0847C10.4632 14.1332 8.90072 18.1295 8.90072 22.2781C8.90072 26.4266 10.4632 30.423 13.277 33.4715C16.0908 36.5199 19.9495 38.3968 24.0848 38.7283Z" fill="#E6E6E6"/>
<path d="M52.945 57.2889L41.5726 45.9164C41.4321 45.7758 41.3531 45.5851 41.3531 45.3863C41.3531 45.1875 41.4321 44.9968 41.5726 44.8562L41.7977 44.631L45.1426 41.2862L45.3677 41.0611C45.5083 40.9205 45.699 40.8416 45.8979 40.8416C46.0967 40.8416 46.2874 40.9205 46.428 41.0611L57.8005 52.4335C61.5959 56.229 56.7405 61.0843 52.945 57.2889Z" fill="#393939"/>
<path d="M58.1817 57.7436C56.9612 58.9261 54.8237 59.1675 52.945 57.2888L41.5726 45.9164C41.4321 45.7757 41.3531 45.5851 41.3531 45.3863C41.3531 45.1875 41.4321 44.9968 41.5726 44.8562L41.7977 44.6309L42.9538 43.475C42.8132 43.6156 42.7343 43.8063 42.7343 44.0052C42.7343 44.204 42.8132 44.3947 42.9538 44.5353L54.3262 55.9078C55.4404 57.0219 56.9218 57.6662 58.1817 57.7436Z" fill="#343434"/>
<path d="M23.7245 21.0252L38.3376 45.6094C38.6511 46.1369 38.8193 46.738 38.8251 47.3517C38.8309 47.9653 38.6741 48.5695 38.3706 49.1029C38.0672 49.6362 37.6279 50.0797 37.0974 50.3883C36.567 50.6968 35.9643 50.8593 35.3506 50.8594H6.12429C5.51064 50.8593 4.90794 50.6968 4.37749 50.3883C3.84703 50.0797 3.40773 49.6362 3.10427 49.1029C2.80081 48.5695 2.64401 47.9653 2.64981 47.3517C2.65561 46.738 2.82381 46.1369 3.1373 45.6094L17.75 21.0252C18.0578 20.5072 18.495 20.0781 19.0187 19.7801C19.5425 19.4821 20.1347 19.3254 20.7372 19.3254C21.3398 19.3254 21.932 19.4821 22.4557 19.7801C22.9794 20.0781 23.4166 20.5072 23.7245 21.0252Z" fill="#FFDF40"/>
<path d="M7.66015 50.8594H6.12429C5.51064 50.8593 4.90794 50.6968 4.37749 50.3883C3.84703 50.0797 3.40773 49.6362 3.10427 49.1029C2.80081 48.5695 2.64401 47.9653 2.64981 47.3517C2.65561 46.738 2.82381 46.1369 3.1373 45.6094L17.75 21.0252C18.1807 20.2991 18.8611 19.7547 19.6639 19.4937C20.4668 19.2328 21.3372 19.2731 22.1125 19.6072C21.3037 19.8634 20.6186 20.4103 20.1896 21.1424L5.57691 45.7265C5.30309 46.1878 5.13968 46.7061 5.09944 47.241C5.0592 47.7759 5.14322 48.3128 5.34495 48.8099C5.54667 49.3069 5.86063 49.7505 6.26226 50.106C6.6639 50.4616 7.14233 50.7194 7.66015 50.8594Z" fill="#FFBE40"/>
<path d="M22.4704 46.4281C22.4705 46.7709 22.3688 47.1059 22.1784 47.3909C21.988 47.6759 21.7174 47.8981 21.4007 48.0293C21.0841 48.1604 20.7356 48.1948 20.3994 48.1279C20.0633 48.0611 19.7545 47.896 19.5121 47.6537C19.2697 47.4113 19.1047 47.1025 19.0378 46.7664C18.9709 46.4302 19.0052 46.0817 19.1364 45.7651C19.2676 45.4484 19.4897 45.1778 19.7747 44.9873C20.0597 44.7969 20.3947 44.6953 20.7375 44.6953C20.965 44.6952 21.1904 44.7401 21.4006 44.8271C21.6109 44.9142 21.8019 45.0418 21.9628 45.2028C22.1238 45.3637 22.2514 45.5547 22.3385 45.765C22.4256 45.9752 22.4704 46.2005 22.4704 46.4281ZM23.1771 26.6376C23.1771 26.3172 23.114 26 22.9914 25.704C22.8688 25.408 22.6891 25.1391 22.4625 24.9125C22.236 24.686 21.967 24.5063 21.6711 24.3837C21.3751 24.2611 21.0578 24.198 20.7375 24.198C20.4171 24.198 20.0999 24.2611 19.8039 24.3837C19.5079 24.5063 19.2389 24.686 19.0124 24.9125C18.7859 25.1391 18.6062 25.408 18.4836 25.704C18.361 26 18.2979 26.3172 18.2979 26.6376C18.2979 26.7229 19.0046 40.3683 19.0046 40.3683C19.0084 40.8255 19.1926 41.2626 19.5172 41.5845C19.8418 41.9064 20.2804 42.0871 20.7375 42.0871C21.1947 42.0871 21.6333 41.9064 21.9579 41.5845C22.2824 41.2626 22.4667 40.8255 22.4704 40.3683C22.4704 40.3683 23.1771 26.7229 23.1771 26.6376Z" fill="#FF5959"/>
<path d="M19.0045 40.3683C19.0045 40.3683 18.2979 26.7229 18.2979 26.6376C18.2979 26.3172 18.361 26 18.4836 25.704C18.6062 25.408 18.7859 25.1391 19.0124 24.9125C19.2389 24.686 19.5079 24.5063 19.8039 24.3837C20.0999 24.2611 20.4171 24.198 20.7375 24.198V42.1012C20.2779 42.1012 19.8371 41.9186 19.5121 41.5937C19.1871 41.2687 19.0045 40.8279 19.0045 40.3683ZM20.7375 44.6953C20.5087 44.6934 20.2818 44.7368 20.0699 44.8231C19.858 44.9093 19.6653 45.0366 19.5029 45.1978C19.3404 45.3589 19.2115 45.5505 19.1235 45.7617C19.0355 45.9729 18.9902 46.1994 18.9902 46.4282C18.9902 46.6569 19.0355 46.8835 19.1235 47.0946C19.2115 47.3058 19.3404 47.4975 19.5029 47.6586C19.6653 47.8197 19.858 47.947 20.0699 48.0333C20.2818 48.1195 20.5087 48.163 20.7375 48.1611V44.6953Z" fill="#E63A57"/>
</svg>
