<svg width="18" height="18" viewBox="0 0 18 18" fill="none" xmlns="http://www.w3.org/2000/svg">
<path d="M11.9345 6.84313C12.1493 6.62834 12.1493 6.2801 11.9345 6.06531C11.7197 5.85052 11.3715 5.85052 11.1567 6.06531L11.9345 6.84313ZM6.06549 11.1565C5.85071 11.3713 5.85071 11.7195 6.06549 11.9343C6.28028 12.1491 6.62852 12.1491 6.84331 11.9343L6.06549 11.1565ZM11.1567 11.9343C11.3715 12.1491 11.7197 12.1491 11.9345 11.9343C12.1493 11.7195 12.1493 11.3713 11.9345 11.1565L11.1567 11.9343ZM6.84331 6.06531C6.62852 5.85052 6.28028 5.85052 6.06549 6.06531C5.85071 6.2801 5.85071 6.62834 6.06549 6.84313L6.84331 6.06531ZM15.65 8.9998C15.65 12.6725 12.6727 15.6498 8.99999 15.6498V16.7498C13.2802 16.7498 16.75 13.28 16.75 8.9998H15.65ZM8.99999 15.6498C5.32729 15.6498 2.34999 12.6725 2.34999 8.9998H1.24999C1.24999 13.28 4.71978 16.7498 8.99999 16.7498V15.6498ZM2.34999 8.9998C2.34999 5.32711 5.32729 2.3498 8.99999 2.3498V1.2498C4.71978 1.2498 1.24999 4.7196 1.24999 8.9998H2.34999ZM8.99999 2.3498C12.6727 2.3498 15.65 5.32711 15.65 8.9998H16.75C16.75 4.7196 13.2802 1.2498 8.99999 1.2498V2.3498ZM11.1567 6.06531L8.61108 8.6109L9.3889 9.38871L11.9345 6.84313L11.1567 6.06531ZM8.61108 8.6109L6.06549 11.1565L6.84331 11.9343L9.3889 9.38871L8.61108 8.6109ZM11.9345 11.1565L9.3889 8.6109L8.61108 9.38871L11.1567 11.9343L11.9345 11.1565ZM9.3889 8.6109L6.84331 6.06531L6.06549 6.84313L8.61108 9.38871L9.3889 8.6109Z" fill="white"/>
</svg>
